999
dxflib 3.17.0.0
  0
SECTION
  2
HEADER
  9
$ACADVER
  1
AC1015
  9
$HANDSEED
  5
FFFF
  9
$DIMADEC
 70
0
  9
$DIMASZ
 40
2.5
  9
$DIMAUNIT
 70
0
  9
$DIMAZIN
 70
2
  9
$DIMDEC
 70
4
  9
$DIMDLI
 40
5.0
  9
$DIMDSEP
 70
46
  9
$DIMEXE
 40
1.25
  9
$DIMEXO
 40
0.625
  9
$DIMGAP
 40
0.625
  9
$DIMLUNIT
 70
2
  9
$DIMSCALE
 40
1.0
  9
$DIMTSZ
 40
0.0
  9
$DIMTXT
 40
2.5
  9
$DIMZIN
 70
8
  9
$DWGCODEPAGE
  3
ANSI_1252
  9
$INSUNITS
 70
4
  9
$LTSCALE
 40
1.0
  9
$MAXACTVP
 70
64
  9
$MEASUREMENT
 70
1
  9
$PDMODE
 70
0
  9
$PDSIZE
 40
0.0
  0
ENDSEC
  0
SECTION
  2
TABLES
  0
TABLE
  2
VPORT
  5
8
100
AcDbSymbolTable
 70
1
  0
VPORT
  5
30
100
AcDbSymbolTableRecord
100
AcDbViewportTableRecord
  2
*Active
 70
0
 10
0.0
 20
0.0
 11
1.0
 21
1.0
 12
286.3055555555554861
 22
148.5
 13
0.0
 23
0.0
 14
10.0
 24
10.0
 15
10.0
 25
10.0
 16
0.0
 26
0.0
 36
1.0
 17
0.0
 27
0.0
 37
0.0
 40
297.0
 41
1.92798353909465
 42
50.0
 43
0.0
 44
0.0
 50
0.0
 51
0.0
 71
0
 72
100
 73
1
 74
3
 75
1
 76
1
 77
0
 78
0
281
0
 65
1
110
0.0
120
0.0
130
0.0
111
1.0
121
0.0
131
0.0
112
0.0
122
1.0
132
0.0
 79
0
146
0.0
  0
ENDTAB
  0
TABLE
  2
LTYPE
  5
5
100
AcDbSymbolTable
 70
41
  0
LTYPE
  5
16
100
AcDbSymbolTableRecord
100
AcDbLinetypeTableRecord
  2
Continuous
 70
0
  3
Solid line
 72
65
 73
0
 40
0.0
  0
LTYPE
  5
31
100
AcDbSymbolTableRecord
100
AcDbLinetypeTableRecord
  2
PHANTOM2
 70
0
  3
Phantom (.5x) ___ _ _ ___ _ _ ___ _ _ ___ _ _
 72
65
 73
6
 40
31.7500000000000036
 49
15.875
 74
0
 49
-3.1749999999999998
 74
0
 49
3.1749999999999998
 74
0
 49
-3.1749999999999998
 74
0
 49
3.1749999999999998
 74
0
 49
-3.1749999999999998
 74
0
  0
LTYPE
  5
32
100
AcDbSymbolTableRecord
100
AcDbLinetypeTableRecord
  2
DIVIDE
 70
0
  3
Divide ____ . . ____ . . ____ . . ____ . . ____
 72
65
 73
6
 40
31.75
 49
12.6999999999999993
 74
0
 49
-6.3499999999999996
 74
0
 49
0.0
 74
0
 49
-6.3499999999999996
 74
0
 49
0.0
 74
0
 49
-6.3499999999999996
 74
0
  0
LTYPE
  5
33
100
AcDbSymbolTableRecord
100
AcDbLinetypeTableRecord
  2
DOTX2
 70
0
  3
Dot (2x) .  .  .  .  .  .  .  .  .  .  .  .  .  .
 72
65
 73
2
 40
12.6999999999999993
 49
0.0
 74
0
 49
-12.6999999999999993
 74
0
  0
LTYPE
  5
34
100
AcDbSymbolTableRecord
100
AcDbLinetypeTableRecord
  2
ACAD_ISO06W100
 70
0
  3
ISO long-dash triple-dot ____ ... ____ ... ____
 72
65
 73
8
 40
36.0
 49
24.0
 74
0
 49
-3.0
 74
0
 49
0.0
 74
0
 49
-3.0
 74
0
 49
0.0
 74
0
 49
-3.0
 74
0
 49
0.0
 74
0
 49
-3.0
 74
0
  0
LTYPE
  5
35
100
AcDbSymbolTableRecord
100
AcDbLinetypeTableRecord
  2
DIVIDE2
 70
0
  3
Divide (.5x) __..__..__..__..__..__..__..__.._
 72
65
 73
6
 40
15.875
 49
6.3499999999999996
 74
0
 49
-3.1749999999999998
 74
0
 49
0.0
 74
0
 49
-3.1749999999999998
 74
0
 49
0.0
 74
0
 49
-3.1749999999999998
 74
0
  0
LTYPE
  5
36
100
AcDbSymbolTableRecord
100
AcDbLinetypeTableRecord
  2
DIVIDEX2
 70
0
  3
Divide (2x) ________  .  .  ________  .  .  _
 72
65
 73
6
 40
63.5
 49
25.3999999999999986
 74
0
 49
-12.6999999999999993
 74
0
 49
0.0
 74
0
 49
-12.6999999999999993
 74
0
 49
0.0
 74
0
 49
-12.6999999999999993
 74
0
  0
LTYPE
  5
37
100
AcDbSymbolTableRecord
100
AcDbLinetypeTableRecord
  2
CENTER
 70
0
  3
Center ____ _ ____ _ ____ _ ____ _ ____ _ ____
 72
65
 73
4
 40
50.8000000000000043
 49
31.75
 74
0
 49
-6.3499999999999996
 74
0
 49
6.3499999999999996
 74
0
 49
-6.3499999999999996
 74
0
  0
LTYPE
  5
38
100
AcDbSymbolTableRecord
100
AcDbLinetypeTableRecord
  2
DOT
 70
0
  3
Dot . . . . . . . . . . . . . . . . . . . . . . . .
 72
65
 73
2
 40
6.3499999999999996
 49
0.0
 74
0
 49
-6.3499999999999996
 74
0
  0
LTYPE
  5
39
100
AcDbSymbolTableRecord
100
AcDbLinetypeTableRecord
  2
ACAD_ISO09W100
 70
0
  3
ISO long-dash double-short-dash ____ __ __ ____
 72
65
 73
6
 40
45.0
 49
24.0
 74
0
 49
-3.0
 74
0
 49
6.0
 74
0
 49
-3.0
 74
0
 49
6.0
 74
0
 49
-3.0
 74
0
  0
LTYPE
  5
3A
100
AcDbSymbolTableRecord
100
AcDbLinetypeTableRecord
  2
ACAD_ISO13W100
 70
0
  3
ISO double-dash double-dot __ __ . . __ __ . . _
 72
65
 73
8
 40
36.0
 49
12.0
 74
0
 49
-3.0
 74
0
 49
12.0
 74
0
 49
-3.0
 74
0
 49
0.0
 74
0
 49
-3.0
 74
0
 49
0.0
 74
0
 49
-3.0
 74
0
  0
LTYPE
  5
14
100
AcDbSymbolTableRecord
100
AcDbLinetypeTableRecord
  2
BYBLOCK
 70
0
  3

 72
65
 73
0
 40
0.0
  0
LTYPE
  5
3B
100
AcDbSymbolTableRecord
100
AcDbLinetypeTableRecord
  2
ACAD_ISO05W100
 70
0
  3
ISO long-dash double-dot ____ .. ____ .. ____ . 
 72
65
 73
6
 40
33.0
 49
24.0
 74
0
 49
-3.0
 74
0
 49
0.0
 74
0
 49
-3.0
 74
0
 49
0.0
 74
0
 49
-3.0
 74
0
  0
LTYPE
  5
3C
100
AcDbSymbolTableRecord
100
AcDbLinetypeTableRecord
  2
ACAD_ISO03W100
 70
0
  3
ISO dash space __    __    __    __    __    __
 72
65
 73
2
 40
30.0
 49
12.0
 74
0
 49
-18.0
 74
0
  0
LTYPE
  5
3D
100
AcDbSymbolTableRecord
100
AcDbLinetypeTableRecord
  2
DASHDOT2
 70
0
  3
Dash dot (.5x) _._._._._._._._._._._._._._._.
 72
65
 73
4
 40
12.6999999999999993
 49
6.3499999999999996
 74
0
 49
-3.1749999999999998
 74
0
 49
0.0
 74
0
 49
-3.1749999999999998
 74
0
  0
LTYPE
  5
3E
100
AcDbSymbolTableRecord
100
AcDbLinetypeTableRecord
  2
ACAD_ISO12W100
 70
0
  3
ISO dash double-dot __ . . __ . . __ . . __ . . 
 72
65
 73
6
 40
21.0
 49
12.0
 74
0
 49
-3.0
 74
0
 49
0.0
 74
0
 49
-3.0
 74
0
 49
0.0
 74
0
 49
-3.0
 74
0
  0
LTYPE
  5
3F
100
AcDbSymbolTableRecord
100
AcDbLinetypeTableRecord
  2
PHANTOMX2
 70
0
  3
Phantom (2x) ____________    ____    ____   _
 72
65
 73
6
 40
127.0000000000000142
 49
63.5
 74
0
 49
-12.6999999999999993
 74
0
 49
12.6999999999999993
 74
0
 49
-12.6999999999999993
 74
0
 49
12.6999999999999993
 74
0
 49
-12.6999999999999993
 74
0
  0
LTYPE
  5
40
100
AcDbSymbolTableRecord
100
AcDbLinetypeTableRecord
  2
CENTERX2
 70
0
  3
Center (2x) ________  __  ________  __  _____
 72
65
 73
4
 40
101.6000000000000085
 49
63.5
 74
0
 49
-12.6999999999999993
 74
0
 49
12.6999999999999993
 74
0
 49
-12.6999999999999993
 74
0
  0
LTYPE
  5
41
100
AcDbSymbolTableRecord
100
AcDbLinetypeTableRecord
  2
BORDERX2
 70
0
  3
Border (2x) ____  ____  .  ____  ____  .  ___
 72
65
 73
6
 40
88.8999999999999915
 49
25.3999999999999986
 74
0
 49
-12.6999999999999993
 74
0
 49
25.3999999999999986
 74
0
 49
-12.6999999999999993
 74
0
 49
0.0
 74
0
 49
-12.6999999999999993
 74
0
  0
LTYPE
  5
42
100
AcDbSymbolTableRecord
100
AcDbLinetypeTableRecord
  2
BORDER
 70
0
  3
Border __ __ . __ __ . __ __ . __ __ . __ __ .
 72
65
 73
6
 40
44.4499999999999957
 49
12.6999999999999993
 74
0
 49
-6.3499999999999996
 74
0
 49
12.6999999999999993
 74
0
 49
-6.3499999999999996
 74
0
 49
0.0
 74
0
 49
-6.3499999999999996
 74
0
  0
LTYPE
  5
43
100
AcDbSymbolTableRecord
100
AcDbLinetypeTableRecord
  2
BORDER2
 70
0
  3
Border (.5x) __.__.__.__.__.__.__.__.__.__.__.
 72
65
 73
6
 40
22.2249999999999979
 49
6.3499999999999996
 74
0
 49
-3.1749999999999998
 74
0
 49
6.3499999999999996
 74
0
 49
-3.1749999999999998
 74
0
 49
0.0
 74
0
 49
-3.1749999999999998
 74
0
  0
LTYPE
  5
44
100
AcDbSymbolTableRecord
100
AcDbLinetypeTableRecord
  2
ACAD_ISO10W100
 70
0
  3
ISO dash dot __ . __ . __ . __ . __ . __ . __ . 
 72
65
 73
4
 40
18.0
 49
12.0
 74
0
 49
-3.0
 74
0
 49
0.0
 74
0
 49
-3.0
 74
0
  0
LTYPE
  5
45
100
AcDbSymbolTableRecord
100
AcDbLinetypeTableRecord
  2
PHANTOM
 70
0
  3
Phantom ______  __  __  ______  __  __  ______ 
 72
65
 73
6
 40
63.5000000000000071
 49
31.75
 74
0
 49
-6.3499999999999996
 74
0
 49
6.3499999999999996
 74
0
 49
-6.3499999999999996
 74
0
 49
6.3499999999999996
 74
0
 49
-6.3499999999999996
 74
0
  0
LTYPE
  5
46
100
AcDbSymbolTableRecord
100
AcDbLinetypeTableRecord
  2
DASHDOTX2
 70
0
  3
Dash dot (2x) ____  .  ____  .  ____  .  ___
 72
65
 73
4
 40
50.7999999999999972
 49
25.3999999999999986
 74
0
 49
-12.6999999999999993
 74
0
 49
0.0
 74
0
 49
-12.6999999999999993
 74
0
  0
LTYPE
  5
47
100
AcDbSymbolTableRecord
100
AcDbLinetypeTableRecord
  2
DASHED
 70
0
  3
Dashed __ __ __ __ __ __ __ __ __ __ __ __ __ _
 72
65
 73
2
 40
19.0499999999999972
 49
12.6999999999999993
 74
0
 49
-6.3499999999999996
 74
0
  0
LTYPE
  5
48
100
AcDbSymbolTableRecord
100
AcDbLinetypeTableRecord
  2
ACAD_ISO15W100
 70
0
  3
ISO double-dash triple-dot __ __ . . . __ __ . .
 72
65
 73
10
 40
39.0
 49
12.0
 74
0
 49
-3.0
 74
0
 49
12.0
 74
0
 49
-3.0
 74
0
 49
0.0
 74
0
 49
-3.0
 74
0
 49
0.0
 74
0
 49
-3.0
 74
0
 49
0.0
 74
0
 49
-3.0
 74
0
  0
LTYPE
  5
49
100
AcDbSymbolTableRecord
100
AcDbLinetypeTableRecord
  2
HIDDEN
 70
0
  3
Hidden __ __ __ __ __ __ __ __ __ __ __ __ __ __
 72
65
 73
2
 40
9.5249999999999986
 49
6.3499999999999996
 74
0
 49
-3.1749999999999998
 74
0
  0
LTYPE
  5
4A
100
AcDbSymbolTableRecord
100
AcDbLinetypeTableRecord
  2
DASHEDX2
 70
0
  3
Dashed (2x) ____  ____  ____  ____  ____  ___
 72
65
 73
2
 40
38.0999999999999943
 49
25.3999999999999986
 74
0
 49
-12.6999999999999993
 74
0
  0
LTYPE
  5
4B
100
AcDbSymbolTableRecord
100
AcDbLinetypeTableRecord
  2
HIDDEN2
 70
0
  3
Hidden (.5x) _ _ _ _ _ _ _ _ _ _ _ _ _ _ _ _ _ 
 72
65
 73
2
 40
4.7624999999999993
 49
3.1749999999999998
 74
0
 49
-1.5874999999999999
 74
0
  0
LTYPE
  5
4C
100
AcDbSymbolTableRecord
100
AcDbLinetypeTableRecord
  2
ACAD_ISO11W100
 70
0
  3
ISO double-dash dot __ __ . __ __ . __ __ . __ _
 72
65
 73
6
 40
33.0
 49
12.0
 74
0
 49
-3.0
 74
0
 49
12.0
 74
0
 49
-3.0
 74
0
 49
0.0
 74
0
 49
-3.0
 74
0
  0
LTYPE
  5
4D
100
AcDbSymbolTableRecord
100
AcDbLinetypeTableRecord
  2
DASHDOT
 70
0
  3
Dash dot __ . __ . __ . __ . __ . __ . __ . __
 72
65
 73
4
 40
25.3999999999999986
 49
12.6999999999999993
 74
0
 49
-6.3499999999999996
 74
0
 49
0.0
 74
0
 49
-6.3499999999999996
 74
0
  0
LTYPE
  5
4E
100
AcDbSymbolTableRecord
100
AcDbLinetypeTableRecord
  2
ACAD_ISO04W100
 70
0
  3
ISO long-dash dot ____ . ____ . ____ . ____ . _
 72
65
 73
4
 40
30.0
 49
24.0
 74
0
 49
-3.0
 74
0
 49
0.0
 74
0
 49
-3.0
 74
0
  0
LTYPE
  5
15
100
AcDbSymbolTableRecord
100
AcDbLinetypeTableRecord
  2
BYLAYER
 70
0
  3

 72
65
 73
0
 40
0.0
  0
LTYPE
  5
4F
100
AcDbSymbolTableRecord
100
AcDbLinetypeTableRecord
  2
CENTER2
 70
0
  3
Center (.5x) ___ _ ___ _ ___ _ ___ _ ___ _ ___
 72
65
 73
4
 40
28.5750000000000028
 49
19.0500000000000007
 74
0
 49
-3.1749999999999998
 74
0
 49
3.1749999999999998
 74
0
 49
-3.1749999999999998
 74
0
  0
LTYPE
  5
50
100
AcDbSymbolTableRecord
100
AcDbLinetypeTableRecord
  2
HIDDENX2
 70
0
  3
Hidden (2x) ____ ____ ____ ____ ____ ____ ____ 
 72
65
 73
2
 40
19.0499999999999972
 49
12.6999999999999993
 74
0
 49
-6.3499999999999996
 74
0
  0
LTYPE
  5
51
100
AcDbSymbolTableRecord
100
AcDbLinetypeTableRecord
  2
DASHED2
 70
0
  3
Dashed (.5x) _ _ _ _ _ _ _ _ _ _ _ _ _ _ _ _ _ 
 72
65
 73
2
 40
9.5249999999999986
 49
6.3499999999999996
 74
0
 49
-3.1749999999999998
 74
0
  0
LTYPE
  5
52
100
AcDbSymbolTableRecord
100
AcDbLinetypeTableRecord
  2
ACAD_ISO02W100
 70
0
  3
ISO dash __ __ __ __ __ __ __ __ __ __ __ __ __
 72
65
 73
2
 40
15.0
 49
12.0
 74
0
 49
-3.0
 74
0
  0
LTYPE
  5
53
100
AcDbSymbolTableRecord
100
AcDbLinetypeTableRecord
  2
ACAD_ISO14W100
 70
0
  3
ISO dash triple-dot __ . . . __ . . . __ . . . _
 72
65
 73
8
 40
24.0
 49
12.0
 74
0
 49
-3.0
 74
0
 49
0.0
 74
0
 49
-3.0
 74
0
 49
0.0
 74
0
 49
-3.0
 74
0
 49
0.0
 74
0
 49
-3.0
 74
0
  0
LTYPE
  5
54
100
AcDbSymbolTableRecord
100
AcDbLinetypeTableRecord
  2
ACAD_ISO08W100
 70
0
  3
ISO long-dash short-dash ____ __ ____ __ ____ _
 72
65
 73
4
 40
36.0
 49
24.0
 74
0
 49
-3.0
 74
0
 49
6.0
 74
0
 49
-3.0
 74
0
  0
LTYPE
  5
55
100
AcDbSymbolTableRecord
100
AcDbLinetypeTableRecord
  2
DOT2
 70
0
  3
Dot (.5x) ........................................
 72
65
 73
2
 40
3.1749999999999998
 49
0.0
 74
0
 49
-3.1749999999999998
 74
0
  0
LTYPE
  5
56
100
AcDbSymbolTableRecord
100
AcDbLinetypeTableRecord
  2
ACAD_ISO07W100
 70
0
  3
ISO dot . . . . . . . . . . . . . . . . . . . . 
 72
65
 73
2
 40
3.0
 49
0.0
 74
0
 49
-3.0
 74
0
  0
ENDTAB
  0
TABLE
  2
LAYER
  5
2
100
AcDbSymbolTable
 70
1
  0
LAYER
  5
10
100
AcDbSymbolTableRecord
100
AcDbLayerTableRecord
  2
0
 70
0
 62
7
420
0
  6
Continuous
370
25
390
F
  0
ENDTAB
  0
TABLE
  2
STYLE
  5
3
100
AcDbSymbolTable
 70
9
  0
STYLE
  5
57
100
AcDbSymbolTableRecord
100
AcDbTextStyleTableRecord
  2
Standard
 70
0
 40
0.0
 41
1.0
 50
0.0
 71
0
 42
2.5
  3

  4

1001
ACAD
1000
txt
1071
0
  0
STYLE
  5
58
100
AcDbSymbolTableRecord
100
AcDbTextStyleTableRecord
  2
textstyle0
 70
0
 40
0.0
 41
1.0
 50
0.0
 71
0
 42
1.0
  3

  4

1001
ACAD
1000
DejaVu Sans
1071
0
  0
STYLE
  5
59
100
AcDbSymbolTableRecord
100
AcDbTextStyleTableRecord
  2
textstyle1
 70
0
 40
0.0
 41
1.0
 50
0.0
 71
0
 42
1.0
  3

  4

1001
ACAD
1000
DejaVu Sans
1071
0
  0
STYLE
  5
5A
100
AcDbSymbolTableRecord
100
AcDbTextStyleTableRecord
  2
textstyle2
 70
0
 40
0.0
 41
1.0
 50
0.0
 71
0
 42
1.0
  3

  4

1001
ACAD
1000
DejaVu Sans
1071
0
  0
STYLE
  5
5B
100
AcDbSymbolTableRecord
100
AcDbTextStyleTableRecord
  2
textstyle3
 70
0
 40
0.0
 41
1.0
 50
0.0
 71
0
 42
1.0
  3

  4

1001
ACAD
1000
DejaVu Sans
1071
0
  0
STYLE
  5
5C
100
AcDbSymbolTableRecord
100
AcDbTextStyleTableRecord
  2
textstyle4
 70
0
 40
0.0
 41
1.0
 50
0.0
 71
0
 42
1.0
  3

  4

1001
ACAD
1000
DejaVu Sans
1071
0
  0
STYLE
  5
5D
100
AcDbSymbolTableRecord
100
AcDbTextStyleTableRecord
  2
textstyle5
 70
0
 40
0.0
 41
1.0
 50
0.0
 71
0
 42
1.0
  3

  4

1001
ACAD
1000
DejaVu Sans
1071
0
  0
STYLE
  5
5E
100
AcDbSymbolTableRecord
100
AcDbTextStyleTableRecord
  2
textstyle6
 70
0
 40
0.0
 41
1.0
 50
0.0
 71
0
 42
1.0
  3

  4

1001
ACAD
1000
DejaVu Sans
1071
0
  0
STYLE
  5
5F
100
AcDbSymbolTableRecord
100
AcDbTextStyleTableRecord
  2
textstyle7
 70
0
 40
0.0
 41
1.0
 50
0.0
 71
0
 42
1.0
  3

  4

1001
ACAD
1000
DejaVu Sans
1071
0
  0
ENDTAB
  0
TABLE
  2
VIEW
  5
6
100
AcDbSymbolTable
 70
0
  0
ENDTAB
  0
TABLE
  2
UCS
  5
7
100
AcDbSymbolTable
 70
0
  0
ENDTAB
  0
TABLE
  2
APPID
  5
9
100
AcDbSymbolTable
 70
1
  0
APPID
  5
12
100
AcDbSymbolTableRecord
100
AcDbRegAppTableRecord
  2
ACAD
 70
0
  0
APPID
  5
60
100
AcDbSymbolTableRecord
100
AcDbRegAppTableRecord
  2
QCAD
 70
0
  0
ENDTAB
  0
TABLE
  2
DIMSTYLE
  5
A
100
AcDbSymbolTable
 70
1
100
AcDbDimStyleTable
 71
0
  0
DIMSTYLE
105
27
100
AcDbSymbolTableRecord
100
AcDbDimStyleTableRecord
  2
Standard
 41
2.5
 42
0.625
 43
3.75
 44
1.25
 70
0
 73
0
 74
0
 77
1
 78
8
140
2.5
141
2.5
143
0.03937007874016
147
0.625
171
3
172
1
271
2
272
2
274
3
278
44
283
0
284
8
340
57
  0
ENDTAB
  0
TABLE
  2
BLOCK_RECORD
  5
1
100
AcDbSymbolTable
 70
1
  0
BLOCK_RECORD
  5
1F
100
AcDbSymbolTableRecord
100
AcDbBlockTableRecord
  2
*Model_Space
340
22
  0
BLOCK_RECORD
  5
1B
100
AcDbSymbolTableRecord
100
AcDbBlockTableRecord
  2
*Paper_Space
340
1E
  0
BLOCK_RECORD
  5
23
100
AcDbSymbolTableRecord
100
AcDbBlockTableRecord
  2
*Paper_Space0
340
26
  0
ENDTAB
  0
ENDSEC
  0
SECTION
  2
BLOCKS
  0
BLOCK
  5
20
100
AcDbEntity
  8
0
100
AcDbBlockBegin
  2
*Model_Space
 70
0
 10
0.0
 20
0.0
 30
0.0
  3
*Model_Space
  1

  0
ENDBLK
  5
21
100
AcDbEntity
  8
0
100
AcDbBlockEnd
  0
BLOCK
  5
1C
100
AcDbEntity
 67
1
  8
0
100
AcDbBlockBegin
  2
*Paper_Space
 70
0
 10
0.0
 20
0.0
 30
0.0
  3
*Paper_Space
  1

  0
ENDBLK
  5
1D
100
AcDbEntity
 67
1
  8
0
100
AcDbBlockEnd
  0
BLOCK
  5
24
100
AcDbEntity
  8
0
100
AcDbBlockBegin
  2
*Paper_Space0
 70
0
 10
0.0
 20
0.0
 30
0.0
  3
*Paper_Space0
  1

  0
ENDBLK
  5
25
100
AcDbEntity
  8
0
100
AcDbBlockEnd
  0
ENDSEC
  0
SECTION
  2
ENTITIES
  0
HATCH
  5
61
100
AcDbEntity
  8
0
 62
2
420
16776960
370
-1
 48
1.0
  6
BYLAYER
100
AcDbHatch
 10
0.0
 20
0.0
 30
0.0
210
0.0
220
0.0
230
1.0
  2
SOLID
 70
1
 71
0
 91
1
 92
1
 93
8
 72
1
 10
112.0
 20
0.0
 11
112.0
 21
192.0
 72
1
 10
112.0
 20
192.0
 11
94.0
 21
192.0
 72
1
 10
94.0
 20
192.0
 11
18.0
 21
192.0
 72
1
 10
18.0
 20
192.0
 11
0.0
 21
192.0
 72
1
 10
0.0
 20
192.0
 11
0.0
 21
0.0
 72
1
 10
0.0
 20
0.0
 11
18.0
 21
0.0
 72
1
 10
18.0
 20
0.0
 11
94.0
 21
0.0
 72
1
 10
94.0
 20
0.0
 11
112.0
 21
0.0
 97
0
 75
0
 76
1
 98
0
1001
ACAD
1010
0.0
1020
0.0
1030
0
  0
CIRCLE
  5
62
100
AcDbEntity
  8
0
 62
256
370
-1
 48
1.0
  6
BYLAYER
100
AcDbCircle
 10
158.0001023015059616
 20
142.9998306126932164
 30
0.0
 40
5.0
  0
LINE
  5
63
100
AcDbEntity
  8
0
 62
256
370
-1
 48
1.0
  6
BYLAYER
100
AcDbLine
 10
0.0
 20
0.0
 30
0.0
 11
18.0
 21
0.0
 31
0.0
  0
LINE
  5
64
100
AcDbEntity
  8
0
 62
256
370
-1
 48
1.0
  6
BYLAYER
100
AcDbLine
 10
0.0
 20
229.0
 30
0.0
 11
9.0
 21
229.0
 31
0.0
  0
LINE
  5
65
100
AcDbEntity
  8
0
 62
256
370
-1
 48
1.0
  6
BYLAYER
100
AcDbLine
 10
183.0
 20
229.0
 30
0.0
 11
192.0
 21
229.0
 31
0.0
  0
LINE
  5
66
100
AcDbEntity
  8
0
 62
256
370
-1
 48
1.0
  6
BYLAYER
100
AcDbLine
 10
174.0
 20
229.0
 30
0.0
 11
174.2656865167015496
 21
229.0
 31
0.0
  0
LINE
  5
67
100
AcDbEntity
  8
0
 62
256
370
-1
 48
1.0
  6
BYLAYER
100
AcDbLine
 10
178.2343134832984504
 20
229.0
 30
0.0
 11
183.0
 21
229.0
 31
0.0
  0
LINE
  5
68
100
AcDbEntity
  8
0
 62
256
370
-1
 48
1.0
  6
BYLAYER
100
AcDbLine
 10
192.0
 20
229.0
 30
0.0
 11
192.0
 21
359.0
 31
0.0
  0
LINE
  5
69
100
AcDbEntity
  8
0
 62
256
370
-1
 48
1.0
  6
BYLAYER
100
AcDbLine
 10
9.0
 20
229.0
 30
0.0
 11
9.0
 21
359.0
 31
0.0
  0
LINE
  5
6A
100
AcDbEntity
  8
0
 62
256
370
-1
 48
1.0
  6
BYLAYER
100
AcDbLine
 10
18.0
 20
0.0
 30
0.0
 11
18.0
 21
6.0
 31
0.0
  0
LINE
  5
6B
100
AcDbEntity
  8
0
 62
256
370
-1
 48
1.0
  6
BYLAYER
100
AcDbLine
 10
9.0
 20
359.0
 30
0.0
 11
0.0
 21
359.0
 31
0.0
  0
LINE
  5
6C
100
AcDbEntity
  8
0
 62
256
370
-1
 48
1.0
  6
BYLAYER
100
AcDbLine
 10
192.0
 20
359.0
 30
0.0
 11
183.0
 21
359.0
 31
0.0
  0
LINE
  5
6D
100
AcDbEntity
  8
0
 62
256
370
-1
 48
1.0
  6
BYLAYER
100
AcDbLine
 10
183.0
 20
359.0
 30
0.0
 11
174.0
 21
359.0
 31
0.0
  0
LINE
  5
6E
100
AcDbEntity
  8
0
 62
256
370
-1
 48
1.0
  6
BYLAYER
100
AcDbLine
 10
174.0
 20
359.0
 30
0.0
 11
165.0
 21
359.0
 31
0.0
  0
LINE
  5
6F
100
AcDbEntity
  8
0
 62
256
370
-1
 48
1.0
  6
BYLAYER
100
AcDbLine
 10
165.0
 20
359.0
 30
0.0
 11
18.0
 21
359.0
 31
0.0
  0
LINE
  5
70
100
AcDbEntity
  8
0
 62
256
370
-1
 48
1.0
  6
BYLAYER
100
AcDbLine
 10
18.0
 20
359.0
 30
0.0
 11
9.0
 21
359.0
 31
0.0
  0
LINE
  5
71
100
AcDbEntity
  8
0
 62
256
370
-1
 48
1.0
  6
BYLAYER
100
AcDbLine
 10
9.0
 20
359.0
 30
0.0
 11
0.0
 21
359.0
 31
0.0
  0
LINE
  5
72
100
AcDbEntity
  8
0
 62
256
370
-1
 48
1.0
  6
BYLAYER
100
AcDbLine
 10
21.0
 20
9.0
 30
0.0
 11
91.0
 21
9.0
 31
0.0
  0
LINE
  5
73
100
AcDbEntity
  8
0
 62
256
370
-1
 48
1.0
  6
BYLAYER
100
AcDbLine
 10
0.0
 20
359.0
 30
0.0
 11
0.0
 21
229.0
 31
0.0
  0
LINE
  5
74
100
AcDbEntity
  8
0
 62
256
370
-1
 48
1.0
  6
BYLAYER
100
AcDbLine
 10
0.0
 20
359.0
 30
0.0
 11
0.0
 21
229.0
 31
0.0
  0
LINE
  5
75
100
AcDbEntity
  8
0
 62
256
370
-1
 48
1.0
  6
BYLAYER
100
AcDbLine
 10
94.0
 20
6.0
 30
0.0
 11
94.0
 21
0.0
 31
0.0
  0
LINE
  5
76
100
AcDbEntity
  8
0
 62
256
370
-1
 48
1.0
  6
BYLAYER
100
AcDbLine
 10
94.0
 20
0.0
 30
0.0
 11
112.0
 21
0.0
 31
0.0
  0
LINE
  5
77
100
AcDbEntity
  8
0
 62
256
370
-1
 48
1.0
  6
BYLAYER
100
AcDbLine
 10
18.0
 20
220.0
 30
0.0
 11
174.0
 21
220.0
 31
0.0
  0
LINE
  5
78
100
AcDbEntity
  8
0
 62
256
370
-1
 48
1.0
  6
BYLAYER
100
AcDbLine
 10
0.0
 20
229.0
 30
0.0
 11
9.0
 21
229.0
 31
0.0
  0
LINE
  5
79
100
AcDbEntity
  8
0
 62
256
370
-1
 48
1.0
  6
BYLAYER
100
AcDbLine
 10
9.0
 20
229.0
 30
0.0
 11
13.7656865167015567
 21
229.0
 31
0.0
  0
LINE
  5
7A
100
AcDbEntity
  8
0
 62
256
370
-1
 48
1.0
  6
BYLAYER
100
AcDbLine
 10
17.7343134832984433
 20
229.0
 30
0.0
 11
18.0
 21
229.0
 31
0.0
  0
LINE
  5
7B
100
AcDbEntity
  8
0
 62
256
370
-1
 48
1.0
  6
BYLAYER
100
AcDbLine
 10
112.0
 20
0.0
 30
0.0
 11
112.0
 21
192.0
 31
0.0
  0
LINE
  5
7C
100
AcDbEntity
  8
0
 62
256
370
-1
 48
1.0
  6
BYLAYER
100
AcDbLine
 10
174.0
 20
220.0
 30
0.0
 11
174.0
 21
224.7656865167015496
 31
0.0
  0
LINE
  5
7D
100
AcDbEntity
  8
0
 62
256
370
-1
 48
1.0
  6
BYLAYER
100
AcDbLine
 10
174.0
 20
228.7343134832984504
 30
0.0
 11
174.0
 21
229.0
 31
0.0
  0
LINE
  5
7E
100
AcDbEntity
  8
0
 62
256
370
-1
 48
1.0
  6
BYLAYER
100
AcDbLine
 10
18.0
 20
229.0
 30
0.0
 11
18.0
 21
228.7343134832984504
 31
0.0
  0
LINE
  5
7F
100
AcDbEntity
  8
0
 62
256
370
-1
 48
1.0
  6
BYLAYER
100
AcDbLine
 10
18.0
 20
224.7656865167015496
 30
0.0
 11
18.0
 21
220.0
 31
0.0
  0
LINE
  5
80
100
AcDbEntity
  8
0
 62
256
370
-1
 48
1.0
  6
BYLAYER
100
AcDbLine
 10
18.0
 20
220.0
 30
0.0
 11
174.0
 21
220.0
 31
0.0
  0
LINE
  5
81
100
AcDbEntity
  8
0
 62
256
370
-1
 48
1.0
  6
BYLAYER
100
AcDbLine
 10
112.0
 20
192.0
 30
0.0
 11
94.0
 21
192.0
 31
0.0
  0
LINE
  5
82
100
AcDbEntity
  8
0
 62
256
370
-1
 48
1.0
  6
BYLAYER
100
AcDbLine
 10
174.0
 20
229.0
 30
0.0
 11
165.0
 21
229.0
 31
0.0
  0
LINE
  5
83
100
AcDbEntity
  8
0
 62
256
370
-1
 48
1.0
  6
BYLAYER
100
AcDbLine
 10
165.0
 20
229.0
 30
0.0
 11
165.0
 21
359.0
 31
0.0
  0
LINE
  5
84
100
AcDbEntity
  8
0
 62
256
370
-1
 48
1.0
  6
BYLAYER
100
AcDbLine
 10
94.0
 20
192.0
 30
0.0
 11
94.0
 21
186.0
 31
0.0
  0
LINE
  5
85
100
AcDbEntity
  8
0
 62
256
370
-1
 48
1.0
  6
BYLAYER
100
AcDbLine
 10
174.0
 20
220.0
 30
0.0
 11
174.0
 21
224.7656865167015496
 31
0.0
  0
LINE
  5
86
100
AcDbEntity
  8
0
 62
256
370
-1
 48
1.0
  6
BYLAYER
100
AcDbLine
 10
174.0
 20
228.7343134832984504
 30
0.0
 11
174.0
 21
229.0
 31
0.0
  0
LINE
  5
87
100
AcDbEntity
  8
0
 62
256
370
-1
 48
1.0
  6
BYLAYER
100
AcDbLine
 10
165.0
 20
359.0
 30
0.0
 11
27.0
 21
359.0
 31
0.0
  0
LINE
  5
88
100
AcDbEntity
  8
0
 62
256
370
-1
 48
1.0
  6
BYLAYER
100
AcDbLine
 10
91.0
 20
183.0
 30
0.0
 11
21.0
 21
183.0
 31
0.0
  0
LINE
  5
89
100
AcDbEntity
  8
0
 62
256
370
-1
 48
1.0
  6
BYLAYER
100
AcDbLine
 10
359.0
 20
229.0
 30
0.0
 11
359.2656865167015781
 21
229.0
 31
0.0
  0
LINE
  5
8A
100
AcDbEntity
  8
0
 62
256
370
-1
 48
1.0
  6
BYLAYER
100
AcDbLine
 10
363.2343134832984219
 20
229.0
 30
0.0
 11
368.0
 21
229.0
 31
0.0
  0
LINE
  5
8B
100
AcDbEntity
  8
0
 62
256
370
-1
 48
1.0
  6
BYLAYER
100
AcDbLine
 10
368.0
 20
229.0
 30
0.0
 11
368.0
 21
359.0
 31
0.0
  0
LINE
  5
8C
100
AcDbEntity
  8
0
 62
256
370
-1
 48
1.0
  6
BYLAYER
100
AcDbLine
 10
27.0
 20
359.0
 30
0.0
 11
27.0
 21
229.0
 31
0.0
  0
LINE
  5
8D
100
AcDbEntity
  8
0
 62
256
370
-1
 48
1.0
  6
BYLAYER
100
AcDbLine
 10
18.0
 20
186.0
 30
0.0
 11
18.0
 21
192.0
 31
0.0
  0
LINE
  5
8E
100
AcDbEntity
  8
0
 62
256
370
-1
 48
1.0
  6
BYLAYER
100
AcDbLine
 10
18.0
 20
192.0
 30
0.0
 11
0.0
 21
192.0
 31
0.0
  0
LINE
  5
8F
100
AcDbEntity
  8
0
 62
256
370
-1
 48
1.0
  6
BYLAYER
100
AcDbLine
 10
27.0
 20
229.0
 30
0.0
 11
18.0
 21
229.0
 31
0.0
  0
LINE
  5
90
100
AcDbEntity
  8
0
 62
256
370
-1
 48
1.0
  6
BYLAYER
100
AcDbLine
 10
350.0
 20
359.0
 30
0.0
 11
342.0
 21
359.0
 31
0.0
  0
LINE
  5
91
100
AcDbEntity
  8
0
 62
256
370
-1
 48
1.0
  6
BYLAYER
100
AcDbLine
 10
342.0
 20
359.0
 30
0.0
 11
320.6999999999999886
 21
359.0
 31
0.0
  0
LINE
  5
92
100
AcDbEntity
  8
0
 62
256
370
-1
 48
1.0
  6
BYLAYER
100
AcDbLine
 10
320.6999999999999886
 20
359.0
 30
0.0
 11
312.6999999999999886
 21
359.0
 31
0.0
  0
LINE
  5
93
100
AcDbEntity
  8
0
 62
256
370
-1
 48
1.0
  6
BYLAYER
100
AcDbLine
 10
312.6999999999999886
 20
359.0
 30
0.0
 11
285.3000000000000114
 21
359.0
 31
0.0
  0
LINE
  5
94
100
AcDbEntity
  8
0
 62
256
370
-1
 48
1.0
  6
BYLAYER
100
AcDbLine
 10
285.3000000000000114
 20
359.0
 30
0.0
 11
277.3000000000000114
 21
359.0
 31
0.0
  0
LINE
  5
95
100
AcDbEntity
  8
0
 62
256
370
-1
 48
1.0
  6
BYLAYER
100
AcDbLine
 10
277.3000000000000114
 20
359.0
 30
0.0
 11
256.0
 21
359.0
 31
0.0
  0
LINE
  5
96
100
AcDbEntity
  8
0
 62
256
370
-1
 48
1.0
  6
BYLAYER
100
AcDbLine
 10
256.0
 20
359.0
 30
0.0
 11
248.0
 21
359.0
 31
0.0
  0
LINE
  5
97
100
AcDbEntity
  8
0
 62
256
370
-1
 48
1.0
  6
BYLAYER
100
AcDbLine
 10
248.0
 20
359.0
 30
0.0
 11
239.0
 21
359.0
 31
0.0
  0
LINE
  5
98
100
AcDbEntity
  8
0
 62
256
370
-1
 48
1.0
  6
BYLAYER
100
AcDbLine
 10
239.0
 20
359.0
 30
0.0
 11
230.0
 21
359.0
 31
0.0
  0
LINE
  5
99
100
AcDbEntity
  8
0
 62
256
370
-1
 48
1.0
  6
BYLAYER
100
AcDbLine
 10
368.0
 20
359.0
 30
0.0
 11
359.0
 21
359.0
 31
0.0
  0
LINE
  5
9A
100
AcDbEntity
  8
0
 62
256
370
-1
 48
1.0
  6
BYLAYER
100
AcDbLine
 10
359.0
 20
359.0
 30
0.0
 11
350.0
 21
359.0
 31
0.0
  0
LINE
  5
9B
100
AcDbEntity
  8
0
 62
256
370
-1
 48
1.0
  6
BYLAYER
100
AcDbLine
 10
230.0
 20
359.0
 30
0.0
 11
230.0
 21
229.0
 31
0.0
  0
LINE
  5
9C
100
AcDbEntity
  8
0
 62
256
370
-1
 48
1.0
  6
BYLAYER
100
AcDbLine
 10
0.0
 20
192.0
 30
0.0
 11
0.0
 21
0.0
 31
0.0
  0
LINE
  5
9D
100
AcDbEntity
  8
0
 62
256
370
-1
 48
1.0
  6
BYLAYER
100
AcDbLine
 10
18.0
 20
229.0
 30
0.0
 11
18.0
 21
228.7343134832984504
 31
0.0
  0
LINE
  5
9E
100
AcDbEntity
  8
0
 62
256
370
-1
 48
1.0
  6
BYLAYER
100
AcDbLine
 10
18.0
 20
224.7656865167015496
 30
0.0
 11
18.0
 21
220.0
 31
0.0
  0
LINE
  5
9F
100
AcDbEntity
  8
0
 62
256
370
-1
 48
1.0
  6
BYLAYER
100
AcDbLine
 10
183.0
 20
229.0
 30
0.0
 11
192.0
 21
229.0
 31
0.0
  0
LINE
  5
A0
100
AcDbEntity
  8
0
 62
256
370
-1
 48
1.0
  6
BYLAYER
100
AcDbLine
 10
9.0
 20
21.0
 30
0.0
 11
9.0
 21
171.0
 31
0.0
  0
LINE
  5
A1
100
AcDbEntity
  8
0
 62
256
370
-1
 48
1.0
  6
BYLAYER
100
AcDbLine
 10
230.0
 20
229.0
 30
0.0
 11
234.7656865167015496
 21
229.0
 31
0.0
  0
LINE
  5
A2
100
AcDbEntity
  8
0
 62
256
370
-1
 48
1.0
  6
BYLAYER
100
AcDbLine
 10
238.7343134832984504
 20
229.0
 30
0.0
 11
239.0
 21
229.0
 31
0.0
  0
LINE
  5
A3
100
AcDbEntity
  8
0
 62
256
370
-1
 48
1.0
  6
BYLAYER
100
AcDbLine
 10
192.0
 20
229.0
 30
0.0
 11
192.0
 21
359.0
 31
0.0
  0
LINE
  5
A4
100
AcDbEntity
  8
0
 62
256
370
-1
 48
1.0
  6
BYLAYER
100
AcDbLine
 10
12.0
 20
174.0
 30
0.0
 11
15.0
 21
174.0
 31
0.0
  0
LINE
  5
A5
100
AcDbEntity
  8
0
 62
256
370
-1
 48
1.0
  6
BYLAYER
100
AcDbLine
 10
239.0
 20
229.0
 30
0.0
 11
239.0
 21
228.7343134832984504
 31
0.0
  0
LINE
  5
A6
100
AcDbEntity
  8
0
 62
256
370
-1
 48
1.0
  6
BYLAYER
100
AcDbLine
 10
239.0
 20
224.7656865167015496
 30
0.0
 11
239.0
 21
220.0
 31
0.0
  0
LINE
  5
A7
100
AcDbEntity
  8
0
 62
256
370
-1
 48
1.0
  6
BYLAYER
100
AcDbLine
 10
239.0
 20
220.0
 30
0.0
 11
359.0
 21
220.0
 31
0.0
  0
LINE
  5
A8
100
AcDbEntity
  8
0
 62
256
370
-1
 48
1.0
  6
BYLAYER
100
AcDbLine
 10
192.0
 20
359.0
 30
0.0
 11
183.0
 21
359.0
 31
0.0
  0
LINE
  5
A9
100
AcDbEntity
  8
0
 62
256
370
-1
 48
1.0
  6
BYLAYER
100
AcDbLine
 10
18.0
 20
171.0
 30
0.0
 11
18.0
 21
21.0
 31
0.0
  0
LINE
  5
AA
100
AcDbEntity
  8
0
 62
256
370
-1
 48
1.0
  6
BYLAYER
100
AcDbLine
 10
183.0
 20
359.0
 30
0.0
 11
183.0
 21
229.0
 31
0.0
  0
LINE
  5
AB
100
AcDbEntity
  8
0
 62
256
370
-1
 48
1.0
  6
BYLAYER
100
AcDbLine
 10
15.0
 20
18.0
 30
0.0
 11
12.0
 21
18.0
 31
0.0
  0
LINE
  5
AC
100
AcDbEntity
  8
0
 62
256
370
-1
 48
1.0
  6
BYLAYER
100
AcDbLine
 10
359.0
 20
220.0
 30
0.0
 11
359.0
 21
224.7656865167015496
 31
0.0
  0
LINE
  5
AD
100
AcDbEntity
  8
0
 62
256
370
-1
 48
1.0
  6
BYLAYER
100
AcDbLine
 10
359.0
 20
228.7343134832984504
 30
0.0
 11
359.0
 21
229.0
 31
0.0
  0
LINE
  5
AE
100
AcDbEntity
  8
0
 62
256
370
-1
 48
1.0
  6
BYLAYER
100
AcDbLine
 10
27.0
 20
21.747115129195123
 30
0.0
 11
27.0
 21
24.0
 31
0.0
  0
LINE
  5
AF
100
AcDbEntity
  8
0
 62
256
370
-1
 48
1.0
  6
BYLAYER
100
AcDbLine
 10
30.0
 20
27.0
 30
0.0
 11
82.0
 21
27.0
 31
0.0
  0
LINE
  5
B0
100
AcDbEntity
  8
0
 62
256
370
-1
 48
1.0
  6
BYLAYER
100
AcDbLine
 10
85.0
 20
24.0
 30
0.0
 11
85.0
 21
21.7471151291951266
 31
0.0
  0
LINE
  5
B1
100
AcDbEntity
  8
0
 62
256
370
-1
 48
1.0
  6
BYLAYER
100
AcDbLine
 10
81.252884870804877
 20
18.0
 30
0.0
 11
30.7471151291949738
 21
18.0
 31
0.0
  0
LINE
  5
B2
100
AcDbEntity
  8
0
 62
256
370
-1
 48
1.0
  6
BYLAYER
100
AcDbLine
 10
27.0
 20
39.0
 30
0.0
 11
27.0
 21
153.0
 31
0.0
  0
LINE
  5
B3
100
AcDbEntity
  8
0
 62
256
370
-1
 48
1.0
  6
BYLAYER
100
AcDbLine
 10
30.0
 20
156.0
 30
0.0
 11
33.0
 21
156.0
 31
0.0
  0
LINE
  5
B4
100
AcDbEntity
  8
0
 62
256
370
-1
 48
1.0
  6
BYLAYER
100
AcDbLine
 10
36.0
 20
153.0
 30
0.0
 11
36.0
 21
39.0
 31
0.0
  0
LINE
  5
B5
100
AcDbEntity
  8
0
 62
256
370
-1
 48
1.0
  6
BYLAYER
100
AcDbLine
 10
33.0
 20
36.0
 30
0.0
 11
30.0
 21
36.0
 31
0.0
  0
LINE
  5
B6
100
AcDbEntity
  8
0
 62
256
370
-1
 48
1.0
  6
BYLAYER
100
AcDbLine
 10
27.0
 20
168.0
 30
0.0
 11
27.0
 21
170.252884870804877
 31
0.0
  0
LINE
  5
B7
100
AcDbEntity
  8
0
 62
256
370
-1
 48
1.0
  6
BYLAYER
100
AcDbLine
 10
30.7471151291951195
 20
174.0
 30
0.0
 11
81.2528848708050191
 21
174.0
 31
0.0
  0
LINE
  5
B8
100
AcDbEntity
  8
0
 62
256
370
-1
 48
1.0
  6
BYLAYER
100
AcDbLine
 10
85.0
 20
170.252884870804877
 30
0.0
 11
85.0
 21
168.0
 31
0.0
  0
LINE
  5
B9
100
AcDbEntity
  8
0
 62
256
370
-1
 48
1.0
  6
BYLAYER
100
AcDbLine
 10
82.0
 20
165.0
 30
0.0
 11
30.0
 21
165.0
 31
0.0
  0
LINE
  5
BA
100
AcDbEntity
  8
0
 62
256
370
-1
 48
1.0
  6
BYLAYER
100
AcDbLine
 10
76.0
 20
39.0
 30
0.0
 11
76.0
 21
153.0
 31
0.0
  0
LINE
  5
BB
100
AcDbEntity
  8
0
 62
256
370
-1
 48
1.0
  6
BYLAYER
100
AcDbLine
 10
79.0
 20
156.0
 30
0.0
 11
82.0
 21
156.0
 31
0.0
  0
LINE
  5
BC
100
AcDbEntity
  8
0
 62
256
370
-1
 48
1.0
  6
BYLAYER
100
AcDbLine
 10
85.0
 20
153.0
 30
0.0
 11
85.0
 21
39.0
 31
0.0
  0
LINE
  5
BD
100
AcDbEntity
  8
0
 62
256
370
-1
 48
1.0
  6
BYLAYER
100
AcDbLine
 10
82.0
 20
36.0
 30
0.0
 11
79.0
 21
36.0
 31
0.0
  0
LINE
  5
BE
100
AcDbEntity
  8
0
 62
256
370
-1
 48
1.0
  6
BYLAYER
100
AcDbLine
 10
18.0
 20
192.0
 30
0.0
 11
0.0
 21
192.0
 31
0.0
  0
LINE
  5
BF
100
AcDbEntity
  8
0
 62
256
370
-1
 48
1.0
  6
BYLAYER
100
AcDbLine
 10
112.0
 20
192.0
 30
0.0
 11
94.0
 21
192.0
 31
0.0
  0
LINE
  5
C0
100
AcDbEntity
  8
0
 62
256
370
-1
 48
1.0
  6
BYLAYER
100
AcDbLine
 10
94.0
 20
192.0
 30
0.0
 11
18.0
 21
192.0
 31
0.0
  0
LINE
  5
C1
100
AcDbEntity
  8
0
 62
256
370
-1
 48
1.0
  6
BYLAYER
100
AcDbLine
 10
94.0
 20
21.0
 30
0.0
 11
94.0
 21
171.0
 31
0.0
  0
LINE
  5
C2
100
AcDbEntity
  8
0
 62
256
370
-1
 48
1.0
  6
BYLAYER
100
AcDbLine
 10
0.0
 20
192.0
 30
0.0
 11
0.0
 21
0.0
 31
0.0
  0
LINE
  5
C3
100
AcDbEntity
  8
0
 62
256
370
-1
 48
1.0
  6
BYLAYER
100
AcDbLine
 10
97.0
 20
174.0
 30
0.0
 11
100.0
 21
174.0
 31
0.0
  0
LINE
  5
C4
100
AcDbEntity
  8
0
 62
256
370
-1
 48
1.0
  6
BYLAYER
100
AcDbLine
 10
94.0
 20
0.0
 30
0.0
 11
112.0
 21
0.0
 31
0.0
  0
LINE
  5
C5
100
AcDbEntity
  8
0
 62
256
370
-1
 48
1.0
  6
BYLAYER
100
AcDbLine
 10
0.0
 20
0.0
 30
0.0
 11
18.0
 21
0.0
 31
0.0
  0
LINE
  5
C6
100
AcDbEntity
  8
0
 62
256
370
-1
 48
1.0
  6
BYLAYER
100
AcDbLine
 10
18.0
 20
0.0
 30
0.0
 11
94.0
 21
0.0
 31
0.0
  0
LINE
  5
C7
100
AcDbEntity
  8
0
 62
256
370
-1
 48
1.0
  6
BYLAYER
100
AcDbLine
 10
103.0
 20
171.0
 30
0.0
 11
103.0
 21
21.0
 31
0.0
  0
LINE
  5
C8
100
AcDbEntity
  8
0
 62
256
370
-1
 48
1.0
  6
BYLAYER
100
AcDbLine
 10
112.0
 20
0.0
 30
0.0
 11
112.0
 21
192.0
 31
0.0
  0
LINE
  5
C9
100
AcDbEntity
  8
0
 62
256
370
-1
 48
1.0
  6
BYLAYER
100
AcDbLine
 10
100.0
 20
18.0
 30
0.0
 11
97.0
 21
18.0
 31
0.0
  0
LINE
  5
CA
100
AcDbEntity
  8
0
 62
256
370
-1
 48
1.0
  6
BYLAYER
100
AcDbLine
 10
419.0
 20
190.0
 30
0.0
 11
289.0
 21
190.0
 31
0.0
  0
LINE
  5
CB
100
AcDbEntity
  8
0
 62
256
370
-1
 48
1.0
  6
BYLAYER
100
AcDbLine
 10
289.0
 20
190.0
 30
0.0
 11
289.0
 21
185.2343134832984504
 31
0.0
  0
LINE
  5
CC
100
AcDbEntity
  8
0
 62
256
370
-1
 48
1.0
  6
BYLAYER
100
AcDbLine
 10
289.0
 20
181.2656865167015496
 30
0.0
 11
289.0
 21
181.0
 31
0.0
  0
LINE
  5
CD
100
AcDbEntity
  8
0
 62
256
370
-1
 48
1.0
  6
BYLAYER
100
AcDbLine
 10
289.0
 20
181.0
 30
0.0
 11
289.0
 21
181.0
 31
0.0
  0
LINE
  5
CE
100
AcDbEntity
  8
0
 62
256
370
-1
 48
1.0
  6
BYLAYER
100
AcDbLine
 10
289.0
 20
181.0
 30
0.0
 11
288.7343134832984219
 21
181.0
 31
0.0
  0
LINE
  5
CF
100
AcDbEntity
  8
0
 62
256
370
-1
 48
1.0
  6
BYLAYER
100
AcDbLine
 10
284.7656865167015781
 20
181.0
 30
0.0
 11
280.0
 21
181.0
 31
0.0
  0
LINE
  5
D0
100
AcDbEntity
  8
0
 62
256
370
-1
 48
1.0
  6
BYLAYER
100
AcDbLine
 10
280.0
 20
181.0
 30
0.0
 11
280.0
 21
105.0
 31
0.0
  0
LINE
  5
D1
100
AcDbEntity
  8
0
 62
256
370
-1
 48
1.0
  6
BYLAYER
100
AcDbLine
 10
0.0
 20
229.0
 30
0.0
 11
9.0
 21
229.0
 31
0.0
  0
LINE
  5
D2
100
AcDbEntity
  8
0
 62
256
370
-1
 48
1.0
  6
BYLAYER
100
AcDbLine
 10
280.0
 20
105.0
 30
0.0
 11
284.7656865167015781
 21
105.0
 31
0.0
  0
LINE
  5
D3
100
AcDbEntity
  8
0
 62
256
370
-1
 48
1.0
  6
BYLAYER
100
AcDbLine
 10
288.7343134832984219
 20
105.0
 30
0.0
 11
289.0
 21
105.0
 31
0.0
  0
LINE
  5
D4
100
AcDbEntity
  8
0
 62
256
370
-1
 48
1.0
  6
BYLAYER
100
AcDbLine
 10
9.0
 20
229.0
 30
0.0
 11
9.0
 21
359.0
 31
0.0
  0
LINE
  5
D5
100
AcDbEntity
  8
0
 62
256
370
-1
 48
1.0
  6
BYLAYER
100
AcDbLine
 10
289.0
 20
105.0
 30
0.0
 11
289.0
 21
104.7343134832984362
 31
0.0
  0
LINE
  5
D6
100
AcDbEntity
  8
0
 62
256
370
-1
 48
1.0
  6
BYLAYER
100
AcDbLine
 10
289.0
 20
100.7656865167015638
 30
0.0
 11
289.0
 21
96.0
 31
0.0
  0
LINE
  5
D7
100
AcDbEntity
  8
0
 62
256
370
-1
 48
1.0
  6
BYLAYER
100
AcDbLine
 10
289.0
 20
96.0
 30
0.0
 11
419.0
 21
96.0
 31
0.0
  0
LINE
  5
D8
100
AcDbEntity
  8
0
 62
256
370
-1
 48
1.0
  6
BYLAYER
100
AcDbLine
 10
9.0
 20
359.0
 30
0.0
 11
0.0
 21
359.0
 31
0.0
  0
LINE
  5
D9
100
AcDbEntity
  8
0
 62
256
370
-1
 48
1.0
  6
BYLAYER
100
AcDbLine
 10
0.0
 20
359.0
 30
0.0
 11
0.0
 21
229.0
 31
0.0
  0
LINE
  5
DA
100
AcDbEntity
  8
0
 62
256
370
-1
 48
1.0
  6
BYLAYER
100
AcDbLine
 10
419.0
 20
96.0
 30
0.0
 11
419.0
 21
105.0
 31
0.0
  0
LINE
  5
DB
100
AcDbEntity
  8
0
 62
256
370
-1
 48
1.0
  6
BYLAYER
100
AcDbLine
 10
419.0
 20
105.0
 30
0.0
 11
419.0
 21
181.0
 31
0.0
  0
LINE
  5
DC
100
AcDbEntity
  8
0
 62
256
370
-1
 48
1.0
  6
BYLAYER
100
AcDbLine
 10
419.0
 20
181.0
 30
0.0
 11
419.0
 21
190.0
 31
0.0
  0
LINE
  5
DD
100
AcDbEntity
  8
0
 62
256
370
-1
 48
1.0
  6
BYLAYER
100
AcDbLine
 10
18.0
 20
220.0
 30
0.0
 11
174.0
 21
220.0
 31
0.0
  0
LINE
  5
DE
100
AcDbEntity
  8
0
 62
256
370
-1
 48
1.0
  6
BYLAYER
100
AcDbLine
 10
174.0
 20
229.0
 30
0.0
 11
174.0
 21
359.0
 31
0.0
  0
LINE
  5
DF
100
AcDbEntity
  8
0
 62
256
370
-1
 48
1.0
  6
BYLAYER
100
AcDbLine
 10
174.0
 20
220.0
 30
0.0
 11
174.0
 21
224.7656865167015496
 31
0.0
  0
LINE
  5
E0
100
AcDbEntity
  8
0
 62
256
370
-1
 48
1.0
  6
BYLAYER
100
AcDbLine
 10
174.0
 20
228.7343134832984504
 30
0.0
 11
174.0
 21
229.0
 31
0.0
  0
LINE
  5
E1
100
AcDbEntity
  8
0
 62
256
370
-1
 48
1.0
  6
BYLAYER
100
AcDbLine
 10
27.0
 20
359.0
 30
0.0
 11
18.0
 21
359.0
 31
0.0
  0
LINE
  5
E2
100
AcDbEntity
  8
0
 62
256
370
-1
 48
1.0
  6
BYLAYER
100
AcDbLine
 10
174.0
 20
359.0
 30
0.0
 11
165.0
 21
359.0
 31
0.0
  0
LINE
  5
E3
100
AcDbEntity
  8
0
 62
256
370
-1
 48
1.0
  6
BYLAYER
100
AcDbLine
 10
165.0
 20
359.0
 30
0.0
 11
27.0
 21
359.0
 31
0.0
  0
LINE
  5
E4
100
AcDbEntity
  8
0
 62
256
370
-1
 48
1.0
  6
BYLAYER
100
AcDbLine
 10
18.0
 20
359.0
 30
0.0
 11
18.0
 21
229.0
 31
0.0
  0
LINE
  5
E5
100
AcDbEntity
  8
0
 62
256
370
-1
 48
1.0
  6
BYLAYER
100
AcDbLine
 10
18.0
 20
229.0
 30
0.0
 11
18.0
 21
228.7343134832984504
 31
0.0
  0
LINE
  5
E6
100
AcDbEntity
  8
0
 62
256
370
-1
 48
1.0
  6
BYLAYER
100
AcDbLine
 10
18.0
 20
224.7656865167015496
 30
0.0
 11
18.0
 21
220.0
 31
0.0
  0
LINE
  5
E7
100
AcDbEntity
  8
0
 62
256
370
-1
 48
1.0
  6
BYLAYER
100
AcDbLine
 10
139.0
 20
105.0
 30
0.0
 11
269.0
 21
105.0
 31
0.0
  0
LINE
  5
E8
100
AcDbEntity
  8
0
 62
256
370
-1
 48
1.0
  6
BYLAYER
100
AcDbLine
 10
130.0
 20
105.0
 30
0.0
 11
134.7656865167015496
 21
105.0
 31
0.0
  0
LINE
  5
E9
100
AcDbEntity
  8
0
 62
256
370
-1
 48
1.0
  6
BYLAYER
100
AcDbLine
 10
138.7343134832984504
 20
105.0
 30
0.0
 11
139.0
 21
105.0
 31
0.0
  0
LINE
  5
EA
100
AcDbEntity
  8
0
 62
256
370
-1
 48
1.0
  6
BYLAYER
100
AcDbLine
 10
269.0
 20
105.0
 30
0.0
 11
269.0
 21
123.0
 31
0.0
  0
LINE
  5
EB
100
AcDbEntity
  8
0
 62
256
370
-1
 48
1.0
  6
BYLAYER
100
AcDbLine
 10
269.0
 20
123.0
 30
0.0
 11
247.0
 21
123.0
 31
0.0
  0
LINE
  5
EC
100
AcDbEntity
  8
0
 62
256
370
-1
 48
1.0
  6
BYLAYER
100
AcDbLine
 10
244.0
 20
126.0
 30
0.0
 11
244.0
 21
160.0
 31
0.0
  0
LINE
  5
ED
100
AcDbEntity
  8
0
 62
256
370
-1
 48
1.0
  6
BYLAYER
100
AcDbLine
 10
247.0
 20
163.0
 30
0.0
 11
269.0
 21
163.0
 31
0.0
  0
LINE
  5
EE
100
AcDbEntity
  8
0
 62
256
370
-1
 48
1.0
  6
BYLAYER
100
AcDbLine
 10
269.0
 20
163.0
 30
0.0
 11
269.0
 21
181.0
 31
0.0
  0
LINE
  5
EF
100
AcDbEntity
  8
0
 62
256
370
-1
 48
1.0
  6
BYLAYER
100
AcDbLine
 10
269.0
 20
181.0
 30
0.0
 11
269.0
 21
181.0
 31
0.0
  0
LINE
  5
F0
100
AcDbEntity
  8
0
 62
256
370
-1
 48
1.0
  6
BYLAYER
100
AcDbLine
 10
269.0
 20
181.0
 30
0.0
 11
139.0
 21
181.0
 31
0.0
  0
LINE
  5
F1
100
AcDbEntity
  8
0
 62
256
370
-1
 48
1.0
  6
BYLAYER
100
AcDbLine
 10
139.0
 20
181.0
 30
0.0
 11
138.7343134832984504
 21
181.0
 31
0.0
  0
LINE
  5
F2
100
AcDbEntity
  8
0
 62
256
370
-1
 48
1.0
  6
BYLAYER
100
AcDbLine
 10
134.7656865167015496
 20
181.0
 30
0.0
 11
130.0
 21
181.0
 31
0.0
  0
LINE
  5
F3
100
AcDbEntity
  8
0
 62
256
370
-1
 48
1.0
  6
BYLAYER
100
AcDbLine
 10
130.0
 20
181.0
 30
0.0
 11
130.0
 21
105.0
 31
0.0
  0
LINE
  5
F4
100
AcDbEntity
  8
0
 62
256
370
-1
 48
1.0
  6
BYLAYER
100
AcDbLine
 10
139.0
 20
13.0
 30
0.0
 11
269.0
 21
13.0
 31
0.0
  0
LINE
  5
F5
100
AcDbEntity
  8
0
 62
256
370
-1
 48
1.0
  6
BYLAYER
100
AcDbLine
 10
269.0
 20
13.0
 30
0.0
 11
269.0
 21
22.0
 31
0.0
  0
LINE
  5
F6
100
AcDbEntity
  8
0
 62
256
370
-1
 48
1.0
  6
BYLAYER
100
AcDbLine
 10
269.0
 20
22.0
 30
0.0
 11
238.0
 21
22.0
 31
0.0
  0
LINE
  5
F7
100
AcDbEntity
  8
0
 62
256
370
-1
 48
1.0
  6
BYLAYER
100
AcDbLine
 10
235.0
 20
25.0
 30
0.0
 11
235.0
 21
59.0
 31
0.0
  0
LINE
  5
F8
100
AcDbEntity
  8
0
 62
256
370
-1
 48
1.0
  6
BYLAYER
100
AcDbLine
 10
238.0
 20
62.0
 30
0.0
 11
269.0
 21
62.0
 31
0.0
  0
LINE
  5
F9
100
AcDbEntity
  8
0
 62
256
370
-1
 48
1.0
  6
BYLAYER
100
AcDbLine
 10
269.0
 20
62.0
 30
0.0
 11
269.0
 21
71.0
 31
0.0
  0
LINE
  5
FA
100
AcDbEntity
  8
0
 62
256
370
-1
 48
1.0
  6
BYLAYER
100
AcDbLine
 10
269.0
 20
71.0
 30
0.0
 11
139.0
 21
71.0
 31
0.0
  0
LINE
  5
FB
100
AcDbEntity
  8
0
 62
256
370
-1
 48
1.0
  6
BYLAYER
100
AcDbLine
 10
139.0
 20
71.0
 30
0.0
 11
139.0
 21
13.0
 31
0.0
  0
LINE
  5
FC
100
AcDbEntity
  8
0
 62
256
370
-1
 48
1.0
  6
BYLAYER
100
AcDbLine
 10
183.0
 20
229.0
 30
0.0
 11
192.0
 21
229.0
 31
0.0
  0
LINE
  5
FD
100
AcDbEntity
  8
0
 62
256
370
-1
 48
1.0
  6
BYLAYER
100
AcDbLine
 10
192.0
 20
229.0
 30
0.0
 11
192.0
 21
359.0
 31
0.0
  0
LINE
  5
FE
100
AcDbEntity
  8
0
 62
256
370
-1
 48
1.0
  6
BYLAYER
100
AcDbLine
 10
192.0
 20
359.0
 30
0.0
 11
183.0
 21
359.0
 31
0.0
  0
LINE
  5
FF
100
AcDbEntity
  8
0
 62
256
370
-1
 48
1.0
  6
BYLAYER
100
AcDbLine
 10
183.0
 20
359.0
 30
0.0
 11
183.0
 21
229.0
 31
0.0
  0
LINE
  5
100
100
AcDbEntity
  8
0
 62
256
370
-1
 48
1.0
  6
BYLAYER
100
AcDbLine
 10
269.0
 20
123.0
 30
0.0
 11
247.0
 21
123.0
 31
0.0
  0
LINE
  5
101
100
AcDbEntity
  8
0
 62
256
370
-1
 48
1.0
  6
BYLAYER
100
AcDbLine
 10
244.0
 20
126.0
 30
0.0
 11
244.0
 21
160.0
 31
0.0
  0
LINE
  5
102
100
AcDbEntity
  8
0
 62
256
370
-1
 48
1.0
  6
BYLAYER
100
AcDbLine
 10
247.0
 20
163.0
 30
0.0
 11
269.0
 21
163.0
 31
0.0
  0
LINE
  5
103
100
AcDbEntity
  8
0
 62
256
370
-1
 48
1.0
  6
BYLAYER
100
AcDbLine
 10
269.0
 20
163.0
 30
0.0
 11
269.0
 21
181.0
 31
0.0
  0
LINE
  5
104
100
AcDbEntity
  8
0
 62
256
370
-1
 48
1.0
  6
BYLAYER
100
AcDbLine
 10
269.0
 20
181.0
 30
0.0
 11
269.0
 21
190.0
 31
0.0
  0
LINE
  5
105
100
AcDbEntity
  8
0
 62
256
370
-1
 48
1.0
  6
BYLAYER
100
AcDbLine
 10
269.0
 20
190.0
 30
0.0
 11
139.0
 21
190.0
 31
0.0
  0
LINE
  5
106
100
AcDbEntity
  8
0
 62
256
370
-1
 48
1.0
  6
BYLAYER
100
AcDbLine
 10
139.0
 20
190.0
 30
0.0
 11
139.0
 21
185.2343134832984504
 31
0.0
  0
LINE
  5
107
100
AcDbEntity
  8
0
 62
256
370
-1
 48
1.0
  6
BYLAYER
100
AcDbLine
 10
139.0
 20
181.2656865167015496
 30
0.0
 11
139.0
 21
181.0
 31
0.0
  0
LINE
  5
108
100
AcDbEntity
  8
0
 62
256
370
-1
 48
1.0
  6
BYLAYER
100
AcDbLine
 10
139.0
 20
181.0
 30
0.0
 11
138.7343134832984504
 21
181.0
 31
0.0
  0
LINE
  5
109
100
AcDbEntity
  8
0
 62
256
370
-1
 48
1.0
  6
BYLAYER
100
AcDbLine
 10
134.7656865167015496
 20
181.0
 30
0.0
 11
130.0
 21
181.0
 31
0.0
  0
LINE
  5
10A
100
AcDbEntity
  8
0
 62
256
370
-1
 48
1.0
  6
BYLAYER
100
AcDbLine
 10
130.0
 20
181.0
 30
0.0
 11
130.0
 21
105.0
 31
0.0
  0
LINE
  5
10B
100
AcDbEntity
  8
0
 62
256
370
-1
 48
1.0
  6
BYLAYER
100
AcDbLine
 10
130.0
 20
105.0
 30
0.0
 11
134.7656865167015496
 21
105.0
 31
0.0
  0
LINE
  5
10C
100
AcDbEntity
  8
0
 62
256
370
-1
 48
1.0
  6
BYLAYER
100
AcDbLine
 10
138.7343134832984504
 20
105.0
 30
0.0
 11
139.0
 21
105.0
 31
0.0
  0
LINE
  5
10D
100
AcDbEntity
  8
0
 62
256
370
-1
 48
1.0
  6
BYLAYER
100
AcDbLine
 10
139.0
 20
105.0
 30
0.0
 11
139.0
 21
104.7343134832984362
 31
0.0
  0
LINE
  5
10E
100
AcDbEntity
  8
0
 62
256
370
-1
 48
1.0
  6
BYLAYER
100
AcDbLine
 10
139.0
 20
100.7656865167015638
 30
0.0
 11
139.0
 21
96.0
 31
0.0
  0
LINE
  5
10F
100
AcDbEntity
  8
0
 62
256
370
-1
 48
1.0
  6
BYLAYER
100
AcDbLine
 10
139.0
 20
96.0
 30
0.0
 11
269.0
 21
96.0
 31
0.0
  0
LINE
  5
110
100
AcDbEntity
  8
0
 62
256
370
-1
 48
1.0
  6
BYLAYER
100
AcDbLine
 10
269.0
 20
96.0
 30
0.0
 11
269.0
 21
105.0
 31
0.0
  0
LINE
  5
111
100
AcDbEntity
  8
0
 62
256
370
-1
 48
1.0
  6
BYLAYER
100
AcDbLine
 10
269.0
 20
105.0
 30
0.0
 11
269.0
 21
123.0
 31
0.0
  0
LINE
  5
112
100
AcDbEntity
  8
0
 62
256
370
-1
 48
1.0
  6
BYLAYER
100
AcDbLine
 10
419.0
 20
22.0
 30
0.0
 11
413.0
 21
22.0
 31
0.0
  0
LINE
  5
113
100
AcDbEntity
  8
0
 62
256
370
-1
 48
1.0
  6
BYLAYER
100
AcDbLine
 10
410.0
 20
25.0
 30
0.0
 11
410.0
 21
59.0
 31
0.0
  0
LINE
  5
114
100
AcDbEntity
  8
0
 62
256
370
-1
 48
1.0
  6
BYLAYER
100
AcDbLine
 10
413.0
 20
62.0
 30
0.0
 11
419.0
 21
62.0
 31
0.0
  0
LINE
  5
115
100
AcDbEntity
  8
0
 62
256
370
-1
 48
1.0
  6
BYLAYER
100
AcDbLine
 10
419.0
 20
62.0
 30
0.0
 11
419.0
 21
71.0
 31
0.0
  0
LINE
  5
116
100
AcDbEntity
  8
0
 62
256
370
-1
 48
1.0
  6
BYLAYER
100
AcDbLine
 10
419.0
 20
71.0
 30
0.0
 11
419.0
 21
80.0
 31
0.0
  0
LINE
  5
117
100
AcDbEntity
  8
0
 62
256
370
-1
 48
1.0
  6
BYLAYER
100
AcDbLine
 10
419.0
 20
80.0
 30
0.0
 11
289.0
 21
80.0
 31
0.0
  0
LINE
  5
118
100
AcDbEntity
  8
0
 62
256
370
-1
 48
1.0
  6
BYLAYER
100
AcDbLine
 10
289.0
 20
80.0
 30
0.0
 11
289.0
 21
75.2343134832984362
 31
0.0
  0
LINE
  5
119
100
AcDbEntity
  8
0
 62
256
370
-1
 48
1.0
  6
BYLAYER
100
AcDbLine
 10
289.0
 20
71.2656865167015496
 30
0.0
 11
289.0
 21
71.0
 31
0.0
  0
LINE
  5
11A
100
AcDbEntity
  8
0
 62
256
370
-1
 48
1.0
  6
BYLAYER
100
AcDbLine
 10
289.0
 20
71.0
 30
0.0
 11
288.7343134832984219
 21
71.0
 31
0.0
  0
LINE
  5
11B
100
AcDbEntity
  8
0
 62
256
370
-1
 48
1.0
  6
BYLAYER
100
AcDbLine
 10
284.7656865167015781
 20
71.0
 30
0.0
 11
280.0
 21
71.0
 31
0.0
  0
LINE
  5
11C
100
AcDbEntity
  8
0
 62
256
370
-1
 48
1.0
  6
BYLAYER
100
AcDbLine
 10
280.0
 20
71.0
 30
0.0
 11
280.0
 21
13.0
 31
0.0
  0
LINE
  5
11D
100
AcDbEntity
  8
0
 62
256
370
-1
 48
1.0
  6
BYLAYER
100
AcDbLine
 10
280.0
 20
13.0
 30
0.0
 11
284.7656865167015781
 21
13.0
 31
0.0
  0
LINE
  5
11E
100
AcDbEntity
  8
0
 62
256
370
-1
 48
1.0
  6
BYLAYER
100
AcDbLine
 10
288.7343134832984219
 20
13.0
 30
0.0
 11
289.0
 21
13.0
 31
0.0
  0
LINE
  5
11F
100
AcDbEntity
  8
0
 62
256
370
-1
 48
1.0
  6
BYLAYER
100
AcDbLine
 10
289.0
 20
13.0
 30
0.0
 11
289.0
 21
12.7343134832984433
 31
0.0
  0
LINE
  5
120
100
AcDbEntity
  8
0
 62
256
370
-1
 48
1.0
  6
BYLAYER
100
AcDbLine
 10
289.0
 20
8.7656865167015567
 30
0.0
 11
289.0
 21
4.0
 31
0.0
  0
LINE
  5
121
100
AcDbEntity
  8
0
 62
256
370
-1
 48
1.0
  6
BYLAYER
100
AcDbLine
 10
289.0
 20
4.0
 30
0.0
 11
419.0
 21
4.0
 31
0.0
  0
LINE
  5
122
100
AcDbEntity
  8
0
 62
256
370
-1
 48
1.0
  6
BYLAYER
100
AcDbLine
 10
419.0
 20
4.0
 30
0.0
 11
419.0
 21
13.0
 31
0.0
  0
LINE
  5
123
100
AcDbEntity
  8
0
 62
256
370
-1
 48
1.0
  6
BYLAYER
100
AcDbLine
 10
419.0
 20
13.0
 30
0.0
 11
419.0
 21
22.0
 31
0.0
  0
LINE
  5
124
100
AcDbEntity
  8
0
 62
256
370
-1
 48
1.0
  6
BYLAYER
100
AcDbLine
 10
239.0
 20
220.0
 30
0.0
 11
359.0
 21
220.0
 31
0.0
  0
LINE
  5
125
100
AcDbEntity
  8
0
 62
256
370
-1
 48
1.0
  6
BYLAYER
100
AcDbLine
 10
359.0
 20
229.0
 30
0.0
 11
359.0
 21
359.0
 31
0.0
  0
LINE
  5
126
100
AcDbEntity
  8
0
 62
256
370
-1
 48
1.0
  6
BYLAYER
100
AcDbLine
 10
359.0
 20
220.0
 30
0.0
 11
359.0
 21
224.7656865167015496
 31
0.0
  0
LINE
  5
127
100
AcDbEntity
  8
0
 62
256
370
-1
 48
1.0
  6
BYLAYER
100
AcDbLine
 10
359.0
 20
228.7343134832984504
 30
0.0
 11
359.0
 21
229.0
 31
0.0
  0
LINE
  5
128
100
AcDbEntity
  8
0
 62
256
370
-1
 48
1.0
  6
BYLAYER
100
AcDbLine
 10
359.0
 20
359.0
 30
0.0
 11
350.0
 21
359.0
 31
0.0
  0
LINE
  5
129
100
AcDbEntity
  8
0
 62
256
370
-1
 48
1.0
  6
BYLAYER
100
AcDbLine
 10
350.0
 20
359.0
 30
0.0
 11
350.0
 21
327.0
 31
0.0
  0
LINE
  5
12A
100
AcDbEntity
  8
0
 62
256
370
-1
 48
1.0
  6
BYLAYER
100
AcDbLine
 10
342.0
 20
327.0
 30
0.0
 11
342.0
 21
359.0
 31
0.0
  0
LINE
  5
12B
100
AcDbEntity
  8
0
 62
256
370
-1
 48
1.0
  6
BYLAYER
100
AcDbLine
 10
342.0
 20
359.0
 30
0.0
 11
320.6999999999999886
 21
359.0
 31
0.0
  0
LINE
  5
12C
100
AcDbEntity
  8
0
 62
256
370
-1
 48
1.0
  6
BYLAYER
100
AcDbLine
 10
320.6999999999999886
 20
359.0
 30
0.0
 11
320.6999999999999886
 21
327.0
 31
0.0
  0
LINE
  5
12D
100
AcDbEntity
  8
0
 62
256
370
-1
 48
1.0
  6
BYLAYER
100
AcDbLine
 10
312.6999999999999886
 20
327.0
 30
0.0
 11
312.6999999999999886
 21
359.0
 31
0.0
  0
LINE
  5
12E
100
AcDbEntity
  8
0
 62
256
370
-1
 48
1.0
  6
BYLAYER
100
AcDbLine
 10
312.6999999999999886
 20
359.0
 30
0.0
 11
285.3000000000000114
 21
359.0
 31
0.0
  0
LINE
  5
12F
100
AcDbEntity
  8
0
 62
256
370
-1
 48
1.0
  6
BYLAYER
100
AcDbLine
 10
285.3000000000000114
 20
359.0
 30
0.0
 11
285.3000000000000114
 21
327.0
 31
0.0
  0
LINE
  5
130
100
AcDbEntity
  8
0
 62
256
370
-1
 48
1.0
  6
BYLAYER
100
AcDbLine
 10
277.3000000000000114
 20
327.0
 30
0.0
 11
277.3000000000000114
 21
359.0
 31
0.0
  0
LINE
  5
131
100
AcDbEntity
  8
0
 62
256
370
-1
 48
1.0
  6
BYLAYER
100
AcDbLine
 10
277.3000000000000114
 20
359.0
 30
0.0
 11
256.0
 21
359.0
 31
0.0
  0
LINE
  5
132
100
AcDbEntity
  8
0
 62
256
370
-1
 48
1.0
  6
BYLAYER
100
AcDbLine
 10
256.0
 20
359.0
 30
0.0
 11
256.0
 21
327.0
 31
0.0
  0
LINE
  5
133
100
AcDbEntity
  8
0
 62
256
370
-1
 48
1.0
  6
BYLAYER
100
AcDbLine
 10
248.0
 20
327.0
 30
0.0
 11
248.0
 21
359.0
 31
0.0
  0
LINE
  5
134
100
AcDbEntity
  8
0
 62
256
370
-1
 48
1.0
  6
BYLAYER
100
AcDbLine
 10
248.0
 20
359.0
 30
0.0
 11
239.0
 21
359.0
 31
0.0
  0
LINE
  5
135
100
AcDbEntity
  8
0
 62
256
370
-1
 48
1.0
  6
BYLAYER
100
AcDbLine
 10
239.0
 20
359.0
 30
0.0
 11
239.0
 21
229.0
 31
0.0
  0
LINE
  5
136
100
AcDbEntity
  8
0
 62
256
370
-1
 48
1.0
  6
BYLAYER
100
AcDbLine
 10
239.0
 20
229.0
 30
0.0
 11
239.0
 21
228.7343134832984504
 31
0.0
  0
LINE
  5
137
100
AcDbEntity
  8
0
 62
256
370
-1
 48
1.0
  6
BYLAYER
100
AcDbLine
 10
239.0
 20
224.7656865167015496
 30
0.0
 11
239.0
 21
220.0
 31
0.0
  0
LINE
  5
138
100
AcDbEntity
  8
0
 62
256
370
-1
 48
1.0
  6
BYLAYER
100
AcDbLine
 10
289.0
 20
105.0
 30
0.0
 11
419.0
 21
105.0
 31
0.0
  0
LINE
  5
139
100
AcDbEntity
  8
0
 62
256
370
-1
 48
1.0
  6
BYLAYER
100
AcDbLine
 10
280.0
 20
105.0
 30
0.0
 11
284.7656865167015781
 21
105.0
 31
0.0
  0
LINE
  5
13A
100
AcDbEntity
  8
0
 62
256
370
-1
 48
1.0
  6
BYLAYER
100
AcDbLine
 10
288.7343134832984219
 20
105.0
 30
0.0
 11
289.0
 21
105.0
 31
0.0
  0
LINE
  5
13B
100
AcDbEntity
  8
0
 62
256
370
-1
 48
1.0
  6
BYLAYER
100
AcDbLine
 10
419.0
 20
105.0
 30
0.0
 11
419.0
 21
181.0
 31
0.0
  0
LINE
  5
13C
100
AcDbEntity
  8
0
 62
256
370
-1
 48
1.0
  6
BYLAYER
100
AcDbLine
 10
419.0
 20
181.0
 30
0.0
 11
289.0
 21
181.0
 31
0.0
  0
LINE
  5
13D
100
AcDbEntity
  8
0
 62
256
370
-1
 48
1.0
  6
BYLAYER
100
AcDbLine
 10
289.0
 20
181.0
 30
0.0
 11
288.7343134832984219
 21
181.0
 31
0.0
  0
LINE
  5
13E
100
AcDbEntity
  8
0
 62
256
370
-1
 48
1.0
  6
BYLAYER
100
AcDbLine
 10
284.7656865167015781
 20
181.0
 30
0.0
 11
280.0
 21
181.0
 31
0.0
  0
LINE
  5
13F
100
AcDbEntity
  8
0
 62
256
370
-1
 48
1.0
  6
BYLAYER
100
AcDbLine
 10
280.0
 20
181.0
 30
0.0
 11
280.0
 21
105.0
 31
0.0
  0
LINE
  5
140
100
AcDbEntity
  8
0
 62
256
370
-1
 48
1.0
  6
BYLAYER
100
AcDbLine
 10
269.0
 20
22.0
 30
0.0
 11
238.0
 21
22.0
 31
0.0
  0
LINE
  5
141
100
AcDbEntity
  8
0
 62
256
370
-1
 48
1.0
  6
BYLAYER
100
AcDbLine
 10
235.0
 20
25.0
 30
0.0
 11
235.0
 21
59.0
 31
0.0
  0
LINE
  5
142
100
AcDbEntity
  8
0
 62
256
370
-1
 48
1.0
  6
BYLAYER
100
AcDbLine
 10
238.0
 20
62.0
 30
0.0
 11
269.0
 21
62.0
 31
0.0
  0
LINE
  5
143
100
AcDbEntity
  8
0
 62
256
370
-1
 48
1.0
  6
BYLAYER
100
AcDbLine
 10
269.0
 20
62.0
 30
0.0
 11
269.0
 21
71.0
 31
0.0
  0
LINE
  5
144
100
AcDbEntity
  8
0
 62
256
370
-1
 48
1.0
  6
BYLAYER
100
AcDbLine
 10
269.0
 20
71.0
 30
0.0
 11
269.0
 21
80.0
 31
0.0
  0
LINE
  5
145
100
AcDbEntity
  8
0
 62
256
370
-1
 48
1.0
  6
BYLAYER
100
AcDbLine
 10
269.0
 20
80.0
 30
0.0
 11
139.0
 21
80.0
 31
0.0
  0
LINE
  5
146
100
AcDbEntity
  8
0
 62
256
370
-1
 48
1.0
  6
BYLAYER
100
AcDbLine
 10
139.0
 20
80.0
 30
0.0
 11
139.0
 21
75.2343134832984362
 31
0.0
  0
LINE
  5
147
100
AcDbEntity
  8
0
 62
256
370
-1
 48
1.0
  6
BYLAYER
100
AcDbLine
 10
139.0
 20
71.2656865167015496
 30
0.0
 11
139.0
 21
71.0
 31
0.0
  0
LINE
  5
148
100
AcDbEntity
  8
0
 62
256
370
-1
 48
1.0
  6
BYLAYER
100
AcDbLine
 10
139.0
 20
71.0
 30
0.0
 11
138.7343134832984504
 21
71.0
 31
0.0
  0
LINE
  5
149
100
AcDbEntity
  8
0
 62
256
370
-1
 48
1.0
  6
BYLAYER
100
AcDbLine
 10
134.7656865167015496
 20
71.0
 30
0.0
 11
130.0
 21
71.0
 31
0.0
  0
LINE
  5
14A
100
AcDbEntity
  8
0
 62
256
370
-1
 48
1.0
  6
BYLAYER
100
AcDbLine
 10
130.0
 20
71.0
 30
0.0
 11
130.0
 21
13.0
 31
0.0
  0
LINE
  5
14B
100
AcDbEntity
  8
0
 62
256
370
-1
 48
1.0
  6
BYLAYER
100
AcDbLine
 10
130.0
 20
13.0
 30
0.0
 11
134.7656865167015496
 21
13.0
 31
0.0
  0
LINE
  5
14C
100
AcDbEntity
  8
0
 62
256
370
-1
 48
1.0
  6
BYLAYER
100
AcDbLine
 10
138.7343134832984504
 20
13.0
 30
0.0
 11
139.0
 21
13.0
 31
0.0
  0
LINE
  5
14D
100
AcDbEntity
  8
0
 62
256
370
-1
 48
1.0
  6
BYLAYER
100
AcDbLine
 10
139.0
 20
13.0
 30
0.0
 11
139.0
 21
12.7343134832984433
 31
0.0
  0
LINE
  5
14E
100
AcDbEntity
  8
0
 62
256
370
-1
 48
1.0
  6
BYLAYER
100
AcDbLine
 10
139.0
 20
8.7656865167015567
 30
0.0
 11
139.0
 21
4.0
 31
0.0
  0
LINE
  5
14F
100
AcDbEntity
  8
0
 62
256
370
-1
 48
1.0
  6
BYLAYER
100
AcDbLine
 10
139.0
 20
4.0
 30
0.0
 11
269.0
 21
4.0
 31
0.0
  0
LINE
  5
150
100
AcDbEntity
  8
0
 62
256
370
-1
 48
1.0
  6
BYLAYER
100
AcDbLine
 10
269.0
 20
4.0
 30
0.0
 11
269.0
 21
13.0
 31
0.0
  0
LINE
  5
151
100
AcDbEntity
  8
0
 62
256
370
-1
 48
1.0
  6
BYLAYER
100
AcDbLine
 10
269.0
 20
13.0
 30
0.0
 11
269.0
 21
22.0
 31
0.0
  0
LINE
  5
152
100
AcDbEntity
  8
0
 62
256
370
-1
 48
1.0
  6
BYLAYER
100
AcDbLine
 10
289.0
 20
13.0
 30
0.0
 11
419.0
 21
13.0
 31
0.0
  0
LINE
  5
153
100
AcDbEntity
  8
0
 62
256
370
-1
 48
1.0
  6
BYLAYER
100
AcDbLine
 10
419.0
 20
13.0
 30
0.0
 11
419.0
 21
22.0
 31
0.0
  0
LINE
  5
154
100
AcDbEntity
  8
0
 62
256
370
-1
 48
1.0
  6
BYLAYER
100
AcDbLine
 10
419.0
 20
22.0
 30
0.0
 11
413.0
 21
22.0
 31
0.0
  0
LINE
  5
155
100
AcDbEntity
  8
0
 62
256
370
-1
 48
1.0
  6
BYLAYER
100
AcDbLine
 10
410.0
 20
25.0
 30
0.0
 11
410.0
 21
59.0
 31
0.0
  0
LINE
  5
156
100
AcDbEntity
  8
0
 62
256
370
-1
 48
1.0
  6
BYLAYER
100
AcDbLine
 10
413.0
 20
62.0
 30
0.0
 11
419.0
 21
62.0
 31
0.0
  0
LINE
  5
157
100
AcDbEntity
  8
0
 62
256
370
-1
 48
1.0
  6
BYLAYER
100
AcDbLine
 10
419.0
 20
62.0
 30
0.0
 11
419.0
 21
71.0
 31
0.0
  0
LINE
  5
158
100
AcDbEntity
  8
0
 62
256
370
-1
 48
1.0
  6
BYLAYER
100
AcDbLine
 10
419.0
 20
71.0
 30
0.0
 11
289.0
 21
71.0
 31
0.0
  0
LINE
  5
159
100
AcDbEntity
  8
0
 62
256
370
-1
 48
1.0
  6
BYLAYER
100
AcDbLine
 10
289.0
 20
71.0
 30
0.0
 11
289.0
 21
13.0
 31
0.0
  0
CIRCLE
  5
15A
100
AcDbEntity
  8
0
 62
256
370
-1
 48
1.0
  6
BYLAYER
100
AcDbCircle
 10
158.0309341012371362
 20
41.9395302670054448
 30
0.0
 40
8.0
  0
CIRCLE
  5
15B
100
AcDbEntity
  8
0
 62
256
370
-1
 48
1.0
  6
BYLAYER
100
AcDbCircle
 10
319.999804824367061
 20
42.0001951756483223
 30
0.0
 40
8.0
  0
CIRCLE
  5
15C
100
AcDbEntity
  8
0
 62
256
370
-1
 48
1.0
  6
BYLAYER
100
AcDbCircle
 10
344.9997944805310226
 20
42.0000718653590894
 30
0.0
 40
8.0
  0
CIRCLE
  5
15D
100
AcDbEntity
  8
0
 62
256
370
-1
 48
1.0
  6
BYLAYER
100
AcDbCircle
 10
370.0001981463829566
 20
42.000176419341976
 30
0.0
 40
8.0
  0
CIRCLE
  5
15E
100
AcDbEntity
  8
0
 62
256
370
-1
 48
1.0
  6
BYLAYER
100
AcDbCircle
 10
395.0000000000001137
 20
42.0003369710946046
 30
0.0
 40
8.0
  0
CIRCLE
  5
15F
100
AcDbEntity
  8
0
 62
256
370
-1
 48
1.0
  6
BYLAYER
100
AcDbCircle
 10
394.9999894025367553
 20
143.0000105974632731
 30
0.0
 40
5.0
  0
CIRCLE
  5
160
100
AcDbEntity
  8
0
 62
256
370
-1
 48
1.0
  6
BYLAYER
100
AcDbCircle
 10
369.999989402536869
 20
143.0000105974633016
 30
0.0
 40
5.0
  0
CIRCLE
  5
161
100
AcDbEntity
  8
0
 62
256
370
-1
 48
1.0
  6
BYLAYER
100
AcDbCircle
 10
344.9999894025367553
 20
143.0000105974632731
 30
0.0
 40
5.0
  0
CIRCLE
  5
162
100
AcDbEntity
  8
0
 62
256
370
-1
 48
1.0
  6
BYLAYER
100
AcDbCircle
 10
320.0001693873066415
 20
143.0001023015059332
 30
0.0
 40
5.0
  0
LINE
  5
163
100
AcDbEntity
  8
0
 62
256
370
-1
 48
1.0
  6
BYLAYER
100
AcDbLine
 10
165.0
 20
229.0
 30
0.0
 11
174.0
 21
229.0
 31
0.0
  0
LINE
  5
164
100
AcDbEntity
  8
0
 62
256
370
-1
 48
1.0
  6
BYLAYER
100
AcDbLine
 10
18.0
 20
229.0
 30
0.0
 11
27.0
 21
229.0
 31
0.0
  0
LINE
  5
165
100
AcDbEntity
  8
0
 62
256
370
-1
 48
1.0
  6
BYLAYER
100
AcDbLine
 10
27.0
 20
229.0
 30
0.0
 11
165.0
 21
229.0
 31
0.0
  0
LINE
  5
166
100
AcDbEntity
  8
0
 62
256
370
-1
 48
1.0
  6
BYLAYER
100
AcDbLine
 10
239.0
 20
229.0
 30
0.0
 11
359.0
 21
229.0
 31
0.0
  0
LINE
  5
167
100
AcDbEntity
  8
0
 62
256
370
-1
 48
1.0
  6
BYLAYER
100
AcDbLine
 10
139.0
 20
181.0
 30
0.0
 11
139.0
 21
105.0
 31
0.0
  0
LINE
  5
168
100
AcDbEntity
  8
0
 62
256
370
-1
 48
1.0
  6
BYLAYER
100
AcDbLine
 10
289.0
 20
181.0
 30
0.0
 11
289.0
 21
105.0
 31
0.0
  0
HATCH
  5
169
100
AcDbEntity
  8
0
 62
2
420
16776960
370
-1
 48
1.0
  6
BYLAYER
100
AcDbHatch
 10
0.0
 20
0.0
 30
0.0
210
0.0
220
0.0
230
1.0
  2
SOLID
 70
1
 71
0
 91
1
 92
1
 93
4
 72
1
 10
0.0
 20
359.0
 11
0.0
 21
229.0
 72
1
 10
0.0
 20
229.0
 11
9.0
 21
229.0
 72
1
 10
9.0
 20
229.0
 11
9.0
 21
359.0
 72
1
 10
9.0
 20
359.0
 11
0.0
 21
359.0
 97
0
 75
0
 76
1
 98
0
1001
ACAD
1010
0.0
1020
0.0
1030
0
  0
HATCH
  5
16A
100
AcDbEntity
  8
0
 62
2
420
16776960
370
-1
 48
1.0
  6
BYLAYER
100
AcDbHatch
 10
0.0
 20
0.0
 30
0.0
210
0.0
220
0.0
230
1.0
  2
SOLID
 70
1
 71
0
 91
1
 92
1
 93
4
 72
1
 10
27.0
 20
229.0
 11
165.0
 21
229.0
 72
1
 10
165.0
 20
229.0
 11
165.0
 21
359.0
 72
1
 10
165.0
 20
359.0
 11
27.0
 21
359.0
 72
1
 10
27.0
 20
359.0
 11
27.0
 21
229.0
 97
0
 75
0
 76
1
 98
0
1001
ACAD
1010
0.0
1020
0.0
1030
0
  0
HATCH
  5
16B
100
AcDbEntity
  8
0
 62
2
420
16776960
370
-1
 48
1.0
  6
BYLAYER
100
AcDbHatch
 10
0.0
 20
0.0
 30
0.0
210
0.0
220
0.0
230
1.0
  2
SOLID
 70
1
 71
0
 91
1
 92
1
 93
4
 72
1
 10
192.0
 20
229.0
 11
192.0
 21
359.0
 72
1
 10
192.0
 20
359.0
 11
183.0
 21
359.0
 72
1
 10
183.0
 20
359.0
 11
183.0
 21
229.0
 72
1
 10
183.0
 20
229.0
 11
192.0
 21
229.0
 97
0
 75
0
 76
1
 98
0
1001
ACAD
1010
0.0
1020
0.0
1030
0
  0
HATCH
  5
16C
100
AcDbEntity
  8
0
 62
2
420
16776960
370
-1
 48
1.0
  6
BYLAYER
100
AcDbHatch
 10
0.0
 20
0.0
 30
0.0
210
0.0
220
0.0
230
1.0
  2
SOLID
 70
1
 71
0
 91
1
 92
1
 93
20
 72
1
 10
248.0
 20
359.0
 11
239.0
 21
359.0
 72
1
 10
239.0
 20
359.0
 11
239.0
 21
229.0
 72
1
 10
239.0
 20
229.0
 11
359.0
 21
229.0
 72
1
 10
359.0
 20
229.0
 11
359.0
 21
359.0
 72
1
 10
359.0
 20
359.0
 11
350.0
 21
359.0
 72
1
 10
350.0
 20
359.0
 11
350.0
 21
327.0
 72
2
 10
345.9999999999998863
 20
327.0002701307640791
 40
4.0
 50
360.0
 51
180.0
 73
0
 72
1
 10
342.0
 20
327.0
 11
342.0
 21
359.0
 72
1
 10
342.0
 20
359.0
 11
320.6999999999999886
 21
359.0
 72
1
 10
320.6999999999999886
 20
359.0
 11
320.6999999999999886
 21
327.0
 72
2
 10
316.6999999999999318
 20
327.0002701307640791
 40
4.0
 50
360.0
 51
180.0
 73
0
 72
1
 10
312.6999999999999886
 20
327.0
 11
312.6999999999999886
 21
359.0
 72
1
 10
312.6999999999999886
 20
359.0
 11
285.3000000000000114
 21
359.0
 72
1
 10
285.3000000000000114
 20
359.0
 11
285.3000000000000114
 21
327.0
 72
2
 10
281.2999999999998977
 20
327.0002701307637381
 40
4.0
 50
360.0
 51
180.0
 73
0
 72
1
 10
277.3000000000000114
 20
327.0
 11
277.3000000000000114
 21
359.0
 72
1
 10
277.3000000000000114
 20
359.0
 11
256.0
 21
359.0
 72
1
 10
256.0
 20
359.0
 11
256.0
 21
327.0
 72
2
 10
251.9999999999998863
 20
327.0002701307641928
 40
4.0
 50
360.0
 51
180.0
 73
0
 72
1
 10
248.0
 20
327.0
 11
248.0
 21
359.0
 97
0
 75
0
 76
1
 98
0
1001
ACAD
1010
0.0
1020
0.0
1030
0
  0
HATCH
  5
16D
100
AcDbEntity
  8
0
 62
2
420
16776960
370
-1
 48
1.0
  6
BYLAYER
100
AcDbHatch
 10
0.0
 20
0.0
 30
0.0
210
0.0
220
0.0
230
1.0
  2
SOLID
 70
1
 71
0
 91
5
 92
1
 93
4
 72
1
 10
289.0
 20
105.0
 11
419.0
 21
105.0
 72
1
 10
419.0
 20
105.0
 11
419.0
 21
181.0
 72
1
 10
419.0
 20
181.0
 11
289.0
 21
181.0
 72
1
 10
289.0
 20
181.0
 11
289.0
 21
105.0
 97
0
 92
1
 93
1
 72
2
 10
320.0001693873066415
 20
143.0001023015059332
 40
5.0
 50
0.0
 51
360.0
 73
1
 97
0
 92
1
 93
1
 72
2
 10
369.999989402536869
 20
143.0000105974633016
 40
5.0
 50
0.0
 51
360.0
 73
1
 97
0
 92
1
 93
1
 72
2
 10
344.9999894025367553
 20
143.0000105974632731
 40
5.0
 50
0.0
 51
360.0
 73
1
 97
0
 92
1
 93
1
 72
2
 10
394.9999894025367553
 20
143.0000105974632731
 40
5.0
 50
0.0
 51
360.0
 73
1
 97
0
 75
0
 76
1
 98
0
1001
ACAD
1010
0.0
1020
0.0
1030
0
  0
HATCH
  5
16E
100
AcDbEntity
  8
0
 62
2
420
16776960
370
-1
 48
1.0
  6
BYLAYER
100
AcDbHatch
 10
0.0
 20
0.0
 30
0.0
210
0.0
220
0.0
230
1.0
  2
SOLID
 70
1
 71
0
 91
5
 92
1
 93
8
 72
1
 10
419.0
 20
71.0
 11
289.0
 21
71.0
 72
1
 10
289.0
 20
71.0
 11
289.0
 21
13.0
 72
1
 10
289.0
 20
13.0
 11
419.0
 21
13.0
 72
1
 10
419.0
 20
13.0
 11
419.0
 21
22.0
 72
1
 10
419.0
 20
22.0
 11
410.0
 21
22.0
 72
1
 10
410.0
 20
22.0
 11
410.0
 21
62.0
 72
1
 10
410.0
 20
62.0
 11
419.0
 21
62.0
 72
1
 10
419.0
 20
62.0
 11
419.0
 21
71.0
 97
0
 92
1
 93
1
 72
2
 10
395.0000000000001137
 20
42.0003369710946046
 40
8.0
 50
0.0
 51
360.0
 73
1
 97
0
 92
1
 93
1
 72
2
 10
344.9997944805310226
 20
42.0000718653590894
 40
8.0
 50
0.0
 51
360.0
 73
1
 97
0
 92
1
 93
1
 72
2
 10
370.0001981463829566
 20
42.000176419341976
 40
8.0
 50
0.0
 51
360.0
 73
1
 97
0
 92
1
 93
1
 72
2
 10
319.999804824367061
 20
42.0001951756483223
 40
8.0
 50
0.0
 51
360.0
 73
1
 97
0
 75
0
 76
1
 98
0
1001
ACAD
1010
0.0
1020
0.0
1030
0
  0
HATCH
  5
16F
100
AcDbEntity
  8
0
 62
2
420
16776960
370
-1
 48
1.0
  6
BYLAYER
100
AcDbHatch
 10
0.0
 20
0.0
 30
0.0
210
0.0
220
0.0
230
1.0
  2
SOLID
 70
1
 71
0
 91
2
 92
1
 93
8
 72
1
 10
139.0
 20
71.0
 11
139.0
 21
13.0
 72
1
 10
139.0
 20
13.0
 11
269.0
 21
13.0
 72
1
 10
269.0
 20
13.0
 11
269.0
 21
22.0
 72
1
 10
269.0
 20
22.0
 11
235.0
 21
22.0
 72
1
 10
235.0
 20
22.0
 11
235.0
 21
62.0
 72
1
 10
235.0
 20
62.0
 11
269.0
 21
62.0
 72
1
 10
269.0
 20
62.0
 11
269.0
 21
71.0
 72
1
 10
269.0
 20
71.0
 11
139.0
 21
71.0
 97
0
 92
1
 93
1
 72
2
 10
158.0309341012371362
 20
41.9395302670054448
 40
7.9692953193763376
 50
0.0
 51
360.0
 73
1
 97
0
 75
0
 76
1
 98
0
1001
ACAD
1010
0.0
1020
0.0
1030
0
  0
HATCH
  5
170
100
AcDbEntity
  8
0
 62
2
420
16776960
370
-1
 48
1.0
  6
BYLAYER
100
AcDbHatch
 10
0.0
 20
0.0
 30
0.0
210
0.0
220
0.0
230
1.0
  2
SOLID
 70
1
 71
0
 91
2
 92
1
 93
1
 72
2
 10
158.0001023015059616
 20
142.9998306126932164
 40
5.0
 50
0.0
 51
360.0
 73
1
 97
0
 92
1
 93
8
 72
1
 10
139.0
 20
105.0
 11
269.0
 21
105.0
 72
1
 10
269.0
 20
105.0
 11
269.0
 21
123.0
 72
1
 10
269.0
 20
123.0
 11
244.0
 21
123.0
 72
1
 10
244.0
 20
123.0
 11
244.0
 21
163.0
 72
1
 10
244.0
 20
163.0
 11
269.0
 21
163.0
 72
1
 10
269.0
 20
163.0
 11
269.0
 21
181.0
 72
1
 10
269.0
 20
181.0
 11
139.0
 21
181.0
 72
1
 10
139.0
 20
181.0
 11
139.0
 21
105.0
 97
0
 75
0
 76
1
 98
0
1001
ACAD
1010
0.0
1020
0.0
1030
0
  0
HATCH
  5
171
100
AcDbEntity
  8
0
 62
6
420
16711935
370
-1
 48
1.0
  6
BYLAYER
100
AcDbHatch
 10
0.0
 20
0.0
 30
0.0
210
0.0
220
0.0
230
1.0
  2
SOLID
 70
1
 71
0
 91
1
 92
1
 93
1
 72
2
 10
158.0001023015059616
 20
142.9998306126932164
 40
5.0
 50
0.0
 51
360.0
 73
1
 97
0
 75
0
 76
1
 98
0
1001
ACAD
1010
0.0
1020
0.0
1030
0
  0
HATCH
  5
172
100
AcDbEntity
  8
0
 62
214
420
8388736
370
-1
 48
1.0
  6
BYLAYER
100
AcDbHatch
 10
0.0
 20
0.0
 30
0.0
210
0.0
220
0.0
230
1.0
  2
SOLID
 70
1
 71
0
 91
1
 92
1
 93
1
 72
2
 10
158.0309341012371362
 20
41.9395302670054448
 40
7.9692953193763376
 50
0.0
 51
360.0
 73
1
 97
0
 75
0
 76
1
 98
0
1001
ACAD
1010
0.0
1020
0.0
1030
0
  0
HATCH
  5
173
100
AcDbEntity
  8
0
 62
6
420
16711935
370
-1
 48
1.0
  6
BYLAYER
100
AcDbHatch
 10
0.0
 20
0.0
 30
0.0
210
0.0
220
0.0
230
1.0
  2
SOLID
 70
1
 71
0
 91
1
 92
1
 93
1
 72
2
 10
320.0001693873066415
 20
143.0001023015059332
 40
5.0
 50
0.0
 51
360.0
 73
1
 97
0
 75
0
 76
1
 98
0
1001
ACAD
1010
0.0
1020
0.0
1030
0
  0
HATCH
  5
174
100
AcDbEntity
  8
0
 62
6
420
16711935
370
-1
 48
1.0
  6
BYLAYER
100
AcDbHatch
 10
0.0
 20
0.0
 30
0.0
210
0.0
220
0.0
230
1.0
  2
SOLID
 70
1
 71
0
 91
1
 92
1
 93
1
 72
2
 10
344.9999894025367553
 20
143.0000105974632731
 40
5.0
 50
0.0
 51
360.0
 73
1
 97
0
 75
0
 76
1
 98
0
1001
ACAD
1010
0.0
1020
0.0
1030
0
  0
HATCH
  5
175
100
AcDbEntity
  8
0
 62
6
420
16711935
370
-1
 48
1.0
  6
BYLAYER
100
AcDbHatch
 10
0.0
 20
0.0
 30
0.0
210
0.0
220
0.0
230
1.0
  2
SOLID
 70
1
 71
0
 91
1
 92
1
 93
1
 72
2
 10
369.999989402536869
 20
143.0000105974633016
 40
5.0
 50
0.0
 51
360.0
 73
1
 97
0
 75
0
 76
1
 98
0
1001
ACAD
1010
0.0
1020
0.0
1030
0
  0
HATCH
  5
176
100
AcDbEntity
  8
0
 62
6
420
16711935
370
-1
 48
1.0
  6
BYLAYER
100
AcDbHatch
 10
0.0
 20
0.0
 30
0.0
210
0.0
220
0.0
230
1.0
  2
SOLID
 70
1
 71
0
 91
1
 92
1
 93
1
 72
2
 10
394.9999894025367553
 20
143.0000105974632731
 40
5.0
 50
0.0
 51
360.0
 73
1
 97
0
 75
0
 76
1
 98
0
1001
ACAD
1010
0.0
1020
0.0
1030
0
  0
HATCH
  5
177
100
AcDbEntity
  8
0
 62
214
420
8388736
370
-1
 48
1.0
  6
BYLAYER
100
AcDbHatch
 10
0.0
 20
0.0
 30
0.0
210
0.0
220
0.0
230
1.0
  2
SOLID
 70
1
 71
0
 91
1
 92
1
 93
1
 72
2
 10
319.999804824367061
 20
42.0001951756483223
 40
8.0
 50
0.0
 51
360.0
 73
1
 97
0
 75
0
 76
1
 98
0
1001
ACAD
1010
0.0
1020
0.0
1030
0
  0
HATCH
  5
178
100
AcDbEntity
  8
0
 62
214
420
8388736
370
-1
 48
1.0
  6
BYLAYER
100
AcDbHatch
 10
0.0
 20
0.0
 30
0.0
210
0.0
220
0.0
230
1.0
  2
SOLID
 70
1
 71
0
 91
1
 92
1
 93
1
 72
2
 10
344.9997944805310226
 20
42.0000718653590894
 40
8.0
 50
0.0
 51
360.0
 73
1
 97
0
 75
0
 76
1
 98
0
1001
ACAD
1010
0.0
1020
0.0
1030
0
  0
HATCH
  5
179
100
AcDbEntity
  8
0
 62
214
420
8388736
370
-1
 48
1.0
  6
BYLAYER
100
AcDbHatch
 10
0.0
 20
0.0
 30
0.0
210
0.0
220
0.0
230
1.0
  2
SOLID
 70
1
 71
0
 91
1
 92
1
 93
1
 72
2
 10
370.0001981463829566
 20
42.000176419341976
 40
8.0
 50
0.0
 51
360.0
 73
1
 97
0
 75
0
 76
1
 98
0
1001
ACAD
1010
0.0
1020
0.0
1030
0
  0
HATCH
  5
17A
100
AcDbEntity
  8
0
 62
214
420
8388736
370
-1
 48
1.0
  6
BYLAYER
100
AcDbHatch
 10
0.0
 20
0.0
 30
0.0
210
0.0
220
0.0
230
1.0
  2
SOLID
 70
1
 71
0
 91
1
 92
1
 93
1
 72
2
 10
395.0000000000001137
 20
42.0003369710946046
 40
8.0
 50
0.0
 51
360.0
 73
1
 97
0
 75
0
 76
1
 98
0
1001
ACAD
1010
0.0
1020
0.0
1030
0
  0
MTEXT
  5
17B
100
AcDbEntity
  8
0
 62
256
370
-1
 48
1.0
  6
BYLAYER
100
AcDbMText
 10
0.0
 20
-40.0
 30
0.0
 40
1.0
 41
0.0
 71
1
 72
1
  3
\C2;\H12.5;Yellow\c0; - surface\P\c32767;Orange\c0; - surface with 9mm cut from the OTHER side\P\C3;Green\c0; - cut depth to 3mm\P\C4;Cyan\c0; - cut depth to 9mm\P\C5;Blue\c0; - cut depth to 12mm\P\PRound holes go through\P\C6;Magenta\c0; - diameter 
  1
16mm\P\C214;Dark purple\c0; - diameter 10mm\P\PInternal corner dog bones and roundings are 6mm.\PPieces 3 and 4 (not shown) are the same as 1 and 2 respectively.
  7
textstyle7
 50
0.0
 73
2
 44
1.0
  0
MTEXT
  5
17C
100
AcDbEntity
  8
0
 62
256
370
-1
 48
1.0
  6
BYLAYER
100
AcDbMText
 10
73.064528350225487
 20
381.6113504513900807
 30
0.0
 40
1.0
 41
0.0
 71
1
 72
1
  1
\H12.5;1
  7
textstyle5
 50
0.0
 73
2
 44
1.0
  0
MTEXT
  5
17D
100
AcDbEntity
  8
0
 62
256
370
-1
 48
1.0
  6
BYLAYER
100
AcDbMText
 10
287.4789119298856122
 20
385.4631058450366936
 30
0.0
 40
1.0
 41
0.0
 71
1
 72
1
  1
\H12.5;2
  7
textstyle6
 50
0.0
 73
2
 44
1.0
  0
MTEXT
  5
17E
100
AcDbEntity
  8
0
 62
256
370
-1
 48
1.0
  6
BYLAYER
100
AcDbMText
 10
-23.2293564909392671
 20
122.259820612519718
 30
0.0
 40
1.0
 41
0.0
 71
1
 72
1
  1
\H12.5;5
  7
textstyle3
 50
0.0
 73
2
 44
1.0
  0
MTEXT
  5
17F
100
AcDbEntity
  8
0
 62
256
370
-1
 48
1.0
  6
BYLAYER
100
AcDbMText
 10
250.0
 20
150.0
 30
0.0
 40
1.0
 41
0.0
 71
1
 72
1
  1
\H12.5;6
  7
textstyle4
 50
0.0
 73
2
 44
1.0
  0
MTEXT
  5
180
100
AcDbEntity
  8
0
 62
256
370
-1
 48
1.0
  6
BYLAYER
100
AcDbMText
 10
250.0
 20
50.0
 30
0.0
 40
1.0
 41
0.0
 71
1
 72
1
  1
\H12.5;8
  7
textstyle2
 50
0.0
 73
2
 44
1.0
  0
MTEXT
  5
181
100
AcDbEntity
  8
0
 62
256
370
-1
 48
1.0
  6
BYLAYER
100
AcDbMText
 10
436.4134538175537728
 20
155.6417006907901737
 30
0.0
 40
1.0
 41
0.0
 71
1
 72
1
  1
\H12.5;7
  7
textstyle0
 50
0.0
 73
2
 44
1.0
  0
MTEXT
  5
182
100
AcDbEntity
  8
0
 62
256
370
-1
 48
1.0
  6
BYLAYER
100
AcDbMText
 10
438.9812907466514389
 20
47.7925496686856945
 30
0.0
 40
1.0
 41
0.0
 71
1
 72
1
  1
\H12.5;9
  7
textstyle1
 50
0.0
 73
2
 44
1.0
  0
HATCH
  5
183
100
AcDbEntity
  8
0
 62
30
420
16744192
370
-1
 48
1.0
  6
BYLAYER
100
AcDbHatch
 10
0.0
 20
0.0
 30
0.0
210
0.0
220
0.0
230
1.0
  2
SOLID
 70
1
 71
0
 91
1
 92
1
 93
6
 72
1
 10
174.0
 20
220.0
 11
174.0
 21
229.0
 72
1
 10
174.0
 20
229.0
 11
165.0
 21
229.0
 72
1
 10
165.0
 20
229.0
 11
27.0
 21
229.0
 72
1
 10
27.0
 20
229.0
 11
18.0
 21
229.0
 72
1
 10
18.0
 20
229.0
 11
18.0
 21
220.0
 72
1
 10
18.0
 20
220.0
 11
174.0
 21
220.0
 97
0
 75
0
 76
1
 98
0
1001
ACAD
1010
0.0
1020
0.0
1030
0
  0
HATCH
  5
184
100
AcDbEntity
  8
0
 62
30
420
16744192
370
-1
 48
1.0
  6
BYLAYER
100
AcDbHatch
 10
0.0
 20
0.0
 30
0.0
210
0.0
220
0.0
230
1.0
  2
SOLID
 70
1
 71
0
 91
1
 92
1
 93
4
 72
1
 10
239.0
 20
220.0
 11
359.0
 21
220.0
 72
1
 10
359.0
 20
220.0
 11
359.0
 21
229.0
 72
1
 10
359.0
 20
229.0
 11
239.0
 21
229.0
 72
1
 10
239.0
 20
229.0
 11
239.0
 21
220.0
 97
0
 75
0
 76
1
 98
0
1001
ACAD
1010
0.0
1020
0.0
1030
0
  0
HATCH
  5
185
100
AcDbEntity
  8
0
 62
30
420
16744192
370
-1
 48
1.0
  6
BYLAYER
100
AcDbHatch
 10
0.0
 20
0.0
 30
0.0
210
0.0
220
0.0
230
1.0
  2
SOLID
 70
1
 71
0
 91
1
 92
1
 93
4
 72
1
 10
130.0
 20
105.0
 11
139.0
 21
105.0
 72
1
 10
139.0
 20
105.0
 11
139.0
 21
181.0
 72
1
 10
139.0
 20
181.0
 11
130.0
 21
181.0
 72
1
 10
130.0
 20
181.0
 11
130.0
 21
105.0
 97
0
 75
0
 76
1
 98
0
1001
ACAD
1010
0.0
1020
0.0
1030
0
  0
HATCH
  5
186
100
AcDbEntity
  8
0
 62
30
420
16744192
370
-1
 48
1.0
  6
BYLAYER
100
AcDbHatch
 10
0.0
 20
0.0
 30
0.0
210
0.0
220
0.0
230
1.0
  2
SOLID
 70
1
 71
0
 91
1
 92
1
 93
4
 72
1
 10
280.0
 20
181.0
 11
280.0
 21
105.0
 72
1
 10
280.0
 20
105.0
 11
289.0
 21
105.0
 72
1
 10
289.0
 20
105.0
 11
289.0
 21
181.0
 72
1
 10
289.0
 20
181.0
 11
280.0
 21
181.0
 97
0
 75
0
 76
1
 98
0
1001
ACAD
1010
0.0
1020
0.0
1030
0
  0
HATCH
  5
187
100
AcDbEntity
  8
0
 62
3
420
65280
370
-1
 48
1.0
  6
BYLAYER
100
AcDbHatch
 10
0.0
 20
0.0
 30
0.0
210
0.0
220
0.0
230
1.0
  2
SOLID
 70
1
 71
0
 91
1
 92
1
 93
4
 72
1
 10
27.0
 20
359.0
 11
27.0
 21
229.0
 72
1
 10
27.0
 20
229.0
 11
18.0
 21
229.0
 72
1
 10
18.0
 20
229.0
 11
18.0
 21
359.0
 72
1
 10
18.0
 20
359.0
 11
27.0
 21
359.0
 97
0
 75
0
 76
1
 98
0
1001
ACAD
1010
0.0
1020
0.0
1030
0
  0
HATCH
  5
188
100
AcDbEntity
  8
0
 62
3
420
65280
370
-1
 48
1.0
  6
BYLAYER
100
AcDbHatch
 10
0.0
 20
0.0
 30
0.0
210
0.0
220
0.0
230
1.0
  2
SOLID
 70
1
 71
0
 91
1
 92
1
 93
4
 72
1
 10
174.0
 20
229.0
 11
174.0
 21
359.0
 72
1
 10
174.0
 20
359.0
 11
165.0
 21
359.0
 72
1
 10
165.0
 20
359.0
 11
165.0
 21
229.0
 72
1
 10
165.0
 20
229.0
 11
174.0
 21
229.0
 97
0
 75
0
 76
1
 98
0
1001
ACAD
1010
0.0
1020
0.0
1030
0
  0
HATCH
  5
189
100
AcDbEntity
  8
0
 62
4
420
65535
370
-1
 48
1.0
  6
BYLAYER
100
AcDbHatch
 10
0.0
 20
0.0
 30
0.0
210
0.0
220
0.0
230
1.0
  2
SOLID
 70
1
 71
0
 91
1
 92
1
 93
4
 72
1
 10
183.0
 20
359.0
 11
174.0
 21
359.0
 72
1
 10
174.0
 20
359.0
 11
174.0
 21
229.0
 72
1
 10
174.0
 20
229.0
 11
183.0
 21
229.0
 72
1
 10
183.0
 20
229.0
 11
183.0
 21
359.0
 97
0
 75
0
 76
1
 98
0
1001
ACAD
1010
0.0
1020
0.0
1030
0
  0
HATCH
  5
18A
100
AcDbEntity
  8
0
 62
4
420
65535
370
-1
 48
1.0
  6
BYLAYER
100
AcDbHatch
 10
0.0
 20
0.0
 30
0.0
210
0.0
220
0.0
230
1.0
  2
SOLID
 70
1
 71
0
 91
1
 92
1
 93
4
 72
1
 10
9.0
 20
229.0
 11
9.0
 21
359.0
 72
1
 10
9.0
 20
359.0
 11
18.0
 21
359.0
 72
1
 10
18.0
 20
359.0
 11
18.0
 21
229.0
 72
1
 10
18.0
 20
229.0
 11
9.0
 21
229.0
 97
0
 75
0
 76
1
 98
0
1001
ACAD
1010
0.0
1020
0.0
1030
0
  0
HATCH
  5
18B
100
AcDbEntity
  8
0
 62
4
420
65535
370
-1
 48
1.0
  6
BYLAYER
100
AcDbHatch
 10
0.0
 20
0.0
 30
0.0
210
0.0
220
0.0
230
1.0
  2
SOLID
 70
1
 71
0
 91
1
 92
1
 93
4
 72
1
 10
239.0
 20
359.0
 11
230.0
 21
359.0
 72
1
 10
230.0
 20
359.0
 11
230.0
 21
229.0
 72
1
 10
230.0
 20
229.0
 11
239.0
 21
229.0
 72
1
 10
239.0
 20
229.0
 11
239.0
 21
359.0
 97
0
 75
0
 76
1
 98
0
1001
ACAD
1010
0.0
1020
0.0
1030
0
  0
HATCH
  5
18C
100
AcDbEntity
  8
0
 62
4
420
65535
370
-1
 48
1.0
  6
BYLAYER
100
AcDbHatch
 10
0.0
 20
0.0
 30
0.0
210
0.0
220
0.0
230
1.0
  2
SOLID
 70
1
 71
0
 91
1
 92
1
 93
4
 72
1
 10
248.0
 20
327.0
 11
248.0
 21
359.0
 72
1
 10
248.0
 20
359.0
 11
256.0
 21
359.0
 72
1
 10
256.0
 20
359.0
 11
256.0
 21
327.0
 72
2
 10
251.9999999999998863
 20
327.0002701307641928
 40
4.0
 50
360.0
 51
180.0
 73
0
 97
0
 75
0
 76
1
 98
0
1001
ACAD
1010
0.0
1020
0.0
1030
0
  0
HATCH
  5
18D
100
AcDbEntity
  8
0
 62
4
420
65535
370
-1
 48
1.0
  6
BYLAYER
100
AcDbHatch
 10
0.0
 20
0.0
 30
0.0
210
0.0
220
0.0
230
1.0
  2
SOLID
 70
1
 71
0
 91
1
 92
1
 93
4
 72
2
 10
281.2999999999998977
 20
327.0002701307637381
 40
4.0
 50
180.0
 51
0.0
 73
1
 72
1
 10
285.3000000000000114
 20
327.0
 11
285.3000000000000114
 21
359.0
 72
1
 10
285.3000000000000114
 20
359.0
 11
277.3000000000000114
 21
359.0
 72
1
 10
277.3000000000000114
 20
359.0
 11
277.3000000000000114
 21
327.0
 97
0
 75
0
 76
1
 98
0
1001
ACAD
1010
0.0
1020
0.0
1030
0
  0
HATCH
  5
18E
100
AcDbEntity
  8
0
 62
4
420
65535
370
-1
 48
1.0
  6
BYLAYER
100
AcDbHatch
 10
0.0
 20
0.0
 30
0.0
210
0.0
220
0.0
230
1.0
  2
SOLID
 70
1
 71
0
 91
1
 92
1
 93
4
 72
1
 10
320.6999999999999886
 20
359.0
 11
312.6999999999999886
 21
359.0
 72
1
 10
312.6999999999999886
 20
359.0
 11
312.6999999999999886
 21
327.0
 72
2
 10
316.6999999999999318
 20
327.0002701307640791
 40
4.0
 50
180.0
 51
0.0
 73
1
 72
1
 10
320.6999999999999886
 20
327.0
 11
320.6999999999999886
 21
359.0
 97
0
 75
0
 76
1
 98
0
1001
ACAD
1010
0.0
1020
0.0
1030
0
  0
HATCH
  5
18F
100
AcDbEntity
  8
0
 62
4
420
65535
370
-1
 48
1.0
  6
BYLAYER
100
AcDbHatch
 10
0.0
 20
0.0
 30
0.0
210
0.0
220
0.0
230
1.0
  2
SOLID
 70
1
 71
0
 91
1
 92
1
 93
4
 72
2
 10
345.9999999999998863
 20
327.0002701307640791
 40
4.0
 50
180.0
 51
0.0
 73
1
 72
1
 10
350.0
 20
327.0
 11
350.0
 21
359.0
 72
1
 10
350.0
 20
359.0
 11
342.0
 21
359.0
 72
1
 10
342.0
 20
359.0
 11
342.0
 21
327.0
 97
0
 75
0
 76
1
 98
0
1001
ACAD
1010
0.0
1020
0.0
1030
0
  0
HATCH
  5
190
100
AcDbEntity
  8
0
 62
4
420
65535
370
-1
 48
1.0
  6
BYLAYER
100
AcDbHatch
 10
0.0
 20
0.0
 30
0.0
210
0.0
220
0.0
230
1.0
  2
SOLID
 70
1
 71
0
 91
1
 92
1
 93
4
 72
1
 10
359.0
 20
229.0
 11
368.0
 21
229.0
 72
1
 10
368.0
 20
229.0
 11
368.0
 21
359.0
 72
1
 10
368.0
 20
359.0
 11
359.0
 21
359.0
 72
1
 10
359.0
 20
359.0
 11
359.0
 21
229.0
 97
0
 75
0
 76
1
 98
0
1001
ACAD
1010
0.0
1020
0.0
1030
0
  0
HATCH
  5
191
100
AcDbEntity
  8
0
 62
4
420
65535
370
-1
 48
1.0
  6
BYLAYER
100
AcDbHatch
 10
0.0
 20
0.0
 30
0.0
210
0.0
220
0.0
230
1.0
  2
SOLID
 70
1
 71
0
 91
1
 92
1
 93
4
 72
1
 10
269.0
 20
190.0
 11
139.0
 21
190.0
 72
1
 10
139.0
 20
190.0
 11
139.0
 21
181.0
 72
1
 10
139.0
 20
181.0
 11
269.0
 21
181.0
 72
1
 10
269.0
 20
181.0
 11
269.0
 21
190.0
 97
0
 75
0
 76
1
 98
0
1001
ACAD
1010
0.0
1020
0.0
1030
0
  0
HATCH
  5
192
100
AcDbEntity
  8
0
 62
4
420
65535
370
-1
 48
1.0
  6
BYLAYER
100
AcDbHatch
 10
0.0
 20
0.0
 30
0.0
210
0.0
220
0.0
230
1.0
  2
SOLID
 70
1
 71
0
 91
1
 92
1
 93
4
 72
1
 10
269.0
 20
96.0
 11
269.0
 21
105.0
 72
1
 10
269.0
 20
105.0
 11
139.0
 21
105.0
 72
1
 10
139.0
 20
105.0
 11
139.0
 21
96.0
 72
1
 10
139.0
 20
96.0
 11
269.0
 21
96.0
 97
0
 75
0
 76
1
 98
0
1001
ACAD
1010
0.0
1020
0.0
1030
0
  0
HATCH
  5
193
100
AcDbEntity
  8
0
 62
4
420
65535
370
-1
 48
1.0
  6
BYLAYER
100
AcDbHatch
 10
0.0
 20
0.0
 30
0.0
210
0.0
220
0.0
230
1.0
  2
SOLID
 70
1
 71
0
 91
1
 92
1
 93
4
 72
1
 10
419.0
 20
181.0
 11
419.0
 21
190.0
 72
1
 10
419.0
 20
190.0
 11
289.0
 21
190.0
 72
1
 10
289.0
 20
190.0
 11
289.0
 21
181.0
 72
1
 10
289.0
 20
181.0
 11
419.0
 21
181.0
 97
0
 75
0
 76
1
 98
0
1001
ACAD
1010
0.0
1020
0.0
1030
0
  0
HATCH
  5
194
100
AcDbEntity
  8
0
 62
4
420
65535
370
-1
 48
1.0
  6
BYLAYER
100
AcDbHatch
 10
0.0
 20
0.0
 30
0.0
210
0.0
220
0.0
230
1.0
  2
SOLID
 70
1
 71
0
 91
1
 92
1
 93
4
 72
1
 10
289.0
 20
105.0
 11
289.0
 21
96.0
 72
1
 10
289.0
 20
96.0
 11
419.0
 21
96.0
 72
1
 10
419.0
 20
96.0
 11
419.0
 21
105.0
 72
1
 10
419.0
 20
105.0
 11
289.0
 21
105.0
 97
0
 75
0
 76
1
 98
0
1001
ACAD
1010
0.0
1020
0.0
1030
0
  0
HATCH
  5
195
100
AcDbEntity
  8
0
 62
4
420
65535
370
-1
 48
1.0
  6
BYLAYER
100
AcDbHatch
 10
0.0
 20
0.0
 30
0.0
210
0.0
220
0.0
230
1.0
  2
SOLID
 70
1
 71
0
 91
1
 92
1
 93
4
 72
1
 10
289.0
 20
13.0
 11
289.0
 21
4.0
 72
1
 10
289.0
 20
4.0
 11
419.0
 21
4.0
 72
1
 10
419.0
 20
4.0
 11
419.0
 21
13.0
 72
1
 10
419.0
 20
13.0
 11
289.0
 21
13.0
 97
0
 75
0
 76
1
 98
0
1001
ACAD
1010
0.0
1020
0.0
1030
0
  0
HATCH
  5
196
100
AcDbEntity
  8
0
 62
4
420
65535
370
-1
 48
1.0
  6
BYLAYER
100
AcDbHatch
 10
0.0
 20
0.0
 30
0.0
210
0.0
220
0.0
230
1.0
  2
SOLID
 70
1
 71
0
 91
1
 92
1
 93
4
 72
1
 10
419.0
 20
71.0
 11
289.0
 21
71.0
 72
1
 10
289.0
 20
71.0
 11
289.0
 21
80.0
 72
1
 10
289.0
 20
80.0
 11
419.0
 21
80.0
 72
1
 10
419.0
 20
80.0
 11
419.0
 21
71.0
 97
0
 75
0
 76
1
 98
0
1001
ACAD
1010
0.0
1020
0.0
1030
0
  0
HATCH
  5
197
100
AcDbEntity
  8
0
 62
4
420
65535
370
-1
 48
1.0
  6
BYLAYER
100
AcDbHatch
 10
0.0
 20
0.0
 30
0.0
210
0.0
220
0.0
230
1.0
  2
SOLID
 70
1
 71
0
 91
1
 92
1
 93
4
 72
1
 10
280.0
 20
71.0
 11
280.0
 21
13.0
 72
1
 10
280.0
 20
13.0
 11
289.0
 21
13.0
 72
1
 10
289.0
 20
13.0
 11
289.0
 21
71.0
 72
1
 10
289.0
 20
71.0
 11
280.0
 21
71.0
 97
0
 75
0
 76
1
 98
0
1001
ACAD
1010
0.0
1020
0.0
1030
0
  0
HATCH
  5
198
100
AcDbEntity
  8
0
 62
4
420
65535
370
-1
 48
1.0
  6
BYLAYER
100
AcDbHatch
 10
0.0
 20
0.0
 30
0.0
210
0.0
220
0.0
230
1.0
  2
SOLID
 70
1
 71
0
 91
1
 92
1
 93
4
 72
1
 10
269.0
 20
4.0
 11
269.0
 21
13.0
 72
1
 10
269.0
 20
13.0
 11
139.0
 21
13.0
 72
1
 10
139.0
 20
13.0
 11
139.0
 21
4.0
 72
1
 10
139.0
 20
4.0
 11
269.0
 21
4.0
 97
0
 75
0
 76
1
 98
0
1001
ACAD
1010
0.0
1020
0.0
1030
0
  0
HATCH
  5
199
100
AcDbEntity
  8
0
 62
4
420
65535
370
-1
 48
1.0
  6
BYLAYER
100
AcDbHatch
 10
0.0
 20
0.0
 30
0.0
210
0.0
220
0.0
230
1.0
  2
SOLID
 70
1
 71
0
 91
1
 92
1
 93
4
 72
1
 10
139.0
 20
71.0
 11
139.0
 21
13.0
 72
1
 10
139.0
 20
13.0
 11
130.0
 21
13.0
 72
1
 10
130.0
 20
13.0
 11
130.0
 21
71.0
 72
1
 10
130.0
 20
71.0
 11
139.0
 21
71.0
 97
0
 75
0
 76
1
 98
0
1001
ACAD
1010
0.0
1020
0.0
1030
0
  0
HATCH
  5
19A
100
AcDbEntity
  8
0
 62
4
420
65535
370
-1
 48
1.0
  6
BYLAYER
100
AcDbHatch
 10
0.0
 20
0.0
 30
0.0
210
0.0
220
0.0
230
1.0
  2
SOLID
 70
1
 71
0
 91
1
 92
1
 93
4
 72
1
 10
269.0
 20
71.0
 11
269.0
 21
80.0
 72
1
 10
269.0
 20
80.0
 11
139.0
 21
80.0
 72
1
 10
139.0
 20
80.0
 11
139.0
 21
71.0
 72
1
 10
139.0
 20
71.0
 11
269.0
 21
71.0
 97
0
 75
0
 76
1
 98
0
1001
ACAD
1010
0.0
1020
0.0
1030
0
  0
ARC
  5
19B
100
AcDbEntity
  8
0
 62
256
370
-1
 48
1.0
  6
BYLAYER
100
AcDbCircle
 10
18.0
 20
9.0
 30
0.0
 40
3.0
100
AcDbArc
 50
0.0
 51
270.0
  0
ARC
  5
19C
100
AcDbEntity
  8
0
 62
256
370
-1
 48
1.0
  6
BYLAYER
100
AcDbCircle
 10
94.0
 20
9.0
 30
0.0
 40
3.0
100
AcDbArc
 50
270.0
 51
180.0
  0
ARC
  5
19D
100
AcDbEntity
  8
0
 62
256
370
-1
 48
1.0
  6
BYLAYER
100
AcDbCircle
 10
18.0
 20
183.0
 30
0.0
 40
3.0
100
AcDbArc
 50
90.0
 51
0.0
  0
ARC
  5
19E
100
AcDbEntity
  8
0
 62
256
370
-1
 48
1.0
  6
BYLAYER
100
AcDbCircle
 10
94.0
 20
183.0
 30
0.0
 40
3.0
100
AcDbArc
 50
180.0
 51
90.0
  0
ARC
  5
19F
100
AcDbEntity
  8
0
 62
256
370
-1
 48
1.0
  6
BYLAYER
100
AcDbCircle
 10
103.0
 20
174.0
 30
0.0
 40
3.0
100
AcDbArc
 50
270.0
 51
180.0
  0
ARC
  5
1A0
100
AcDbEntity
  8
0
 62
256
370
-1
 48
1.0
  6
BYLAYER
100
AcDbCircle
 10
103.0
 20
18.0
 30
0.0
 40
3.0
100
AcDbArc
 50
180.0
 51
90.0
  0
ARC
  5
1A1
100
AcDbEntity
  8
0
 62
256
370
-1
 48
1.0
  6
BYLAYER
100
AcDbCircle
 10
9.0
 20
18.0
 30
0.0
 40
3.0
100
AcDbArc
 50
90.0
 51
0.0
  0
ARC
  5
1A2
100
AcDbEntity
  8
0
 62
256
370
-1
 48
1.0
  6
BYLAYER
100
AcDbCircle
 10
9.0
 20
174.0
 30
0.0
 40
3.0
100
AcDbArc
 50
0.0
 51
270.0
  0
ARC
  5
1A3
100
AcDbEntity
  8
0
 62
256
370
-1
 48
1.0
  6
BYLAYER
100
AcDbCircle
 10
27.0
 20
36.0
 30
0.0
 40
3.0
100
AcDbArc
 50
90.0
 51
0.0
  0
ARC
  5
1A4
100
AcDbEntity
  8
0
 62
256
370
-1
 48
1.0
  6
BYLAYER
100
AcDbCircle
 10
27.0
 20
156.0
 30
0.0
 40
3.0
100
AcDbArc
 50
0.0
 51
270.0
  0
ARC
  5
1A5
100
AcDbEntity
  8
0
 62
256
370
-1
 48
1.0
  6
BYLAYER
100
AcDbCircle
 10
85.0
 20
156.0
 30
0.0
 40
3.0
100
AcDbArc
 50
270.0
 51
180.0
  0
ARC
  5
1A6
100
AcDbEntity
  8
0
 62
256
370
-1
 48
1.0
  6
BYLAYER
100
AcDbCircle
 10
85.0
 20
36.0
 30
0.0
 40
3.0
100
AcDbArc
 50
180.0
 51
90.0
  0
ARC
  5
1A7
100
AcDbEntity
  8
0
 62
256
370
-1
 48
1.0
  6
BYLAYER
100
AcDbCircle
 10
15.0
 20
171.0
 30
0.0
 40
3.0
100
AcDbArc
 50
0.0
 51
90.0
  0
ARC
  5
1A8
100
AcDbEntity
  8
0
 62
256
370
-1
 48
1.0
  6
BYLAYER
100
AcDbCircle
 10
15.0
 20
21.0
 30
0.0
 40
3.0
100
AcDbArc
 50
270.0
 51
0.0
  0
ARC
  5
1A9
100
AcDbEntity
  8
0
 62
256
370
-1
 48
1.0
  6
BYLAYER
100
AcDbCircle
 10
30.0
 20
24.0
 30
0.0
 40
3.0
100
AcDbArc
 50
90.0
 51
180.0
  0
ARC
  5
1AA
100
AcDbEntity
  8
0
 62
256
370
-1
 48
1.0
  6
BYLAYER
100
AcDbCircle
 10
82.0
 20
24.0
 30
0.0
 40
3.0
100
AcDbArc
 50
0.0
 51
90.0
  0
ARC
  5
1AB
100
AcDbEntity
  8
0
 62
256
370
-1
 48
1.0
  6
BYLAYER
100
AcDbCircle
 10
30.0
 20
168.0
 30
0.0
 40
3.0
100
AcDbArc
 50
180.0
 51
270.0
  0
ARC
  5
1AC
100
AcDbEntity
  8
0
 62
256
370
-1
 48
1.0
  6
BYLAYER
100
AcDbCircle
 10
82.0
 20
168.0
 30
0.0
 40
3.0
100
AcDbArc
 50
270.0
 51
0.0
  0
ARC
  5
1AD
100
AcDbEntity
  8
0
 62
256
370
-1
 48
1.0
  6
BYLAYER
100
AcDbCircle
 10
79.0
 20
153.0
 30
0.0
 40
3.0
100
AcDbArc
 50
90.0
 51
180.0
  0
ARC
  5
1AE
100
AcDbEntity
  8
0
 62
256
370
-1
 48
1.0
  6
BYLAYER
100
AcDbCircle
 10
33.0
 20
153.0
 30
0.0
 40
3.0
100
AcDbArc
 50
0.0
 51
90.0
  0
ARC
  5
1AF
100
AcDbEntity
  8
0
 62
256
370
-1
 48
1.0
  6
BYLAYER
100
AcDbCircle
 10
33.0
 20
39.0
 30
0.0
 40
3.0
100
AcDbArc
 50
270.0
 51
0.0
  0
ARC
  5
1B0
100
AcDbEntity
  8
0
 62
256
370
-1
 48
1.0
  6
BYLAYER
100
AcDbCircle
 10
79.0
 20
39.0
 30
0.0
 40
3.0
100
AcDbArc
 50
180.0
 51
270.0
  0
ARC
  5
1B1
100
AcDbEntity
  8
0
 62
256
370
-1
 48
1.0
  6
BYLAYER
100
AcDbCircle
 10
97.0
 20
21.0
 30
0.0
 40
3.0
100
AcDbArc
 50
180.0
 51
270.0
  0
ARC
  5
1B2
100
AcDbEntity
  8
0
 62
256
370
-1
 48
1.0
  6
BYLAYER
100
AcDbCircle
 10
97.0
 20
171.0
 30
0.0
 40
3.0
100
AcDbArc
 50
90.0
 51
180.0
  0
ARC
  5
1B3
100
AcDbEntity
  8
0
 62
256
370
-1
 48
1.0
  6
BYLAYER
100
AcDbCircle
 10
247.0
 20
160.0
 30
0.0
 40
3.0
100
AcDbArc
 50
90.0
 51
180.0
  0
ARC
  5
1B4
100
AcDbEntity
  8
0
 62
256
370
-1
 48
1.0
  6
BYLAYER
100
AcDbCircle
 10
247.0
 20
126.0
 30
0.0
 40
3.0
100
AcDbArc
 50
180.0
 51
270.0
  0
ARC
  5
1B5
100
AcDbEntity
  8
0
 62
256
370
-1
 48
1.0
  6
BYLAYER
100
AcDbCircle
 10
238.0
 20
59.0
 30
0.0
 40
3.0
100
AcDbArc
 50
90.0
 51
180.0
  0
ARC
  5
1B6
100
AcDbEntity
  8
0
 62
256
370
-1
 48
1.0
  6
BYLAYER
100
AcDbCircle
 10
238.0
 20
25.0
 30
0.0
 40
3.0
100
AcDbArc
 50
180.0
 51
270.0
  0
ARC
  5
1B7
100
AcDbEntity
  8
0
 62
256
370
-1
 48
1.0
  6
BYLAYER
100
AcDbCircle
 10
413.0
 20
59.0
 30
0.0
 40
3.0
100
AcDbArc
 50
90.0
 51
180.0
  0
ARC
  5
1B8
100
AcDbEntity
  8
0
 62
256
370
-1
 48
1.0
  6
BYLAYER
100
AcDbCircle
 10
413.0
 20
25.0
 30
0.0
 40
3.0
100
AcDbArc
 50
180.0
 51
270.0
  0
ARC
  5
1B9
100
AcDbEntity
  8
0
 62
256
370
-1
 48
1.0
  6
BYLAYER
100
AcDbCircle
 10
27.8786796564403581
 20
173.1213203435596313
 30
0.0
 40
3.0
100
AcDbArc
 50
17.0312484582236827
 51
252.96875154177647
  0
ARC
  5
1BA
100
AcDbEntity
  8
0
 62
256
370
-1
 48
1.0
  6
BYLAYER
100
AcDbCircle
 10
84.1213203435596455
 20
173.1213203435596313
 30
0.0
 40
3.0
100
AcDbArc
 50
287.0312484582234447
 51
162.968751541775589
  0
ARC
  5
1BB
100
AcDbEntity
  8
0
 62
256
370
-1
 48
1.0
  6
BYLAYER
100
AcDbCircle
 10
27.8786796564403581
 20
18.8786796564403581
 30
0.0
 40
3.0
100
AcDbArc
 50
107.0312484582234589
 51
342.9687515417757595
  0
ARC
  5
1BC
100
AcDbEntity
  8
0
 62
256
370
-1
 48
1.0
  6
BYLAYER
100
AcDbCircle
 10
84.1213203435596455
 20
18.8786796564403581
 30
0.0
 40
3.0
100
AcDbArc
 50
197.0312484582234163
 51
72.9687515417766406
  0
ARC
  5
1BD
100
AcDbEntity
  8
0
 62
256
370
-1
 48
1.0
  6
BYLAYER
100
AcDbCircle
 10
136.75
 20
102.75
 30
0.0
 40
3.0
100
AcDbArc
 50
318.5903778907292008
 51
131.4096221092709413
  0
ARC
  5
1BE
100
AcDbEntity
  8
0
 62
256
370
-1
 48
1.0
  6
BYLAYER
100
AcDbCircle
 10
136.75
 20
73.25
 30
0.0
 40
3.0
100
AcDbArc
 50
228.5903778907290587
 51
41.4096221092707637
  0
ARC
  5
1BF
100
AcDbEntity
  8
0
 62
256
370
-1
 48
1.0
  6
BYLAYER
100
AcDbCircle
 10
136.75
 20
10.75
 30
0.0
 40
3.0
100
AcDbArc
 50
318.5903778907291439
 51
131.4096221092709982
  0
ARC
  5
1C0
100
AcDbEntity
  8
0
 62
256
370
-1
 48
1.0
  6
BYLAYER
100
AcDbCircle
 10
286.75
 20
10.75
 30
0.0
 40
3.0
100
AcDbArc
 50
318.5903778907291439
 51
131.4096221092705434
  0
ARC
  5
1C1
100
AcDbEntity
  8
0
 62
256
370
-1
 48
1.0
  6
BYLAYER
100
AcDbCircle
 10
286.75
 20
73.25
 30
0.0
 40
3.0
100
AcDbArc
 50
228.5903778907296555
 51
41.4096221092707637
  0
ARC
  5
1C2
100
AcDbEntity
  8
0
 62
256
370
-1
 48
1.0
  6
BYLAYER
100
AcDbCircle
 10
286.75
 20
102.75
 30
0.0
 40
3.0
100
AcDbArc
 50
318.5903778907292008
 51
131.4096221092705434
  0
ARC
  5
1C3
100
AcDbEntity
  8
0
 62
256
370
-1
 48
1.0
  6
BYLAYER
100
AcDbCircle
 10
286.75
 20
183.25
 30
0.0
 40
3.0
100
AcDbArc
 50
228.5903778907294566
 51
41.4096221092709627
  0
ARC
  5
1C4
100
AcDbEntity
  8
0
 62
256
370
-1
 48
1.0
  6
BYLAYER
100
AcDbCircle
 10
136.75
 20
183.25
 30
0.0
 40
3.0
100
AcDbArc
 50
228.5903778907290587
 51
41.4096221092709627
  0
ARC
  5
1C5
100
AcDbEntity
  8
0
 62
256
370
-1
 48
1.0
  6
BYLAYER
100
AcDbCircle
 10
236.75
 20
226.75
 30
0.0
 40
3.0
100
AcDbArc
 50
318.5903778907290302
 51
131.4096221092709413
  0
ARC
  5
1C6
100
AcDbEntity
  8
0
 62
256
370
-1
 48
1.0
  6
BYLAYER
100
AcDbCircle
 10
176.25
 20
226.75
 30
0.0
 40
3.0
100
AcDbArc
 50
48.5903778907290373
 51
221.4096221092709413
  0
ARC
  5
1C7
100
AcDbEntity
  8
0
 62
256
370
-1
 48
1.0
  6
BYLAYER
100
AcDbCircle
 10
15.75
 20
226.75
 30
0.0
 40
3.0
100
AcDbArc
 50
318.5903778907289734
 51
131.4096221092708845
  0
ARC
  5
1C8
100
AcDbEntity
  8
0
 62
256
370
-1
 48
1.0
  6
BYLAYER
100
AcDbCircle
 10
361.25
 20
226.75
 30
0.0
 40
3.0
100
AcDbArc
 50
48.5903778907294424
 51
221.4096221092709413
  0
HATCH
  5
1C9
100
AcDbEntity
  8
0
 62
5
420
255
370
-1
 48
1.0
  6
BYLAYER
100
AcDbHatch
 10
0.0
 20
0.0
 30
0.0
210
0.0
220
0.0
230
1.0
  2
SOLID
 70
1
 71
0
 91
1
 92
1
 93
8
 72
1
 10
79.0
 20
156.0
 11
82.0
 21
156.0
 72
2
 10
85.0
 20
156.0
 40
3.0
 50
180.0
 51
90.0
 73
0
 72
1
 10
85.0
 20
153.0
 11
85.0
 21
39.0
 72
2
 10
85.0
 20
36.0
 40
3.0
 50
270.0
 51
180.0
 73
0
 72
1
 10
82.0
 20
36.0
 11
79.0
 21
36.0
 72
2
 10
79.0
 20
39.0
 40
3.0
 50
90.0
 51
180.0
 73
0
 72
1
 10
76.0
 20
39.0
 11
76.0
 21
153.0
 72
2
 10
79.0
 20
153.0
 40
3.0
 50
180.0
 51
270.0
 73
0
 97
0
 75
0
 76
1
 98
0
1001
ACAD
1010
0.0
1020
0.0
1030
0
  0
HATCH
  5
1CA
100
AcDbEntity
  8
0
 62
5
420
255
370
-1
 48
1.0
  6
BYLAYER
100
AcDbHatch
 10
0.0
 20
0.0
 30
0.0
210
0.0
220
0.0
230
1.0
  2
SOLID
 70
1
 71
0
 91
1
 92
1
 93
8
 72
1
 10
30.0
 20
156.0
 11
33.0
 21
156.0
 72
2
 10
33.0
 20
153.0
 40
3.0
 50
270.0
 51
360.0
 73
0
 72
1
 10
36.0
 20
153.0
 11
36.0
 21
39.0
 72
2
 10
33.0
 20
39.0
 40
3.0
 50
360.0
 51
90.0
 73
0
 72
1
 10
33.0
 20
36.0
 11
30.0
 21
36.0
 72
2
 10
27.0
 20
36.0
 40
3.0
 50
360.0
 51
270.0
 73
0
 72
1
 10
27.0
 20
39.0
 11
27.0
 21
153.0
 72
2
 10
27.0
 20
156.0
 40
3.0
 50
90.0
 51
360.0
 73
0
 97
0
 75
0
 76
1
 98
0
1001
ACAD
1010
0.0
1020
0.0
1030
0
  0
HATCH
  5
1CB
100
AcDbEntity
  8
0
 62
5
420
255
370
-1
 48
1.0
  6
BYLAYER
100
AcDbHatch
 10
0.0
 20
0.0
 30
0.0
210
0.0
220
0.0
230
1.0
  2
SOLID
 70
1
 71
0
 91
1
 92
1
 93
8
 72
2
 10
30.0
 20
24.0
 40
3.0
 50
90.0
 51
180.0
 73
1
 72
1
 10
27.0
 20
24.0
 11
27.0
 21
21.747115129195123
 72
2
 10
27.8786796564403581
 20
18.8786796564403581
 40
3.0
 50
107.0312484582234589
 51
342.9687515417757595
 73
1
 72
1
 10
30.7471151291949738
 20
18.0
 11
81.252884870804877
 21
18.0
 72
2
 10
84.1213203435596455
 20
18.8786796564403581
 40
3.0
 50
197.0312484582234163
 51
72.9687515417766406
 73
1
 72
1
 10
85.0
 20
21.7471151291951266
 11
85.0
 21
24.0
 72
2
 10
82.0
 20
24.0
 40
3.0
 50
0.0
 51
90.0
 73
1
 72
1
 10
82.0
 20
27.0
 11
30.0
 21
27.0
 97
0
 75
0
 76
1
 98
0
1001
ACAD
1010
0.0
1020
0.0
1030
0
  0
HATCH
  5
1CC
100
AcDbEntity
  8
0
 62
5
420
255
370
-1
 48
1.0
  6
BYLAYER
100
AcDbHatch
 10
0.0
 20
0.0
 30
0.0
210
0.0
220
0.0
230
1.0
  2
SOLID
 70
1
 71
0
 91
1
 92
1
 93
8
 72
1
 10
30.7471151291951195
 20
174.0
 11
81.2528848708050191
 21
174.0
 72
2
 10
84.1213203435596455
 20
173.1213203435596313
 40
3.0
 50
197.031248458224411
 51
72.9687515417765553
 73
0
 72
1
 10
85.0
 20
170.252884870804877
 11
85.0
 21
168.0
 72
2
 10
82.0
 20
168.0
 40
3.0
 50
360.0
 51
90.0
 73
0
 72
1
 10
82.0
 20
165.0
 11
30.0
 21
165.0
 72
2
 10
30.0
 20
168.0
 40
3.0
 50
90.0
 51
180.0
 73
0
 72
1
 10
27.0
 20
168.0
 11
27.0
 21
170.252884870804877
 72
2
 10
27.8786796564403581
 20
173.1213203435596313
 40
3.0
 50
107.0312484582235442
 51
342.9687515417763279
 73
0
 97
0
 75
0
 76
1
 98
0
1001
ACAD
1010
0.0
1020
0.0
1030
0
  0
HATCH
  5
1CD
100
AcDbEntity
  8
0
 62
4
420
65535
370
-1
 48
1.0
  6
BYLAYER
100
AcDbHatch
 10
0.0
 20
0.0
 30
0.0
210
0.0
220
0.0
230
1.0
  2
SOLID
 70
1
 71
0
 91
1
 92
1
 93
8
 72
1
 10
15.0
 20
18.0
 11
12.0
 21
18.0
 72
2
 10
9.0
 20
18.0
 40
3.0
 50
360.0
 51
270.0
 73
0
 72
1
 10
9.0
 20
21.0
 11
9.0
 21
171.0
 72
2
 10
9.0
 20
174.0
 40
3.0
 50
90.0
 51
360.0
 73
0
 72
1
 10
12.0
 20
174.0
 11
15.0
 21
174.0
 72
2
 10
15.0
 20
171.0
 40
3.0
 50
270.0
 51
360.0
 73
0
 72
1
 10
18.0
 20
171.0
 11
18.0
 21
21.0
 72
2
 10
15.0
 20
21.0
 40
3.0
 50
360.0
 51
90.0
 73
0
 97
0
 75
0
 76
1
 98
0
1001
ACAD
1010
0.0
1020
0.0
1030
0
  0
HATCH
  5
1CE
100
AcDbEntity
  8
0
 62
4
420
65535
370
-1
 48
1.0
  6
BYLAYER
100
AcDbHatch
 10
0.0
 20
0.0
 30
0.0
210
0.0
220
0.0
230
1.0
  2
SOLID
 70
1
 71
0
 91
1
 92
1
 93
6
 72
2
 10
94.0
 20
9.0
 40
3.0
 50
270.0
 51
180.0
 73
1
 72
1
 10
91.0
 20
9.0
 11
21.0
 21
9.0
 72
2
 10
18.0
 20
9.0
 40
3.0
 50
0.0
 51
270.0
 73
1
 72
1
 10
18.0
 20
6.0
 11
18.0
 21
0.0
 72
1
 10
18.0
 20
0.0
 11
94.0
 21
0.0
 72
1
 10
94.0
 20
0.0
 11
94.0
 21
6.0
 97
0
 75
0
 76
1
 98
0
1001
ACAD
1010
0.0
1020
0.0
1030
0
  0
HATCH
  5
1CF
100
AcDbEntity
  8
0
 62
4
420
65535
370
-1
 48
1.0
  6
BYLAYER
100
AcDbHatch
 10
0.0
 20
0.0
 30
0.0
210
0.0
220
0.0
230
1.0
  2
SOLID
 70
1
 71
0
 91
1
 92
1
 93
8
 72
1
 10
94.0
 20
21.0
 11
94.0
 21
171.0
 72
2
 10
97.0
 20
171.0
 40
3.0
 50
180.0
 51
270.0
 73
0
 72
1
 10
97.0
 20
174.0
 11
100.0
 21
174.0
 72
2
 10
103.0
 20
174.0
 40
3.0
 50
180.0
 51
90.0
 73
0
 72
1
 10
103.0
 20
171.0
 11
103.0
 21
21.0
 72
2
 10
103.0
 20
18.0
 40
3.0
 50
270.0
 51
180.0
 73
0
 72
1
 10
100.0
 20
18.0
 11
97.0
 21
18.0
 72
2
 10
97.0
 20
21.0
 40
3.0
 50
90.0
 51
180.0
 73
0
 97
0
 75
0
 76
1
 98
0
1001
ACAD
1010
0.0
1020
0.0
1030
0
  0
HATCH
  5
1D0
100
AcDbEntity
  8
0
 62
4
420
65535
370
-1
 48
1.0
  6
BYLAYER
100
AcDbHatch
 10
0.0
 20
0.0
 30
0.0
210
0.0
220
0.0
230
1.0
  2
SOLID
 70
1
 71
0
 91
1
 92
1
 93
6
 72
1
 10
91.0
 20
183.0
 11
21.0
 21
183.0
 72
2
 10
18.0
 20
183.0
 40
3.0
 50
360.0
 51
270.0
 73
0
 72
1
 10
18.0
 20
186.0
 11
18.0
 21
192.0
 72
1
 10
18.0
 20
192.0
 11
94.0
 21
192.0
 72
1
 10
94.0
 20
192.0
 11
94.0
 21
186.0
 72
2
 10
94.0
 20
183.0
 40
3.0
 50
270.0
 51
180.0
 73
0
 97
0
 75
0
 76
1
 98
0
1001
ACAD
1010
0.0
1020
0.0
1030
0
  0
DIMENSION
  5
1D1
100
AcDbEntity
  8
0
 62
256
370
-1
 48
1.0
  6
BYLAYER
100
AcDbDimension
 10
-40.0
 20
192.0
 30
0.0
 11
-41.875
 21
96.0
 31
0.0
 70
1
 71
8
 72
2
 74
0
 75
0
 41
1.0
 42
0.0
  1

  3
Standard
100
AcDbAlignedDimension
 13
-0.0
 23
192.0
 33
0.0
 14
-0.0
 24
-0.0
 34
0.0
1001
ACAD
1000
DSTYLE
1002
{
1070
144
1040
1.0
1070
40
1040
1.0
1002
}
  0
DIMENSION
  5
1D2
100
AcDbEntity
  8
0
 62
256
370
-1
 48
1.0
  6
BYLAYER
100
AcDbDimension
 10
0.0000000000000012
 20
-20.0
 30
0.0
 11
56.0
 21
-18.125
 31
0.0
 70
1
 71
8
 72
2
 74
0
 75
0
 41
1.0
 42
0.0
  1

  3
Standard
100
AcDbAlignedDimension
 13
-0.0
 23
-0.0
 33
0.0
 14
112.0
 24
-0.0
 34
0.0
1001
ACAD
1000
DSTYLE
1002
{
1070
144
1040
1.0
1070
40
1040
1.0
1002
}
  0
DIMENSION
  5
1D3
100
AcDbEntity
  8
0
 62
256
370
-1
 48
1.0
  6
BYLAYER
100
AcDbDimension
 10
0.0000000000000019
 20
390.0
 30
0.0
 11
96.0
 21
391.875
 31
0.0
 70
1
 71
8
 72
2
 74
0
 75
0
 41
1.0
 42
0.0
  1

  3
Standard
100
AcDbAlignedDimension
 13
-0.0
 23
359.0
 33
0.0
 14
192.0
 24
359.0
 34
0.0
1001
ACAD
1000
DSTYLE
1002
{
1070
144
1040
1.0
1070
40
1040
1.0
1002
}
  0
DIMENSION
  5
1D4
100
AcDbEntity
  8
0
 62
256
370
-1
 48
1.0
  6
BYLAYER
100
AcDbDimension
 10
-20.0
 20
359.0
 30
0.0
 11
-21.875
 21
289.5
 31
0.0
 70
0
 71
8
 72
2
 74
0
 75
0
 41
1.0
 42
0.0
  1

  3
Standard
100
AcDbAlignedDimension
 13
-0.0
 23
359.0
 33
0.0
 14
18.0
 24
220.0
 34
0.0
 50
90.0
100
AcDbRotatedDimension
1001
ACAD
1000
DSTYLE
1002
{
1070
144
1040
1.0
1070
40
1040
1.0
1002
}
  0
DIMENSION
  5
1D5
100
AcDbEntity
  8
0
 62
256
370
-1
 48
1.0
  6
BYLAYER
100
AcDbDimension
 10
390.0
 20
359.0
 30
0.0
 11
388.125
 21
289.5
 31
0.0
 70
0
 71
8
 72
2
 74
0
 75
0
 41
1.0
 42
0.0
  1

  3
Standard
100
AcDbAlignedDimension
 13
368.0
 23
359.0
 33
0.0
 14
359.0
 24
220.0
 34
0.0
 50
90.0
100
AcDbRotatedDimension
1001
ACAD
1000
DSTYLE
1002
{
1070
144
1040
1.0
1070
40
1040
1.0
1002
}
  0
DIMENSION
  5
1D6
100
AcDbEntity
  8
0
 62
256
370
-1
 48
1.0
  6
BYLAYER
100
AcDbDimension
 10
230.0
 20
390.0
 30
0.0
 11
299.0
 21
391.875
 31
0.0
 70
1
 71
8
 72
2
 74
0
 75
0
 41
1.0
 42
0.0
  1

  3
Standard
100
AcDbAlignedDimension
 13
230.0
 23
359.0
 33
0.0
 14
368.0
 24
359.0
 34
0.0
1001
ACAD
1000
DSTYLE
1002
{
1070
144
1040
1.0
1070
40
1040
1.0
1002
}
  0
DIMENSION
  5
1D7
100
AcDbEntity
  8
0
 62
256
370
-1
 48
1.0
  6
BYLAYER
100
AcDbDimension
 10
130.0
 20
200.0
 30
0.0
 11
199.5
 21
201.875
 31
0.0
 70
0
 71
8
 72
2
 74
0
 75
0
 41
1.0
 42
0.0
  1

  3
Standard
100
AcDbAlignedDimension
 13
130.0
 23
181.0
 33
0.0
 14
269.0
 24
190.0
 34
0.0
 50
0.0
100
AcDbRotatedDimension
1001
ACAD
1000
DSTYLE
1002
{
1070
144
1040
1.0
1070
40
1040
1.0
1002
}
  0
DIMENSION
  5
1D8
100
AcDbEntity
  8
0
 62
256
370
-1
 48
1.0
  6
BYLAYER
100
AcDbDimension
 10
130.0
 20
-20.0
 30
0.0
 11
199.5
 21
-18.125
 31
0.0
 70
0
 71
8
 72
2
 74
0
 75
0
 41
1.0
 42
0.0
  1

  3
Standard
100
AcDbAlignedDimension
 13
130.0
 23
13.0
 33
0.0
 14
269.0
 24
4.0
 34
0.0
 50
0.0
100
AcDbRotatedDimension
1001
ACAD
1000
DSTYLE
1002
{
1070
144
1040
1.0
1070
40
1040
1.0
1002
}
  0
DIMENSION
  5
1D9
100
AcDbEntity
  8
0
 62
256
370
-1
 48
1.0
  6
BYLAYER
100
AcDbDimension
 10
280.0
 20
-20.0
 30
0.0
 11
349.5
 21
-18.125
 31
0.0
 70
0
 71
8
 72
2
 74
0
 75
0
 41
1.0
 42
0.0
  1

  3
Standard
100
AcDbAlignedDimension
 13
280.0
 23
13.0
 33
0.0
 14
419.0
 24
4.0
 34
0.0
 50
0.0
100
AcDbRotatedDimension
1001
ACAD
1000
DSTYLE
1002
{
1070
144
1040
1.0
1070
40
1040
1.0
1002
}
  0
DIMENSION
  5
1DA
100
AcDbEntity
  8
0
 62
256
370
-1
 48
1.0
  6
BYLAYER
100
AcDbDimension
 10
280.0
 20
200.0
 30
0.0
 11
349.5
 21
201.875
 31
0.0
 70
0
 71
8
 72
2
 74
0
 75
0
 41
1.0
 42
0.0
  1

  3
Standard
100
AcDbAlignedDimension
 13
280.0
 23
181.0
 33
0.0
 14
419.0
 24
190.0
 34
0.0
 50
0.0
100
AcDbRotatedDimension
1001
ACAD
1000
DSTYLE
1002
{
1070
144
1040
1.0
1070
40
1040
1.0
1002
}
  0
DIMENSION
  5
1DB
100
AcDbEntity
  8
0
 62
256
370
-1
 48
1.0
  6
BYLAYER
100
AcDbDimension
 10
463.1267345003453784
 20
4.0
 30
0.0
 11
461.2517345003453784
 21
42.0
 31
0.0
 70
1
 71
8
 72
2
 74
0
 75
0
 41
1.0
 42
0.0
  1

  3
Standard
100
AcDbAlignedDimension
 13
419.0
 23
4.0
 33
0.0
 14
419.0
 24
80.0
 34
0.0
1001
ACAD
1000
DSTYLE
1002
{
1070
144
1040
1.0
1070
40
1040
1.0
1002
}
  0
DIMENSION
  5
1DC
100
AcDbEntity
  8
0
 62
256
370
-1
 48
1.0
  6
BYLAYER
100
AcDbDimension
 10
122.581231268345519
 20
4.0000000000000018
 30
0.0
 11
120.706231268345519
 21
42.0
 31
0.0
 70
1
 71
8
 72
2
 74
0
 75
0
 41
1.0
 42
0.0
  1

  3
Standard
100
AcDbAlignedDimension
 13
139.0
 23
4.0
 33
0.0
 14
139.0
 24
80.0
 34
0.0
1001
ACAD
1000
DSTYLE
1002
{
1070
144
1040
1.0
1070
40
1040
1.0
1002
}
  0
DIMENSION
  5
1DD
100
AcDbEntity
  8
0
 62
256
370
-1
 48
1.0
  6
BYLAYER
100
AcDbDimension
 10
123.441194660345559
 20
96.0
 30
0.0
 11
121.566194660345559
 21
143.0
 31
0.0
 70
1
 71
8
 72
2
 74
0
 75
0
 41
1.0
 42
0.0
  1

  3
Standard
100
AcDbAlignedDimension
 13
139.0
 23
96.0
 33
0.0
 14
139.0
 24
190.0000000000000284
 34
0.0
1001
ACAD
1000
DSTYLE
1002
{
1070
144
1040
1.0
1070
40
1040
1.0
1002
}
  0
DIMENSION
  5
1DE
100
AcDbEntity
  8
0
 62
256
370
-1
 48
1.0
  6
BYLAYER
100
AcDbDimension
 10
463.1267345003453784
 20
96.0
 30
0.0
 11
461.2517345003453784
 21
143.0
 31
0.0
 70
1
 71
8
 72
2
 74
0
 75
0
 41
1.0
 42
0.0
  1

  3
Standard
100
AcDbAlignedDimension
 13
419.0
 23
96.0
 33
0.0
 14
419.0
 24
190.0
 34
0.0
1001
ACAD
1000
DSTYLE
1002
{
1070
144
1040
1.0
1070
40
1040
1.0
1002
}
  0
DIMENSION
  5
1DF
100
AcDbEntity
  8
0
 62
256
370
-1
 48
1.0
  6
BYLAYER
100
AcDbDimension
 10
0.0000000000000007
 20
370.0
 30
0.0
 11
4.5
 21
371.875
 31
0.0
 70
1
 71
8
 72
2
 74
0
 75
0
 41
1.0
 42
0.0
  1

  3
Standard
100
AcDbAlignedDimension
 13
-0.0
 23
359.0
 33
0.0
 14
9.0
 24
359.0
 34
0.0
1001
ACAD
1000
DSTYLE
1002
{
1070
144
1040
1.0
1070
40
1040
1.0
1002
}
  0
DIMENSION
  5
1E0
100
AcDbEntity
  8
0
 62
256
370
-1
 48
1.0
  6
BYLAYER
100
AcDbDimension
 10
9.0
 20
370.0
 30
0.0
 11
13.5
 21
371.875
 31
0.0
 70
1
 71
8
 72
2
 74
0
 75
0
 41
1.0
 42
0.0
  1

  3
Standard
100
AcDbAlignedDimension
 13
9.0
 23
359.0
 33
0.0
 14
18.0
 24
359.0
 34
0.0
1001
ACAD
1000
DSTYLE
1002
{
1070
144
1040
1.0
1070
40
1040
1.0
1002
}
  0
DIMENSION
  5
1E1
100
AcDbEntity
  8
0
 62
256
370
-1
 48
1.0
  6
BYLAYER
100
AcDbDimension
 10
18.0
 20
370.0
 30
0.0
 11
22.5
 21
371.875
 31
0.0
 70
1
 71
8
 72
2
 74
0
 75
0
 41
1.0
 42
0.0
  1

  3
Standard
100
AcDbAlignedDimension
 13
18.0
 23
359.0
 33
0.0
 14
27.0
 24
359.0
 34
0.0
1001
ACAD
1000
DSTYLE
1002
{
1070
144
1040
1.0
1070
40
1040
1.0
1002
}
  0
DIMENSION
  5
1E2
100
AcDbEntity
  8
0
 62
256
370
-1
 48
1.0
  6
BYLAYER
100
AcDbDimension
 10
248.0
 20
365.6354741889152251
 30
0.0
 11
252.0
 21
367.5104741889152251
 31
0.0
 70
1
 71
8
 72
2
 74
0
 75
0
 41
1.0
 42
0.0
  1

  3
Standard
100
AcDbAlignedDimension
 13
248.0
 23
359.0
 33
0.0
 14
256.0
 24
359.0
 34
0.0
1001
ACAD
1000
DSTYLE
1002
{
1070
144
1040
1.0
1070
40
1040
1.0
1002
}
  0
DIMENSION
  5
1E3
100
AcDbEntity
  8
0
 62
256
370
-1
 48
1.0
  6
BYLAYER
100
AcDbDimension
 10
379.0
 20
220.0
 30
0.0
 11
377.125
 21
224.5
 31
0.0
 70
1
 71
8
 72
2
 74
0
 75
0
 41
1.0
 42
0.0
  1

  3
Standard
100
AcDbAlignedDimension
 13
359.0
 23
220.0
 33
0.0
 14
359.0
 24
229.0000000000000284
 34
0.0
1001
ACAD
1000
DSTYLE
1002
{
1070
144
1040
1.0
1070
40
1040
1.0
1002
}
  0
DIMENSION
  5
1E4
100
AcDbEntity
  8
0
 62
256
370
-1
 48
1.0
  6
BYLAYER
100
AcDbDimension
 10
244.8367349154306964
 20
123.921470670429855
 30
0.0
 11
245.7009191690186469
 21
127.3520406778558112
 31
0.0
 70
3
 71
8
 72
2
 74
0
 75
0
 41
1.0
 42
0.0
  1

  3
Standard
100
AcDbDiametricDimension
 15
249.1632650845693036
 25
128.0785293295701592
 35
0.0
 40
0.0
1001
ACAD
1000
DSTYLE
1002
{
1070
144
1040
1.0
1070
40
1040
1.0
1002
}
  0
DIMENSION
  5
1E5
100
AcDbEntity
  8
0
 62
256
370
-1
 48
1.0
  6
BYLAYER
100
AcDbDimension
 10
134.5487179779455005
 20
181.2117759055050783
 30
0.0
 11
135.4761099409406597
 21
184.6258012637840693
 31
0.0
 70
3
 71
8
 72
2
 74
0
 75
0
 41
1.0
 42
0.0
  1

  3
Standard
100
AcDbDiametricDimension
 15
138.9512820220544995
 25
185.2882240944949217
 35
0.0
 40
0.0
1001
ACAD
1000
DSTYLE
1002
{
1070
144
1040
1.0
1070
40
1040
1.0
1002
}
  0
DIMENSION
  5
1E6
100
AcDbEntity
  8
0
 62
256
370
-1
 48
1.0
  6
BYLAYER
100
AcDbDimension
 10
96.4000000000000057
 20
184.8000000000000114
 30
0.0
 11
92.875
 21
184.5
 31
0.0
 70
3
 71
8
 72
2
 74
0
 75
0
 41
1.0
 42
0.0
  1

  3
Standard
100
AcDbDiametricDimension
 15
91.5999999999999943
 25
181.1999999999999886
 35
0.0
 40
0.0
1001
ACAD
1000
DSTYLE
1002
{
1070
144
1040
1.0
1070
40
1040
1.0
1002
}
  0
DIMENSION
  5
1E7
100
AcDbEntity
  8
0
 62
9
420
12632256
370
-1
 48
1.0
  6
BYLAYER
100
AcDbDimension
 10
164.4148429492793753
 20
46.7609105486144259
 30
0.0
 11
156.9009230977350171
 21
43.4357589032653451
 31
0.0
 70
3
 71
8
 72
2
 74
0
 75
0
 41
1.0
 42
0.0
  1

  3
Standard
100
AcDbDiametricDimension
 15
151.6470252531948972
 25
37.1181499853964638
 35
0.0
 40
0.0
1001
ACAD
1000
DSTYLE
1002
{
1070
144
1040
1.0
1070
40
1040
1.0
1002
}
  0
DIMENSION
  5
1E8
100
AcDbEntity
  8
0
 62
256
370
-1
 48
1.0
  6
BYLAYER
100
AcDbDimension
 10
161.6106146120736753
 20
146.4587612068565363
 30
0.0
 11
156.7030033286947059
 21
144.3537727291561055
 31
0.0
 70
3
 71
8
 72
2
 74
0
 75
0
 41
1.0
 42
0.0
  1

  3
Standard
100
AcDbDiametricDimension
 15
154.3895899909382479
 25
139.5409000185298964
 35
0.0
 40
0.0
1001
ACAD
1000
DSTYLE
1002
{
1070
144
1040
1.0
1070
40
1040
1.0
1002
}
  0
LINE
  5
1E9
100
AcDbEntity
  8
0
 62
256
370
-1
 48
1.0
  6
BYLAYER
100
AcDbLine
 10
251.0
 20
323.0002701307641928
 30
0.0
 11
251.9999999999998863
 21
323.0002701307641928
 31
0.0
  0
LINE
  5
1EA
100
AcDbEntity
  8
0
 62
256
370
-1
 48
1.0
  6
BYLAYER
100
AcDbLine
 10
252.9999999999999147
 20
323.0002701307641928
 30
0.0
 11
251.9999999999998863
 21
323.0002701307641928
 31
0.0
  0
LINE
  5
1EB
100
AcDbEntity
  8
0
 62
256
370
-1
 48
1.0
  6
BYLAYER
100
AcDbLine
 10
280.3000000000000114
 20
323.0002701307637381
 30
0.0
 11
281.2999999999998977
 21
323.0002701307637381
 31
0.0
  0
LINE
  5
1EC
100
AcDbEntity
  8
0
 62
256
370
-1
 48
1.0
  6
BYLAYER
100
AcDbLine
 10
282.3000000000000114
 20
323.0002701307637381
 30
0.0
 11
281.2999999999998977
 21
323.0002701307637381
 31
0.0
  0
LINE
  5
1ED
100
AcDbEntity
  8
0
 62
256
370
-1
 48
1.0
  6
BYLAYER
100
AcDbLine
 10
315.6999999999999886
 20
323.0002701307640791
 30
0.0
 11
316.6999999999999318
 21
323.0002701307640791
 31
0.0
  0
LINE
  5
1EE
100
AcDbEntity
  8
0
 62
256
370
-1
 48
1.0
  6
BYLAYER
100
AcDbLine
 10
317.6999999999999886
 20
323.0002701307640791
 30
0.0
 11
316.6999999999999318
 21
323.0002701307640791
 31
0.0
  0
LINE
  5
1EF
100
AcDbEntity
  8
0
 62
256
370
-1
 48
1.0
  6
BYLAYER
100
AcDbLine
 10
345.0000000000000568
 20
323.0002701307640791
 30
0.0
 11
345.9999999999998863
 21
323.0002701307640791
 31
0.0
  0
LINE
  5
1F0
100
AcDbEntity
  8
0
 62
256
370
-1
 48
1.0
  6
BYLAYER
100
AcDbLine
 10
347.0
 20
323.0002701307640791
 30
0.0
 11
345.9999999999998863
 21
323.0002701307640791
 31
0.0
  0
ARC
  5
1F1
100
AcDbEntity
  8
0
 62
256
370
-1
 48
1.0
  6
BYLAYER
100
AcDbCircle
 10
251.0
 20
326.0002701307641928
 30
0.0
 40
3.0
100
AcDbArc
 50
171.0852506145362213
 51
278.9049256691373557
  0
ARC
  5
1F2
100
AcDbEntity
  8
0
 62
256
370
-1
 48
1.0
  6
BYLAYER
100
AcDbCircle
 10
252.9999999999999147
 20
326.0002701307641928
 30
0.0
 40
3.0
100
AcDbArc
 50
261.0782174658158397
 51
8.9118535158785814
  0
ARC
  5
1F3
100
AcDbEntity
  8
0
 62
256
370
-1
 48
1.0
  6
BYLAYER
100
AcDbCircle
 10
280.3000000000000114
 20
326.0002701307637381
 30
0.0
 40
3.0
100
AcDbArc
 50
171.0852506145373013
 51
278.9098808895765842
  0
ARC
  5
1F4
100
AcDbEntity
  8
0
 62
256
370
-1
 48
1.0
  6
BYLAYER
100
AcDbCircle
 10
282.3000000000000114
 20
326.0002701307637381
 30
0.0
 40
3.0
100
AcDbArc
 50
261.0782174658152712
 51
8.9195686203800779
  0
ARC
  5
1F5
100
AcDbEntity
  8
0
 62
256
370
-1
 48
1.0
  6
BYLAYER
100
AcDbCircle
 10
315.6999999999999886
 20
326.0002701307640791
 30
0.0
 40
3.0
100
AcDbArc
 50
171.0852506145340612
 51
278.9098808895765842
  0
ARC
  5
1F6
100
AcDbEntity
  8
0
 62
256
370
-1
 48
1.0
  6
BYLAYER
100
AcDbCircle
 10
317.6999999999999886
 20
326.0002701307640791
 30
0.0
 40
3.0
100
AcDbArc
 50
261.0782174658152712
 51
8.9195686203766726
  0
ARC
  5
1F7
100
AcDbEntity
  8
0
 62
256
370
-1
 48
1.0
  6
BYLAYER
100
AcDbCircle
 10
345.0000000000000568
 20
326.0002701307640791
 30
0.0
 40
3.0
100
AcDbArc
 50
171.0852506145417919
 51
278.9217825341823982
  0
ARC
  5
1F8
100
AcDbEntity
  8
0
 62
256
370
-1
 48
1.0
  6
BYLAYER
100
AcDbCircle
 10
347.0
 20
326.0002701307640791
 30
0.0
 40
3.0
100
AcDbArc
 50
261.0782174658152712
 51
8.9147493854769841
  0
DIMENSION
  5
1F9
100
AcDbEntity
  8
0
 62
256
370
-1
 48
1.0
  6
BYLAYER
100
AcDbDimension
 10
251.0
 20
326.0002701307641928
 30
0.0
 11
245.3923502045827263
 21
323.0439816031715168
 31
0.0
 70
4
 71
8
 72
2
 74
0
 41
1.0
 42
0.0
  1

  3
Standard
100
AcDbRadialDimension
 15
248.8787512844666878
 25
323.8788781615967309
 35
0.0
 40
0.0
1001
ACAD
1000
DSTYLE
1002
{
1070
144
1040
1.0
1070
40
1040
1.0
1002
}
  0
DIMENSION
  5
1FA
100
AcDbEntity
  8
0
 62
256
370
-1
 48
1.0
  6
BYLAYER
100
AcDbDimension
 10
252.9999999999999147
 20
326.0002701307641928
 30
0.0
 11
258.6076497954172169
 21
323.0439816031715168
 31
0.0
 70
4
 71
8
 72
2
 74
0
 41
1.0
 42
0.0
  1

  3
Standard
100
AcDbRadialDimension
 15
255.1212487155332553
 25
323.8788781615967309
 35
0.0
 40
0.0
1001
ACAD
1000
DSTYLE
1002
{
1070
144
1040
1.0
1070
40
1040
1.0
1002
}
  0
ENDSEC
  0
SECTION
  2
OBJECTS
  0
DICTIONARY
  5
C
100
AcDbDictionary
280
0
281
1
  3
ACAD_GROUP
350
D
  3
ACAD_LAYOUT
350
1A
  3
ACAD_MLINESTYLE
350
17
  3
ACAD_PLOTSETTINGS
350
19
  3
ACAD_PLOTSTYLENAME
350
E
  3
AcDbVariableDictionary
350
1FB
  3
QCAD_OBJECTS
350
1FC
  0
DICTIONARY
  5
D
100
AcDbDictionary
280
0
281
1
  0
ACDBDICTIONARYWDFLT
  5
E
100
AcDbDictionary
281
1
  3
Normal
350
F
100
AcDbDictionaryWithDefault
340
F
  0
ACDBPLACEHOLDER
  5
F
  0
DICTIONARY
  5
17
100
AcDbDictionary
280
0
281
1
  3
Standard
350
18
  0
MLINESTYLE
  5
18
100
AcDbMlineStyle
  2
STANDARD
 70
0
  3

 62
256
 51
90.0
 52
90.0
 71
2
 49
0.5
 62
256
  6
BYLAYER
 49
-0.5
 62
256
  6
BYLAYER
  0
DICTIONARY
  5
19
100
AcDbDictionary
280
0
281
1
  0
DICTIONARY
  5
1A
100
AcDbDictionary
281
1
  3
Layout1
350
1E
  3
Layout2
350
26
  3
Model
350
22
  0
LAYOUT
  5
1E
100
AcDbPlotSettings
  1

  2
none_device
  4

  6

 40
0.0
 41
0.0
 42
0.0
 43
0.0
 44
0.0
 45
0.0
 46
0.0
 47
0.0
 48
0.0
 49
0.0
140
0.0
141
0.0
142
1.0
143
1.0
 70
688
 72
0
 73
0
 74
5
  7

 75
16
147
1.0
148
0.0
149
0.0
100
AcDbLayout
  1
Layout1
 70
1
 71
1
 10
0.0
 20
0.0
 11
420.0
 21
297.0
 12
0.0
 22
0.0
 32
0.0
 14
100000000000000000000.0
 24
100000000000000000000.0
 34
100000000000000000000.0
 15
-100000000000000000000.0
 25
-100000000000000000000.0
 35
-100000000000000000000.0
146
0.0
 13
0.0
 23
0.0
 33
0.0
 16
1.0
 26
0.0
 36
0.0
 17
0.0
 27
1.0
 37
0.0
 76
0
330
1B
  0
LAYOUT
  5
22
100
AcDbPlotSettings
  1

  2
none_device
  4

  6

 40
0.0
 41
0.0
 42
0.0
 43
0.0
 44
0.0
 45
0.0
 46
0.0
 47
0.0
 48
0.0
 49
0.0
140
0.0
141
0.0
142
1.0
143
1.0
 70
1712
 72
0
 73
0
 74
0
  7

 75
0
147
1.0
148
0.0
149
0.0
100
AcDbLayout
  1
Model
 70
1
 71
0
 10
0.0
 20
0.0
 11
12.0
 21
9.0
 12
0.0
 22
0.0
 32
0.0
 14
0.0
 24
0.0
 34
0.0
 15
0.0
 25
0.0
 35
0.0
146
0.0
 13
0.0
 23
0.0
 33
0.0
 16
1.0
 26
0.0
 36
0.0
 17
0.0
 27
1.0
 37
0.0
 76
0
330
1F
  0
LAYOUT
  5
26
100
AcDbPlotSettings
  1

  2
none_device
  4

  6

 40
0.0
 41
0.0
 42
0.0
 43
0.0
 44
0.0
 45
0.0
 46
0.0
 47
0.0
 48
0.0
 49
0.0
140
0.0
141
0.0
142
1.0
143
1.0
 70
688
 72
0
 73
0
 74
5
  7

 75
16
147
1.0
148
0.0
149
0.0
100
AcDbLayout
  1
Layout2
 70
1
 71
2
 10
0.0
 20
0.0
 11
12.0
 21
9.0
 12
0.0
 22
0.0
 32
0.0
 14
0.0
 24
0.0
 34
0.0
 15
0.0
 25
0.0
 35
0.0
146
0.0
 13
0.0
 23
0.0
 33
0.0
 16
1.0
 26
0.0
 36
0.0
 17
0.0
 27
1.0
 37
0.0
 76
0
330
23
  0
DICTIONARY
  5
1FB
100
AcDbDictionary
281
1
  3
DIMASSOC
350
1FE
  3
HIDETEXT
350
1FD
  0
DICTIONARYVAR
  5
1FD
100
DictionaryVariables
280
0
  1
2
  0
DICTIONARYVAR
  5
1FE
100
DictionaryVariables
280
0
  1
1
  0
DICTIONARY
  5
1FC
100
AcDbDictionary
281
1
  3
ColorSettings/BackgroundColor
350
1FF
  3
ColorSettings/ColorMode
350
200
  3
Grid/DisplayGrid00
350
201
  3
Grid/DisplayGrid01
350
202
  3
Grid/DisplayGrid02
350
203
  3
Grid/DisplayGrid03
350
204
  3
Grid/GridSpacingX00
350
205
  3
Grid/GridSpacingX01
350
206
  3
Grid/GridSpacingX02
350
207
  3
Grid/GridSpacingX03
350
208
  3
Grid/GridSpacingY00
350
209
  3
Grid/GridSpacingY01
350
20A
  3
Grid/GridSpacingY02
350
20B
  3
Grid/GridSpacingY03
350
20C
  3
Grid/IsometricGrid00
350
20D
  3
Grid/IsometricGrid01
350
20E
  3
Grid/IsometricGrid02
350
20F
  3
Grid/IsometricGrid03
350
210
  3
Grid/IsometricProjection00
350
211
  3
Grid/IsometricProjection01
350
212
  3
Grid/IsometricProjection02
350
213
  3
Grid/IsometricProjection03
350
214
  3
Grid/MetaGridSpacingX00
350
215
  3
Grid/MetaGridSpacingX01
350
216
  3
Grid/MetaGridSpacingX02
350
217
  3
Grid/MetaGridSpacingX03
350
218
  3
Grid/MetaGridSpacingY00
350
219
  3
Grid/MetaGridSpacingY01
350
21A
  3
Grid/MetaGridSpacingY02
350
21B
  3
Grid/MetaGridSpacingY03
350
21C
  3
MultiPageSettings/Columns
350
21D
  3
MultiPageSettings/GlueMarginsBottom
350
21E
  3
MultiPageSettings/GlueMarginsLeft
350
21F
  3
MultiPageSettings/GlueMarginsRight
350
220
  3
MultiPageSettings/GlueMarginsTop
350
221
  3
MultiPageSettings/PrintCropMarks
350
222
  3
MultiPageSettings/Rows
350
223
  3
PageSettings/OffsetX
350
224
  3
PageSettings/OffsetY
350
225
  3
PageSettings/PageOrientation
350
226
  3
PageSettings/PaperHeight
350
227
  3
PageSettings/PaperWidth
350
228
  3
PageSettings/Scale
350
229
  3
PageSettings/ShowPaperBorders
350
22A
  3
QCADVersion
350
22B
  3
UnitSettings/PaperUnit
350
22C
  3
ViewportCenter
350
22D
  3
ViewportHeight
350
22E
  3
ViewportWidth
350
22F
  0
XRECORD
  5
1FF
330
1FC
100
AcDbXrecord
280
1
1000
White
  0
XRECORD
  5
200
330
1FC
100
AcDbXrecord
280
1
1000
FullColor
  0
XRECORD
  5
201
330
1FC
100
AcDbXrecord
280
1
290
1
  0
XRECORD
  5
202
330
1FC
100
AcDbXrecord
280
1
290
1
  0
XRECORD
  5
203
330
1FC
100
AcDbXrecord
280
1
290
1
  0
XRECORD
  5
204
330
1FC
100
AcDbXrecord
280
1
290
1
  0
XRECORD
  5
205
330
1FC
100
AcDbXrecord
280
1
1000
auto
  0
XRECORD
  5
206
330
1FC
100
AcDbXrecord
280
1
1000
auto
  0
XRECORD
  5
207
330
1FC
100
AcDbXrecord
280
1
1000
auto
  0
XRECORD
  5
208
330
1FC
100
AcDbXrecord
280
1
1000
auto
  0
XRECORD
  5
209
330
1FC
100
AcDbXrecord
280
1
1000
auto
  0
XRECORD
  5
20A
330
1FC
100
AcDbXrecord
280
1
1000
auto
  0
XRECORD
  5
20B
330
1FC
100
AcDbXrecord
280
1
1000
auto
  0
XRECORD
  5
20C
330
1FC
100
AcDbXrecord
280
1
1000
auto
  0
XRECORD
  5
20D
330
1FC
100
AcDbXrecord
280
1
290
0
  0
XRECORD
  5
20E
330
1FC
100
AcDbXrecord
280
1
290
0
  0
XRECORD
  5
20F
330
1FC
100
AcDbXrecord
280
1
290
0
  0
XRECORD
  5
210
330
1FC
100
AcDbXrecord
280
1
290
0
  0
XRECORD
  5
211
330
1FC
100
AcDbXrecord
280
1
 90
65537
  0
XRECORD
  5
212
330
1FC
100
AcDbXrecord
280
1
 90
65537
  0
XRECORD
  5
213
330
1FC
100
AcDbXrecord
280
1
 90
65537
  0
XRECORD
  5
214
330
1FC
100
AcDbXrecord
280
1
 90
65537
  0
XRECORD
  5
215
330
1FC
100
AcDbXrecord
280
1
1000
auto
  0
XRECORD
  5
216
330
1FC
100
AcDbXrecord
280
1
1000
auto
  0
XRECORD
  5
217
330
1FC
100
AcDbXrecord
280
1
1000
auto
  0
XRECORD
  5
218
330
1FC
100
AcDbXrecord
280
1
1000
auto
  0
XRECORD
  5
219
330
1FC
100
AcDbXrecord
280
1
1000
auto
  0
XRECORD
  5
21A
330
1FC
100
AcDbXrecord
280
1
1000
auto
  0
XRECORD
  5
21B
330
1FC
100
AcDbXrecord
280
1
1000
auto
  0
XRECORD
  5
21C
330
1FC
100
AcDbXrecord
280
1
1000
auto
  0
XRECORD
  5
21D
330
1FC
100
AcDbXrecord
280
1
 90
1
  0
XRECORD
  5
21E
330
1FC
100
AcDbXrecord
280
1
 40
10.0
  0
XRECORD
  5
21F
330
1FC
100
AcDbXrecord
280
1
 40
10.0
  0
XRECORD
  5
220
330
1FC
100
AcDbXrecord
280
1
 40
10.0
  0
XRECORD
  5
221
330
1FC
100
AcDbXrecord
280
1
 40
10.0
  0
XRECORD
  5
222
330
1FC
100
AcDbXrecord
280
1
290
0
  0
XRECORD
  5
223
330
1FC
100
AcDbXrecord
280
1
 90
1
  0
XRECORD
  5
224
330
1FC
100
AcDbXrecord
280
1
 40
0.0
  0
XRECORD
  5
225
330
1FC
100
AcDbXrecord
280
1
 40
0.0
  0
XRECORD
  5
226
330
1FC
100
AcDbXrecord
280
1
1000
Portrait
  0
XRECORD
  5
227
330
1FC
100
AcDbXrecord
280
1
 40
297.0
  0
XRECORD
  5
228
330
1FC
100
AcDbXrecord
280
1
 40
210.0
  0
XRECORD
  5
229
330
1FC
100
AcDbXrecord
280
1
1000
1:1
  0
XRECORD
  5
22A
330
1FC
100
AcDbXrecord
280
1
290
1
  0
XRECORD
  5
22B
330
1FC
100
AcDbXrecord
280
1
1000
3.22.0
  0
XRECORD
  5
22C
330
1FC
100
AcDbXrecord
280
1
 90
4
  0
XRECORD
  5
22E
330
1FC
100
AcDbXrecord
280
1
 40
169.7034239999999556
  0
XRECORD
  5
22F
330
1FC
100
AcDbXrecord
280
1
 40
244.8506879999999057
  0
ENDSEC
  0
EOF
