  0
SECTION
  2
BLOCKS
  0
ENDSEC
  0
SECTION
  2
ENTITIES
  0
LINE
  8
0
 10
174
 20
359
 11
192
 21
359
  0
LINE
  8
0
 10
192
 20
359
 11
192
 21
489
  0
LINE
  8
0
 10
192
 20
489
 11
0
 21
489
  0
LINE
  8
0
 10
0
 20
489
 11
0
 21
359
  0
LINE
  8
0
 10
0
 20
359
 11
18
 21
359
  0
LINE
  8
0
 10
18
 20
359
 11
18
 21
350
  0
LINE
  8
0
 10
18
 20
350
 11
174
 21
350
  0
LINE
  8
0
 10
174
 20
350
 11
174
 21
359
  0
LINE
  8
0
 10
359
 20
359
 11
368
 21
359
  0
LINE
  8
0
 10
368
 20
359
 11
368
 21
489
  0
LINE
  8
0
 10
368
 20
489
 11
230
 21
489
  0
LINE
  8
0
 10
230
 20
489
 11
230
 21
359
  0
LINE
  8
0
 10
230
 20
359
 11
239
 21
359
  0
LINE
  8
0
 10
239
 20
359
 11
239
 21
350
  0
LINE
  8
0
 10
239
 20
350
 11
359
 21
350
  0
LINE
  8
0
 10
359
 20
350
 11
359
 21
359
  0
LINE
  8
0
 10
359
 20
209
 11
368
 21
209
  0
LINE
  8
0
 10
368
 20
209
 11
368
 21
339
  0
LINE
  8
0
 10
368
 20
339
 11
230
 21
339
  0
LINE
  8
0
 10
230
 20
339
 11
230
 21
209
  0
LINE
  8
0
 10
230
 20
209
 11
239
 21
209
  0
LINE
  8
0
 10
239
 20
209
 11
239
 21
200
  0
LINE
  8
0
 10
239
 20
200
 11
359
 21
200
  0
LINE
  8
0
 10
359
 20
200
 11
359
 21
209
  0
LINE
  8
0
 10
174
 20
209
 11
192
 21
209
  0
LINE
  8
0
 10
192
 20
209
 11
192
 21
339
  0
LINE
  8
0
 10
192
 20
339
 11
0
 21
339
  0
LINE
  8
0
 10
0
 20
339
 11
0
 21
209
  0
LINE
  8
0
 10
0
 20
209
 11
18
 21
209
  0
LINE
  8
0
 10
18
 20
209
 11
18
 21
200
  0
LINE
  8
0
 10
18
 20
200
 11
174
 21
200
  0
LINE
  8
0
 10
174
 20
200
 11
174
 21
209
  0
LINE
  8
0
 10
112
 20
192
 11
0
 21
192
  0
LINE
  8
0
 10
0
 20
192
 11
0
 21
0
  0
LINE
  8
0
 10
0
 20
0
 11
112
 21
0
  0
LINE
  8
0
 10
112
 20
0
 11
112
 21
192
  0
LINE
  8
0
 10
419
 20
190
 11
289
 21
190
  0
LINE
  8
0
 10
289
 20
190
 11
289
 21
181
  0
LINE
  8
0
 10
289
 20
181
 11
280
 21
181
  0
LINE
  8
0
 10
280
 20
181
 11
280
 21
105
  0
LINE
  8
0
 10
280
 20
105
 11
289
 21
105
  0
LINE
  8
0
 10
289
 20
105
 11
289
 21
96
  0
LINE
  8
0
 10
289
 20
96
 11
419
 21
96
  0
LINE
  8
0
 10
419
 20
96
 11
419
 21
190
  0
LINE
  8
0
 10
393.455
 20
138.245
 11
392.061
 21
138.955
  0
LINE
  8
0
 10
392.061
 20
138.955
 11
390.955
 21
140.061
  0
LINE
  8
0
 10
390.955
 20
140.061
 11
390.245
 21
141.455
  0
LINE
  8
0
 10
390.245
 20
141.455
 11
390
 21
143
  0
LINE
  8
0
 10
390
 20
143
 11
390.245
 21
144.545
  0
LINE
  8
0
 10
390.245
 20
144.545
 11
390.955
 21
145.939
  0
LINE
  8
0
 10
390.955
 20
145.939
 11
392.061
 21
147.045
  0
LINE
  8
0
 10
392.061
 20
147.045
 11
393.455
 21
147.755
  0
LINE
  8
0
 10
393.455
 20
147.755
 11
395
 21
148
  0
LINE
  8
0
 10
395
 20
148
 11
396.545
 21
147.755
  0
LINE
  8
0
 10
396.545
 20
147.755
 11
397.939
 21
147.045
  0
LINE
  8
0
 10
397.939
 20
147.045
 11
399.045
 21
145.939
  0
LINE
  8
0
 10
399.045
 20
145.939
 11
399.755
 21
144.545
  0
LINE
  8
0
 10
399.755
 20
144.545
 11
400
 21
143
  0
LINE
  8
0
 10
400
 20
143
 11
399.755
 21
141.455
  0
LINE
  8
0
 10
399.755
 20
141.455
 11
399.045
 21
140.061
  0
LINE
  8
0
 10
399.045
 20
140.061
 11
397.939
 21
138.955
  0
LINE
  8
0
 10
397.939
 20
138.955
 11
396.545
 21
138.245
  0
LINE
  8
0
 10
396.545
 20
138.245
 11
395
 21
138
  0
LINE
  8
0
 10
395
 20
138
 11
393.455
 21
138.245
  0
LINE
  8
0
 10
368.455
 20
138.245
 11
367.061
 21
138.955
  0
LINE
  8
0
 10
367.061
 20
138.955
 11
365.955
 21
140.061
  0
LINE
  8
0
 10
365.955
 20
140.061
 11
365.245
 21
141.455
  0
LINE
  8
0
 10
365.245
 20
141.455
 11
365
 21
143
  0
LINE
  8
0
 10
365
 20
143
 11
365.245
 21
144.545
  0
LINE
  8
0
 10
365.245
 20
144.545
 11
365.955
 21
145.939
  0
LINE
  8
0
 10
365.955
 20
145.939
 11
367.061
 21
147.045
  0
LINE
  8
0
 10
367.061
 20
147.045
 11
368.455
 21
147.755
  0
LINE
  8
0
 10
368.455
 20
147.755
 11
370
 21
148
  0
LINE
  8
0
 10
370
 20
148
 11
371.545
 21
147.755
  0
LINE
  8
0
 10
371.545
 20
147.755
 11
372.939
 21
147.045
  0
LINE
  8
0
 10
372.939
 20
147.045
 11
374.045
 21
145.939
  0
LINE
  8
0
 10
374.045
 20
145.939
 11
374.755
 21
144.545
  0
LINE
  8
0
 10
374.755
 20
144.545
 11
375
 21
143
  0
LINE
  8
0
 10
375
 20
143
 11
374.755
 21
141.455
  0
LINE
  8
0
 10
374.755
 20
141.455
 11
374.045
 21
140.061
  0
LINE
  8
0
 10
374.045
 20
140.061
 11
372.939
 21
138.955
  0
LINE
  8
0
 10
372.939
 20
138.955
 11
371.545
 21
138.245
  0
LINE
  8
0
 10
371.545
 20
138.245
 11
370
 21
138
  0
LINE
  8
0
 10
370
 20
138
 11
368.455
 21
138.245
  0
LINE
  8
0
 10
343.455
 20
138.245
 11
342.061
 21
138.955
  0
LINE
  8
0
 10
342.061
 20
138.955
 11
340.955
 21
140.061
  0
LINE
  8
0
 10
340.955
 20
140.061
 11
340.245
 21
141.455
  0
LINE
  8
0
 10
340.245
 20
141.455
 11
340
 21
143
  0
LINE
  8
0
 10
340
 20
143
 11
340.245
 21
144.545
  0
LINE
  8
0
 10
340.245
 20
144.545
 11
340.955
 21
145.939
  0
LINE
  8
0
 10
340.955
 20
145.939
 11
342.061
 21
147.045
  0
LINE
  8
0
 10
342.061
 20
147.045
 11
343.455
 21
147.755
  0
LINE
  8
0
 10
343.455
 20
147.755
 11
345
 21
148
  0
LINE
  8
0
 10
345
 20
148
 11
346.545
 21
147.755
  0
LINE
  8
0
 10
346.545
 20
147.755
 11
347.939
 21
147.045
  0
LINE
  8
0
 10
347.939
 20
147.045
 11
349.045
 21
145.939
  0
LINE
  8
0
 10
349.045
 20
145.939
 11
349.755
 21
144.545
  0
LINE
  8
0
 10
349.755
 20
144.545
 11
350
 21
143
  0
LINE
  8
0
 10
350
 20
143
 11
349.755
 21
141.455
  0
LINE
  8
0
 10
349.755
 20
141.455
 11
349.045
 21
140.061
  0
LINE
  8
0
 10
349.045
 20
140.061
 11
347.939
 21
138.955
  0
LINE
  8
0
 10
347.939
 20
138.955
 11
346.545
 21
138.245
  0
LINE
  8
0
 10
346.545
 20
138.245
 11
345
 21
138
  0
LINE
  8
0
 10
345
 20
138
 11
343.455
 21
138.245
  0
LINE
  8
0
 10
318.455
 20
138.245
 11
317.061
 21
138.955
  0
LINE
  8
0
 10
317.061
 20
138.955
 11
315.955
 21
140.061
  0
LINE
  8
0
 10
315.955
 20
140.061
 11
315.245
 21
141.455
  0
LINE
  8
0
 10
315.245
 20
141.455
 11
315
 21
143
  0
LINE
  8
0
 10
315
 20
143
 11
315.245
 21
144.545
  0
LINE
  8
0
 10
315.245
 20
144.545
 11
315.955
 21
145.939
  0
LINE
  8
0
 10
315.955
 20
145.939
 11
317.061
 21
147.045
  0
LINE
  8
0
 10
317.061
 20
147.045
 11
318.455
 21
147.755
  0
LINE
  8
0
 10
318.455
 20
147.755
 11
320
 21
148
  0
LINE
  8
0
 10
320
 20
148
 11
321.545
 21
147.755
  0
LINE
  8
0
 10
321.545
 20
147.755
 11
322.939
 21
147.045
  0
LINE
  8
0
 10
322.939
 20
147.045
 11
324.045
 21
145.939
  0
LINE
  8
0
 10
324.045
 20
145.939
 11
324.755
 21
144.545
  0
LINE
  8
0
 10
324.755
 20
144.545
 11
325
 21
143
  0
LINE
  8
0
 10
325
 20
143
 11
324.755
 21
141.455
  0
LINE
  8
0
 10
324.755
 20
141.455
 11
324.045
 21
140.061
  0
LINE
  8
0
 10
324.045
 20
140.061
 11
322.939
 21
138.955
  0
LINE
  8
0
 10
322.939
 20
138.955
 11
321.545
 21
138.245
  0
LINE
  8
0
 10
321.545
 20
138.245
 11
320
 21
138
  0
LINE
  8
0
 10
320
 20
138
 11
318.455
 21
138.245
  0
LINE
  8
0
 10
269
 20
123
 11
244
 21
123
  0
LINE
  8
0
 10
244
 20
123
 11
244
 21
163
  0
LINE
  8
0
 10
244
 20
163
 11
269
 21
163
  0
LINE
  8
0
 10
269
 20
163
 11
269
 21
190
  0
LINE
  8
0
 10
269
 20
190
 11
139
 21
190
  0
LINE
  8
0
 10
139
 20
190
 11
139
 21
181
  0
LINE
  8
0
 10
139
 20
181
 11
130
 21
181
  0
LINE
  8
0
 10
130
 20
181
 11
130
 21
105
  0
LINE
  8
0
 10
130
 20
105
 11
139
 21
105
  0
LINE
  8
0
 10
139
 20
105
 11
139
 21
96
  0
LINE
  8
0
 10
139
 20
96
 11
269
 21
96
  0
LINE
  8
0
 10
269
 20
96
 11
269
 21
123
  0
LINE
  8
0
 10
156.455
 20
138.245
 11
155.061
 21
138.955
  0
LINE
  8
0
 10
155.061
 20
138.955
 11
153.955
 21
140.061
  0
LINE
  8
0
 10
153.955
 20
140.061
 11
153.245
 21
141.455
  0
LINE
  8
0
 10
153.245
 20
141.455
 11
153
 21
143
  0
LINE
  8
0
 10
153
 20
143
 11
153.245
 21
144.545
  0
LINE
  8
0
 10
153.245
 20
144.545
 11
153.955
 21
145.939
  0
LINE
  8
0
 10
153.955
 20
145.939
 11
155.061
 21
147.045
  0
LINE
  8
0
 10
155.061
 20
147.045
 11
156.455
 21
147.755
  0
LINE
  8
0
 10
156.455
 20
147.755
 11
158
 21
148
  0
LINE
  8
0
 10
158
 20
148
 11
159.545
 21
147.755
  0
LINE
  8
0
 10
159.545
 20
147.755
 11
160.939
 21
147.045
  0
LINE
  8
0
 10
160.939
 20
147.045
 11
162.045
 21
145.939
  0
LINE
  8
0
 10
162.045
 20
145.939
 11
162.755
 21
144.545
  0
LINE
  8
0
 10
162.755
 20
144.545
 11
163
 21
143
  0
LINE
  8
0
 10
163
 20
143
 11
162.755
 21
141.455
  0
LINE
  8
0
 10
162.755
 20
141.455
 11
162.045
 21
140.061
  0
LINE
  8
0
 10
162.045
 20
140.061
 11
160.939
 21
138.955
  0
LINE
  8
0
 10
160.939
 20
138.955
 11
159.545
 21
138.245
  0
LINE
  8
0
 10
159.545
 20
138.245
 11
158
 21
138
  0
LINE
  8
0
 10
158
 20
138
 11
156.455
 21
138.245
  0
LINE
  8
0
 10
419
 20
22
 11
410
 21
22
  0
LINE
  8
0
 10
410
 20
22
 11
410
 21
62
  0
LINE
  8
0
 10
410
 20
62
 11
419
 21
62
  0
LINE
  8
0
 10
419
 20
62
 11
419
 21
80
  0
LINE
  8
0
 10
419
 20
80
 11
289
 21
80
  0
LINE
  8
0
 10
289
 20
80
 11
289
 21
71
  0
LINE
  8
0
 10
289
 20
71
 11
280
 21
71
  0
LINE
  8
0
 10
280
 20
71
 11
280
 21
13
  0
LINE
  8
0
 10
280
 20
13
 11
289
 21
13
  0
LINE
  8
0
 10
289
 20
13
 11
289
 21
4
  0
LINE
  8
0
 10
289
 20
4
 11
419
 21
4
  0
LINE
  8
0
 10
419
 20
4
 11
419
 21
22
  0
LINE
  8
0
 10
395
 20
50
 11
397.472
 21
49.6084
  0
LINE
  8
0
 10
397.472
 20
49.6084
 11
399.702
 21
48.4721
  0
LINE
  8
0
 10
399.702
 20
48.4721
 11
401.472
 21
46.7023
  0
LINE
  8
0
 10
401.472
 20
46.7023
 11
402.608
 21
44.4721
  0
LINE
  8
0
 10
402.608
 20
44.4721
 11
403
 21
42
  0
LINE
  8
0
 10
403
 20
42
 11
402.608
 21
39.5279
  0
LINE
  8
0
 10
402.608
 20
39.5279
 11
401.472
 21
37.2977
  0
LINE
  8
0
 10
401.472
 20
37.2977
 11
399.702
 21
35.5279
  0
LINE
  8
0
 10
399.702
 20
35.5279
 11
397.472
 21
34.3915
  0
LINE
  8
0
 10
397.472
 20
34.3915
 11
395
 21
34
  0
LINE
  8
0
 10
395
 20
34
 11
392.528
 21
34.3915
  0
LINE
  8
0
 10
392.528
 20
34.3915
 11
390.298
 21
35.5279
  0
LINE
  8
0
 10
390.298
 20
35.5279
 11
388.528
 21
37.2977
  0
LINE
  8
0
 10
388.528
 20
37.2977
 11
387.392
 21
39.5279
  0
LINE
  8
0
 10
387.392
 20
39.5279
 11
387
 21
42
  0
LINE
  8
0
 10
387
 20
42
 11
387.392
 21
44.4721
  0
LINE
  8
0
 10
387.392
 20
44.4721
 11
388.528
 21
46.7023
  0
LINE
  8
0
 10
388.528
 20
46.7023
 11
390.298
 21
48.4721
  0
LINE
  8
0
 10
390.298
 20
48.4721
 11
392.528
 21
49.6084
  0
LINE
  8
0
 10
392.528
 20
49.6084
 11
395
 21
50
  0
LINE
  8
0
 10
317.528
 20
34.3915
 11
315.298
 21
35.5279
  0
LINE
  8
0
 10
315.298
 20
35.5279
 11
313.528
 21
37.2977
  0
LINE
  8
0
 10
313.528
 20
37.2977
 11
312.392
 21
39.5279
  0
LINE
  8
0
 10
312.392
 20
39.5279
 11
312
 21
42
  0
LINE
  8
0
 10
312
 20
42
 11
312.392
 21
44.4721
  0
LINE
  8
0
 10
312.392
 20
44.4721
 11
313.528
 21
46.7023
  0
LINE
  8
0
 10
313.528
 20
46.7023
 11
315.298
 21
48.4721
  0
LINE
  8
0
 10
315.298
 20
48.4721
 11
317.528
 21
49.6084
  0
LINE
  8
0
 10
317.528
 20
49.6084
 11
320
 21
50
  0
LINE
  8
0
 10
320
 20
50
 11
322.472
 21
49.6084
  0
LINE
  8
0
 10
322.472
 20
49.6084
 11
324.702
 21
48.4721
  0
LINE
  8
0
 10
324.702
 20
48.4721
 11
326.472
 21
46.7023
  0
LINE
  8
0
 10
326.472
 20
46.7023
 11
327.608
 21
44.4721
  0
LINE
  8
0
 10
327.608
 20
44.4721
 11
328
 21
42
  0
LINE
  8
0
 10
328
 20
42
 11
327.608
 21
39.5279
  0
LINE
  8
0
 10
327.608
 20
39.5279
 11
326.472
 21
37.2977
  0
LINE
  8
0
 10
326.472
 20
37.2977
 11
324.702
 21
35.5279
  0
LINE
  8
0
 10
324.702
 20
35.5279
 11
322.472
 21
34.3915
  0
LINE
  8
0
 10
322.472
 20
34.3915
 11
320
 21
34
  0
LINE
  8
0
 10
320
 20
34
 11
317.528
 21
34.3915
  0
LINE
  8
0
 10
342.528
 20
34.3915
 11
340.298
 21
35.5279
  0
LINE
  8
0
 10
340.298
 20
35.5279
 11
338.528
 21
37.2977
  0
LINE
  8
0
 10
338.528
 20
37.2977
 11
337.392
 21
39.5279
  0
LINE
  8
0
 10
337.392
 20
39.5279
 11
337
 21
42
  0
LINE
  8
0
 10
337
 20
42
 11
337.392
 21
44.4721
  0
LINE
  8
0
 10
337.392
 20
44.4721
 11
338.528
 21
46.7023
  0
LINE
  8
0
 10
338.528
 20
46.7023
 11
340.298
 21
48.4721
  0
LINE
  8
0
 10
340.298
 20
48.4721
 11
342.528
 21
49.6084
  0
LINE
  8
0
 10
342.528
 20
49.6084
 11
345
 21
50
  0
LINE
  8
0
 10
345
 20
50
 11
347.472
 21
49.6084
  0
LINE
  8
0
 10
347.472
 20
49.6084
 11
349.702
 21
48.4721
  0
LINE
  8
0
 10
349.702
 20
48.4721
 11
351.472
 21
46.7023
  0
LINE
  8
0
 10
351.472
 20
46.7023
 11
352.608
 21
44.4721
  0
LINE
  8
0
 10
352.608
 20
44.4721
 11
353
 21
42
  0
LINE
  8
0
 10
353
 20
42
 11
352.608
 21
39.5279
  0
LINE
  8
0
 10
352.608
 20
39.5279
 11
351.472
 21
37.2977
  0
LINE
  8
0
 10
351.472
 20
37.2977
 11
349.702
 21
35.5279
  0
LINE
  8
0
 10
349.702
 20
35.5279
 11
347.472
 21
34.3915
  0
LINE
  8
0
 10
347.472
 20
34.3915
 11
345
 21
34
  0
LINE
  8
0
 10
345
 20
34
 11
342.528
 21
34.3915
  0
LINE
  8
0
 10
377.608
 20
44.4721
 11
378
 21
42
  0
LINE
  8
0
 10
378
 20
42
 11
377.608
 21
39.5279
  0
LINE
  8
0
 10
377.608
 20
39.5279
 11
376.472
 21
37.2977
  0
LINE
  8
0
 10
376.472
 20
37.2977
 11
374.702
 21
35.5279
  0
LINE
  8
0
 10
374.702
 20
35.5279
 11
372.472
 21
34.3915
  0
LINE
  8
0
 10
372.472
 20
34.3915
 11
370
 21
34
  0
LINE
  8
0
 10
370
 20
34
 11
367.528
 21
34.3915
  0
LINE
  8
0
 10
367.528
 20
34.3915
 11
365.298
 21
35.5279
  0
LINE
  8
0
 10
365.298
 20
35.5279
 11
363.528
 21
37.2977
  0
LINE
  8
0
 10
363.528
 20
37.2977
 11
362.392
 21
39.5279
  0
LINE
  8
0
 10
362.392
 20
39.5279
 11
362
 21
42
  0
LINE
  8
0
 10
362
 20
42
 11
362.392
 21
44.4721
  0
LINE
  8
0
 10
362.392
 20
44.4721
 11
363.528
 21
46.7023
  0
LINE
  8
0
 10
363.528
 20
46.7023
 11
365.298
 21
48.4721
  0
LINE
  8
0
 10
365.298
 20
48.4721
 11
367.528
 21
49.6084
  0
LINE
  8
0
 10
367.528
 20
49.6084
 11
370
 21
50
  0
LINE
  8
0
 10
370
 20
50
 11
372.472
 21
49.6084
  0
LINE
  8
0
 10
372.472
 20
49.6084
 11
374.702
 21
48.4721
  0
LINE
  8
0
 10
374.702
 20
48.4721
 11
376.472
 21
46.7023
  0
LINE
  8
0
 10
376.472
 20
46.7023
 11
377.608
 21
44.4721
  0
LINE
  8
0
 10
269
 20
22
 11
235
 21
22
  0
LINE
  8
0
 10
235
 20
22
 11
235
 21
62
  0
LINE
  8
0
 10
235
 20
62
 11
269
 21
62
  0
LINE
  8
0
 10
269
 20
62
 11
269
 21
80
  0
LINE
  8
0
 10
269
 20
80
 11
139
 21
80
  0
LINE
  8
0
 10
139
 20
80
 11
139
 21
71
  0
LINE
  8
0
 10
139
 20
71
 11
130
 21
71
  0
LINE
  8
0
 10
130
 20
71
 11
130
 21
13
  0
LINE
  8
0
 10
130
 20
13
 11
139
 21
13
  0
LINE
  8
0
 10
139
 20
13
 11
139
 21
4
  0
LINE
  8
0
 10
139
 20
4
 11
269
 21
4
  0
LINE
  8
0
 10
269
 20
4
 11
269
 21
22
  0
LINE
  8
0
 10
155.528
 20
34.3915
 11
153.298
 21
35.5279
  0
LINE
  8
0
 10
153.298
 20
35.5279
 11
151.528
 21
37.2977
  0
LINE
  8
0
 10
151.528
 20
37.2977
 11
150.392
 21
39.5279
  0
LINE
  8
0
 10
150.392
 20
39.5279
 11
150
 21
42
  0
LINE
  8
0
 10
150
 20
42
 11
150.392
 21
44.4721
  0
LINE
  8
0
 10
150.392
 20
44.4721
 11
151.528
 21
46.7023
  0
LINE
  8
0
 10
151.528
 20
46.7023
 11
153.298
 21
48.4721
  0
LINE
  8
0
 10
153.298
 20
48.4721
 11
155.528
 21
49.6084
  0
LINE
  8
0
 10
155.528
 20
49.6084
 11
158
 21
50
  0
LINE
  8
0
 10
158
 20
50
 11
160.472
 21
49.6084
  0
LINE
  8
0
 10
160.472
 20
49.6084
 11
162.702
 21
48.4721
  0
LINE
  8
0
 10
162.702
 20
48.4721
 11
164.472
 21
46.7023
  0
LINE
  8
0
 10
164.472
 20
46.7023
 11
165.608
 21
44.4721
  0
LINE
  8
0
 10
165.608
 20
44.4721
 11
166
 21
42
  0
LINE
  8
0
 10
166
 20
42
 11
165.608
 21
39.5279
  0
LINE
  8
0
 10
165.608
 20
39.5279
 11
164.472
 21
37.2977
  0
LINE
  8
0
 10
164.472
 20
37.2977
 11
162.702
 21
35.5279
  0
LINE
  8
0
 10
162.702
 20
35.5279
 11
160.472
 21
34.3915
  0
LINE
  8
0
 10
160.472
 20
34.3915
 11
158
 21
34
  0
LINE
  8
0
 10
158
 20
34
 11
155.528
 21
34.3915
  0
ENDSEC
  0
SECTION
  2
OBJECTS
  0
DICTIONARY
  0
ENDSEC
  0
EOF
